<?xml version="1.0" encoding="iso-8859-1"?>
<!-- Generator: Adobe Illustrator 14.0.0, SVG Export Plug-In . SVG Version: 6.00 Build 43363)  -->
<!DOCTYPE svg PUBLIC "-//W3C//DTD SVG 1.1//EN" "http://www.w3.org/Graphics/SVG/1.1/DTD/svg11.dtd">
<svg version="1.1" xmlns="http://www.w3.org/2000/svg" xmlns:xlink="http://www.w3.org/1999/xlink" x="0px" y="0px" width="348px"
	 height="585px" viewBox="0 0 348 585" style="enable-background:new 0 0 348 585;" xml:space="preserve">
<g id="duibutton-layer">
</g>
<g id="dui-theme-rd">
	<g id="duibutton">
		<g id="duibuttonThemeTemplateHelper">
			<g>
				<path style="fill:#B3B3B3;" d="M16,238c-8.271,0-15-6.729-15-15V16C1,7.729,7.729,1,16,1h316c8.271,0,15,6.729,15,15v207
					c0,8.271-6.729,15-15,15H16z"/>
				<g>
					<path d="M332,2c7.72,0,14,6.28,14,14v207c0,7.72-6.28,14-14,14H16c-7.72,0-14-6.28-14-14V16C2,8.28,8.28,2,16,2H332 M332,0H16
						C7.2,0,0,7.2,0,16v207c0,8.8,7.2,16,16,16h316c8.8,0,16-7.2,16-16V16C348,7.2,340.8,0,332,0L332,0z"/>
				</g>
			</g>
			<path style="fill:#010101;" d="M79.297,34.333h-4.152V19.045h4.471c2.83,0,4.244,1.233,4.244,3.701
				c0,1.75-0.799,2.926-2.398,3.527c1.906,0.431,2.859,1.682,2.859,3.753C84.32,32.897,82.646,34.333,79.297,34.333z M77.348,25.658
				h1.59c0.916,0,1.59-0.219,2.02-0.656c0.432-0.438,0.646-1.121,0.646-2.051c0-1.613-0.783-2.42-2.348-2.42h-1.908V25.658z
				 M77.348,32.846h1.846c0.998,0,1.721-0.223,2.164-0.671c0.445-0.448,0.666-1.185,0.666-2.21c0-1.887-0.957-2.83-2.871-2.83
				h-1.805V32.846z"/>
			<path style="fill:#010101;" d="M90.176,34.497c-1.217,0-2.127-0.315-2.732-0.948s-0.908-1.581-0.908-2.846v-8.295h2.186v7.916
				c0,0.895,0.156,1.566,0.471,2.015s0.789,0.671,1.426,0.671c0.793,0,1.406-0.301,1.84-0.902c0.436-0.602,0.652-1.384,0.652-2.348
				v-7.352h2.184v11.925h-1.211l-0.439-1.764C92.883,33.854,91.729,34.497,90.176,34.497z"/>
			<path style="fill:#010101;" d="M101.322,34.497c-0.93,0-1.609-0.217-2.039-0.651c-0.432-0.434-0.646-1.126-0.646-2.076v-7.937
				h-1.568v-0.82l3.188-3.251h0.564v2.646h2.902v1.425h-2.902v7.577c0,0.65,0.105,1.079,0.318,1.287
				c0.211,0.209,0.533,0.312,0.963,0.312c0.445,0,1.047-0.099,1.805-0.297v1.415C102.99,34.374,102.129,34.497,101.322,34.497z"/>
			<path style="fill:#010101;" d="M108.613,34.497c-0.93,0-1.609-0.217-2.039-0.651c-0.432-0.434-0.646-1.126-0.646-2.076v-7.937
				h-1.568v-0.82l3.188-3.251h0.564v2.646h2.902v1.425h-2.902v7.577c0,0.65,0.105,1.079,0.318,1.287
				c0.211,0.209,0.533,0.312,0.963,0.312c0.445,0,1.047-0.099,1.805-0.297v1.415C110.281,34.374,109.42,34.497,108.613,34.497z"/>
			<path style="fill:#010101;" d="M117.002,34.497c-1.607,0-2.809-0.526-3.609-1.579c-0.799-1.053-1.199-2.632-1.199-4.737
				c0-1.832,0.414-3.281,1.246-4.348c0.83-1.066,2.018-1.6,3.562-1.6c1.559,0,2.75,0.526,3.574,1.579
				c0.822,1.053,1.234,2.522,1.234,4.409c0,1.941-0.385,3.473-1.152,4.594C119.889,33.937,118.67,34.497,117.002,34.497z
				 M117.002,33.092c0.842,0,1.475-0.381,1.902-1.143s0.641-2.039,0.641-3.83c0-1.265-0.219-2.326-0.656-3.184
				s-1.066-1.287-1.887-1.287c-0.834,0-1.467,0.387-1.896,1.158c-0.432,0.773-0.646,1.877-0.646,3.312
				c0,1.613,0.215,2.846,0.646,3.696C115.535,32.667,116.168,33.092,117.002,33.092z"/>
			<path style="fill:#010101;" d="M133.039,34.333h-2.184v-7.916c0-0.896-0.158-1.567-0.473-2.015s-0.785-0.672-1.414-0.672
				c-0.793,0-1.408,0.301-1.846,0.902s-0.656,1.385-0.656,2.348v7.353h-2.186V22.408h1.221l0.441,1.764
				c0.758-1.293,1.914-1.938,3.465-1.938c1.211,0,2.119,0.317,2.723,0.954c0.605,0.635,0.908,1.586,0.908,2.85V34.333z"/>
			<path style="fill:#010101;" d="M147.139,32.61c-0.738,1.258-1.887,1.887-3.445,1.887c-1.088,0-1.934-0.306-2.539-0.918
				c-0.604-0.611-0.906-1.468-0.906-2.568c0-1.135,0.311-1.98,0.934-2.538c0.621-0.557,1.365-0.905,2.234-1.046
				c0.867-0.14,1.924-0.21,3.168-0.21v-1.404c0-1.389-0.742-2.082-2.225-2.082c-0.855,0-1.896,0.182-3.127,0.543v-1.527
				c1.236-0.342,2.412-0.513,3.527-0.513c1.312,0,2.309,0.316,2.988,0.948c0.68,0.633,1.021,1.564,1.021,2.795v8.356h-1.189
				L147.139,32.61z M146.584,28.52h-1.219c-0.979,0-1.711,0.207-2.201,0.62c-0.488,0.413-0.732,1.03-0.732,1.851
				c0,0.67,0.148,1.171,0.445,1.502c0.299,0.332,0.744,0.498,1.34,0.498c0.75,0,1.334-0.24,1.748-0.719
				c0.412-0.479,0.619-1.127,0.619-1.947V28.52z"/>
			<path style="fill:#010101;" d="M160.469,34.333h-2.186v-7.916c0-0.896-0.156-1.567-0.471-2.015s-0.787-0.672-1.416-0.672
				c-0.793,0-1.408,0.301-1.846,0.902s-0.656,1.385-0.656,2.348v7.353h-2.184V22.408h1.221l0.441,1.764
				c0.758-1.293,1.912-1.938,3.465-1.938c1.211,0,2.117,0.317,2.723,0.954c0.605,0.635,0.908,1.586,0.908,2.85V34.333z"/>
			<path style="fill:#010101;" d="M170.865,34.333l-0.461-1.466c-0.631,1.086-1.707,1.63-3.23,1.63c-1.416,0-2.48-0.501-3.195-1.502
				c-0.713-1.001-1.07-2.565-1.07-4.691c0-1.784,0.381-3.241,1.143-4.373s1.844-1.697,3.246-1.697c1.148,0,2.01,0.345,2.584,1.036
				v-5.168h2.184v16.231H170.865z M169.953,28.898l-0.012-0.677c0-1.777-0.199-2.978-0.6-3.599c-0.4-0.623-0.969-0.934-1.707-0.934
				c-0.82,0-1.436,0.379-1.846,1.139c-0.41,0.758-0.615,1.896-0.615,3.414c0,1.593,0.197,2.785,0.596,3.578
				c0.395,0.793,0.99,1.189,1.783,1.189c0.771,0,1.365-0.287,1.779-0.861S169.953,30.491,169.953,28.898z"/>
			<path style="fill:#010101;" d="M184.432,34.497c-1.621,0-2.846-0.531-3.672-1.595c-0.828-1.062-1.24-2.623-1.24-4.681
				c0-1.914,0.445-3.391,1.338-4.43s2.189-1.559,3.891-1.559c0.664,0,1.336,0.085,2.021,0.257v1.486
				c-0.521-0.164-1.166-0.246-1.939-0.246c-0.998,0-1.754,0.398-2.271,1.194c-0.516,0.797-0.773,1.909-0.773,3.338
				c0,1.538,0.258,2.714,0.773,3.527c0.518,0.813,1.273,1.22,2.271,1.22c0.861,0,1.535-0.078,2.021-0.235v1.415
				C186.119,34.395,185.312,34.497,184.432,34.497z"/>
			<path style="fill:#010101;" d="M197.557,34.333h-2.186v-8.11c0-0.828-0.156-1.449-0.471-1.867
				c-0.314-0.416-0.787-0.625-1.416-0.625c-0.793,0-1.408,0.301-1.846,0.902s-0.656,1.385-0.656,2.348v7.353h-2.184V18.102h2.184
				v5.455c0.76-0.883,1.74-1.323,2.943-1.323c1.211,0,2.117,0.323,2.723,0.969c0.605,0.646,0.908,1.612,0.908,2.897V34.333z"/>
			<path style="fill:#010101;" d="M208.312,32.508v1.486c-1.074,0.336-2.186,0.503-3.334,0.503c-1.668,0-2.916-0.503-3.742-1.507
				c-0.828-1.006-1.24-2.554-1.24-4.646c0-1.839,0.4-3.317,1.199-4.435c0.801-1.118,1.941-1.677,3.426-1.677
				c1.201,0,2.105,0.319,2.711,0.959s0.992,1.422,1.164,2.348c0.17,0.927,0.256,2.028,0.256,3.308h-6.439
				c0,1.387,0.246,2.428,0.738,3.122s1.23,1.04,2.215,1.04C206.1,33.01,207.115,32.843,208.312,32.508z M202.312,27.504h4.297
				c0-1.442-0.172-2.461-0.512-3.056c-0.344-0.595-0.836-0.892-1.477-0.892c-0.719,0-1.268,0.307-1.646,0.922
				S202.375,26.103,202.312,27.504z"/>
			<path style="fill:#010101;" d="M215.592,34.497c-1.621,0-2.844-0.531-3.672-1.595c-0.826-1.062-1.24-2.623-1.24-4.681
				c0-1.914,0.447-3.391,1.338-4.43c0.893-1.039,2.189-1.559,3.893-1.559c0.662,0,1.336,0.085,2.02,0.257v1.486
				c-0.52-0.164-1.166-0.246-1.938-0.246c-0.998,0-1.756,0.398-2.271,1.194c-0.516,0.797-0.775,1.909-0.775,3.338
				c0,1.538,0.26,2.714,0.775,3.527s1.273,1.22,2.271,1.22c0.861,0,1.533-0.078,2.02-0.235v1.415
				C217.279,34.395,216.473,34.497,215.592,34.497z"/>
			<path style="fill:#010101;" d="M224.482,27.596l4.348,6.737h-2.584l-4.102-6.491v6.491h-2.186V18.102h2.186v9.699l4.039-5.393
				h2.389L224.482,27.596z"/>
			<path style="fill:#010101;" d="M245.227,34.333h-2.186v-8.214c0-0.793-0.148-1.389-0.445-1.789c-0.297-0.399-0.744-0.6-1.338-0.6
				c-0.766,0-1.355,0.301-1.77,0.902s-0.619,1.385-0.619,2.348v7.353h-2.186v-8.214c0-0.793-0.152-1.389-0.455-1.789
				c-0.305-0.399-0.762-0.6-1.369-0.6c-0.752,0-1.334,0.305-1.744,0.912c-0.41,0.609-0.615,1.389-0.615,2.338v7.353h-2.184V22.408
				h1.221l0.441,1.764c0.73-1.293,1.846-1.938,3.342-1.938c0.793,0,1.451,0.15,1.975,0.451c0.521,0.301,0.906,0.752,1.152,1.354
				c0.678-1.203,1.76-1.805,3.252-1.805c1.174,0,2.057,0.317,2.645,0.954c0.588,0.635,0.883,1.586,0.883,2.85V34.333z"/>
			<path style="fill:#010101;" d="M254.352,32.61c-0.738,1.258-1.887,1.887-3.445,1.887c-1.088,0-1.934-0.306-2.539-0.918
				c-0.604-0.611-0.906-1.468-0.906-2.568c0-1.135,0.311-1.98,0.934-2.538c0.621-0.557,1.365-0.905,2.234-1.046
				c0.867-0.14,1.924-0.21,3.168-0.21v-1.404c0-1.389-0.742-2.082-2.225-2.082c-0.855,0-1.896,0.182-3.127,0.543v-1.527
				c1.236-0.342,2.412-0.513,3.527-0.513c1.312,0,2.309,0.316,2.988,0.948c0.68,0.633,1.021,1.564,1.021,2.795v8.356h-1.189
				L254.352,32.61z M253.797,28.52h-1.219c-0.979,0-1.711,0.207-2.201,0.62c-0.488,0.413-0.732,1.03-0.732,1.851
				c0,0.67,0.148,1.171,0.445,1.502c0.299,0.332,0.744,0.498,1.34,0.498c0.75,0,1.334-0.24,1.748-0.719
				c0.412-0.479,0.619-1.127,0.619-1.947V28.52z"/>
			<path style="fill:#010101;" d="M260.145,22.408l0.502,1.988c0.662-1.4,1.818-2.102,3.467-2.102c0.217,0,0.379,0.01,0.48,0.031
				v1.988c-0.17-0.014-0.428-0.02-0.768-0.02c-0.938,0-1.625,0.224-2.062,0.671c-0.438,0.448-0.656,1.147-0.656,2.097v7.271h-2.184
				V22.408H260.145z"/>
			<path style="fill:#010101;" d="M270.941,27.596l4.348,6.737h-2.584l-4.102-6.491v6.491h-2.184V18.102h2.184v9.699l4.041-5.393
				h2.389L270.941,27.596z"/>
			<g>
				<path style="fill:#B3B3B3;" d="M16,584c-8.271,0-15-6.729-15-15V288.416c0-8.271,6.729-15,15-15h316c8.271,0,15,6.729,15,15V569
					c0,8.271-6.729,15-15,15H16z"/>
				<g>
					<path d="M332,274.416c7.72,0,14,6.28,14,14V569c0,7.72-6.28,14-14,14H16c-7.72,0-14-6.28-14-14V288.416c0-7.72,6.28-14,14-14
						H332 M332,272.416H16c-8.8,0-16,7.2-16,16V569c0,8.8,7.2,16,16,16h316c8.8,0,16-7.2,16-16V288.416
						C348,279.616,340.8,272.416,332,272.416L332,272.416z"/>
				</g>
			</g>
			<path style="fill:#010101;" d="M148.541,306.913c-1.025,0-2.047-0.14-3.066-0.421v-1.589c1.121,0.321,2.123,0.481,3.004,0.481
				c0.943,0,1.691-0.211,2.242-0.635c0.549-0.424,0.824-1.033,0.824-1.826c0-0.506-0.107-0.934-0.322-1.286
				s-0.494-0.651-0.836-0.897s-0.838-0.557-1.486-0.934c-0.773-0.443-1.383-0.838-1.83-1.184c-0.449-0.346-0.822-0.786-1.123-1.323
				c-0.301-0.536-0.451-1.188-0.451-1.953c0-1.299,0.432-2.298,1.297-2.999s2.041-1.051,3.531-1.051
				c0.979,0,1.895,0.102,2.748,0.307v1.539c-0.957-0.213-1.824-0.318-2.604-0.318c-0.814,0-1.475,0.197-1.984,0.59
				s-0.764,0.938-0.764,1.635c0,0.451,0.135,0.883,0.404,1.293c0.271,0.41,1.004,0.963,2.199,1.66
				c0.779,0.451,1.395,0.848,1.842,1.189s0.826,0.779,1.139,1.312c0.311,0.533,0.465,1.173,0.465,1.918
				C153.77,305.416,152.027,306.913,148.541,306.913z"/>
			<path style="fill:#010101;" d="M170.793,294.824l-3.211,11.925h-2.562l-2.328-9.618l-2.502,9.618h-2.521l-3.088-11.925h2.205
				l2.318,10.038l2.521-10.038h2.41l2.369,10.059l2.461-10.059H170.793z"/>
			<path style="fill:#010101;" d="M174.975,306.749h-2.184v-10.5h-1.363v-1.425h3.547V306.749z M173.889,290.641
				c0.334,0,0.623,0.123,0.867,0.369c0.242,0.246,0.363,0.536,0.363,0.871c0,0.342-0.119,0.635-0.359,0.877
				c-0.238,0.242-0.529,0.363-0.871,0.363c-0.35,0-0.643-0.121-0.883-0.363c-0.238-0.242-0.357-0.535-0.357-0.877
				c0-0.349,0.119-0.643,0.357-0.882C173.246,290.76,173.539,290.641,173.889,290.641z"/>
			<path style="fill:#010101;" d="M181.127,306.913c-0.93,0-1.609-0.217-2.039-0.651c-0.432-0.434-0.646-1.126-0.646-2.076v-7.937
				h-1.568v-0.82l3.188-3.251h0.564v2.646h2.902v1.425h-2.902v7.577c0,0.65,0.105,1.079,0.318,1.287
				c0.211,0.209,0.533,0.312,0.963,0.312c0.445,0,1.047-0.099,1.805-0.297v1.415C182.795,306.79,181.934,306.913,181.127,306.913z"
				/>
			<path style="fill:#010101;" d="M189.619,306.913c-1.621,0-2.846-0.531-3.672-1.595c-0.828-1.062-1.24-2.623-1.24-4.681
				c0-1.914,0.445-3.391,1.338-4.43s2.189-1.559,3.891-1.559c0.664,0,1.336,0.085,2.021,0.257v1.486
				c-0.521-0.164-1.166-0.246-1.939-0.246c-0.998,0-1.754,0.398-2.271,1.194c-0.516,0.797-0.773,1.909-0.773,3.338
				c0,1.538,0.258,2.714,0.773,3.527c0.518,0.813,1.273,1.22,2.271,1.22c0.861,0,1.535-0.078,2.021-0.235v1.415
				C191.307,306.811,190.5,306.913,189.619,306.913z"/>
			<path style="fill:#010101;" d="M202.744,306.749h-2.186v-8.11c0-0.828-0.156-1.449-0.471-1.867
				c-0.314-0.416-0.787-0.625-1.416-0.625c-0.793,0-1.408,0.301-1.846,0.902s-0.656,1.385-0.656,2.348v7.353h-2.184v-16.231h2.184
				v5.455c0.76-0.883,1.74-1.323,2.943-1.323c1.211,0,2.117,0.323,2.723,0.969c0.605,0.646,0.908,1.612,0.908,2.897V306.749z"/>
		</g>
		<g id="duibutton-switch-colorstripe">
			<g id="_x3C_Path_x3E__2_">
				<linearGradient id="SVGID_1_" gradientUnits="userSpaceOnUse" x1="60" y1="524" x2="60" y2="480">
					<stop  offset="0" style="stop-color:#74CCD4"/>
					<stop  offset="0.1301" style="stop-color:#66C2D6"/>
					<stop  offset="0.4156" style="stop-color:#4BB5DC"/>
					<stop  offset="0.7046" style="stop-color:#35ADDF"/>
					<stop  offset="1" style="stop-color:#2AAAE2"/>
				</linearGradient>
				<rect x="24" y="480" style="fill:url(#SVGID_1_);" width="72" height="44"/>
			</g>
			<g id="_x3C_Path_x3E__3_">
				<linearGradient id="SVGID_2_" gradientUnits="userSpaceOnUse" x1="132" y1="524" x2="132" y2="480">
					<stop  offset="0" style="stop-color:#808080"/>
					<stop  offset="1" style="stop-color:#1A1A1A"/>
				</linearGradient>
				<rect x="96" y="480" style="fill:url(#SVGID_2_);" width="72" height="44"/>
			</g>
		</g>
		<g id="duibutton-switch-mask">
			<rect x="24" y="430" style="fill:none;" width="72" height="44"/>
			<g id="Normal_11_">
				<path style="fill:#FFFFFF;" d="M95,452c0,11-9,20-20,20H45c-11,0-20-9-20-20l0,0c0-11,9-20,20-20h30C86,432,95,441,95,452
					L95,452z"/>
			</g>
		</g>
		<g id="duibutton-switch-background">
			<g id="Normal_14_" style="opacity:0.1;">
				<path style="fill:#010101;" d="M96,403c0,11.55-9.45,21-21,21H45c-11.55,0-21-9.45-21-21v-2c0-11.55,9.45-21,21-21h30
					c11.55,0,21,9.45,21,21V403z"/>
			</g>
			<g id="Normal_13_">
				<path style="fill:#FFFFFF;" d="M95,403c0,11-9,20-20,20H45c-11,0-20-9-20-20l0,0c0-11,9-20,20-20h30C86,383,95,392,95,403
					L95,403z"/>
			</g>
			<g id="Normal_12_">
				<path style="fill:#333333;" d="M95,401c0,11-9,20-20,20H45c-11,0-20-9-20-20l0,0c0-11,9-20,20-20h30C86,381,95,390,95,401
					L95,401z"/>
			</g>
		</g>
		<g id="duibutton-switch-thumb">
			<rect id="_x3C_Path_x3E__5_" x="24" y="330" style="fill:none;" width="44" height="44"/>
			<g id="Normal_1_">
				<linearGradient id="SVGID_3_" gradientUnits="userSpaceOnUse" x1="46" y1="371.5" x2="46" y2="332.5">
					<stop  offset="0" style="stop-color:#E6E6E6"/>
					<stop  offset="0.5042" style="stop-color:#F2F2F2"/>
					<stop  offset="1" style="stop-color:#F7F7F7"/>
				</linearGradient>
				<path style="fill:url(#SVGID_3_);" d="M46,371.5c-10.752,0-19.5-8.748-19.5-19.5s8.748-19.5,19.5-19.5s19.5,8.748,19.5,19.5
					S56.752,371.5,46,371.5L46,371.5z"/>
				<path style="fill:#FFFFFF;" d="M46,333c10.477,0,19,8.523,19,19s-8.523,19-19,19s-19-8.523-19-19S35.523,333,46,333 M46,332
					c-11,0-20,9-20,20s9,20,20,20s20-9,20-20S57,332,46,332L46,332z"/>
			</g>
		</g>
		<g id="duibutton-checkbox-checkmark-pressed">
			<rect x="254.5" y="123" style="opacity:0;fill:#FFFFFF;" width="64" height="64"/>
			<g>
				<polygon style="fill:#808080;" points="267.137,157.775 271.632,152.078 280.082,162.792 301.368,135.808 305.863,141.512 
					280.082,174.192 				"/>
				<path style="fill:#4D4D4D;" d="M301.368,136.615l3.858,4.896l-25.145,31.874l-12.309-15.61l3.858-4.89l7.665,9.718l0.785,0.996
					l0.785-0.996L301.368,136.615 M301.368,135l-21.286,26.984l-8.45-10.714l-5.132,6.505L280.082,175l26.418-33.488L301.368,135
					L301.368,135z"/>
			</g>
		</g>
		<g id="duibutton-checkbox-checkmark">
			<rect x="180.5" y="123" style="opacity:0;fill:#FFFFFF;" width="64" height="64"/>
			<g>
				<polygon style="fill:#FFFFFF;" points="193.137,157.775 197.632,152.078 206.082,162.792 227.368,135.808 231.863,141.512 
					206.082,174.192 				"/>
				<path style="fill:#808080;" d="M227.368,136.615l3.858,4.896l-25.145,31.874l-12.309-15.61l3.858-4.89l7.665,9.718l0.785,0.996
					l0.785-0.996L227.368,136.615 M227.368,135l-21.286,26.984l-8.45-10.714l-5.132,6.505L206.082,175l26.418-33.488L227.368,135
					L227.368,135z"/>
			</g>
		</g>
		<g id="duibutton-checkbox-background-pressed">
			<g>
				<path style="fill:#FFFFFF;" d="M162,178c0,5.5-4.5,10-10,10h-44c-5.5,0-10-4.5-10-10v-42c0-5.5,4.5-10,10-10h44
					c5.5,0,10,4.5,10,10V178z"/>
			</g>
			<g>
				<path style="fill:#333333;" d="M162,176c0,5.5-4.5,10-10,10h-44c-5.5,0-10-4.5-10-10v-42c0-5.5,4.5-10,10-10h44
					c5.5,0,10,4.5,10,10V176z"/>
			</g>
			<g>
				<linearGradient id="SVGID_4_" gradientUnits="userSpaceOnUse" x1="130" y1="187" x2="130" y2="125">
					<stop  offset="0" style="stop-color:#B3B3B3"/>
					<stop  offset="1" style="stop-color:#4D4D4D"/>
				</linearGradient>
				<path style="fill:url(#SVGID_4_);" d="M162,177c0,5.5-4.5,10-10,10h-44c-5.5,0-10-4.5-10-10v-42c0-5.5,4.5-10,10-10h44
					c5.5,0,10,4.5,10,10V177z"/>
			</g>
		</g>
		<g id="duibutton-checkbox-background">
			<g>
				<path style="fill:#808080;" d="M88,178c0,5.5-4.5,10-10,10H34c-5.5,0-10-4.5-10-10v-42c0-5.5,4.5-10,10-10h44
					c5.5,0,10,4.5,10,10V178z"/>
			</g>
			<g>
				<path style="fill:#FFFFFF;" d="M88,176c0,5.5-4.5,10-10,10H34c-5.5,0-10-4.5-10-10v-42c0-5.5,4.5-10,10-10h44
					c5.5,0,10,4.5,10,10V176z"/>
			</g>
			<g>
				<linearGradient id="SVGID_5_" gradientUnits="userSpaceOnUse" x1="56" y1="187" x2="56" y2="125">
					<stop  offset="0" style="stop-color:#D2D3D3"/>
					<stop  offset="1" style="stop-color:#F2F2F2"/>
				</linearGradient>
				<path style="fill:url(#SVGID_5_);" d="M88,177c0,5.5-4.5,10-10,10H34c-5.5,0-10-4.5-10-10v-42c0-5.5,4.5-10,10-10h44
					c5.5,0,10,4.5,10,10V177z"/>
			</g>
		</g>
		<g id="duibutton-background-selected-pressed">
			<g>
				<path style="fill:#FFFFFF;" d="M310,104c0,5.5-4.5,10-10,10h-44c-5.5,0-10-4.5-10-10V62c0-5.5,4.5-10,10-10h44
					c5.5,0,10,4.5,10,10V104z"/>
			</g>
			<g>
				<path style="fill:#333333;" d="M310,102c0,5.5-4.5,10-10,10h-44c-5.5,0-10-4.5-10-10V60c0-5.5,4.5-10,10-10h44
					c5.5,0,10,4.5,10,10V102z"/>
			</g>
			<g>
				<linearGradient id="SVGID_6_" gradientUnits="userSpaceOnUse" x1="278" y1="113" x2="278" y2="51">
					<stop  offset="0" style="stop-color:#2AAAE2"/>
					<stop  offset="1" style="stop-color:#1F749A"/>
				</linearGradient>
				<path style="fill:url(#SVGID_6_);" d="M310,103c0,5.5-4.5,10-10,10h-44c-5.5,0-10-4.5-10-10V61c0-5.5,4.5-10,10-10h44
					c5.5,0,10,4.5,10,10V103z"/>
			</g>
		</g>
		<g id="duibutton-background-selected">
			<g>
				<path style="fill:#808080;" d="M236,104c0,5.5-4.5,10-10,10h-44c-5.5,0-10-4.5-10-10V62c0-5.5,4.5-10,10-10h44
					c5.5,0,10,4.5,10,10V104z"/>
			</g>
			<g>
				<path style="fill:#FFFFFF;" d="M236,102c0,5.5-4.5,10-10,10h-44c-5.5,0-10-4.5-10-10V60c0-5.5,4.5-10,10-10h44
					c5.5,0,10,4.5,10,10V102z"/>
			</g>
			<g>
				<linearGradient id="SVGID_7_" gradientUnits="userSpaceOnUse" x1="204" y1="113" x2="204" y2="51">
					<stop  offset="0" style="stop-color:#2AAAE2"/>
					<stop  offset="1" style="stop-color:#83D5F7"/>
				</linearGradient>
				<path style="fill:url(#SVGID_7_);" d="M236,103c0,5.5-4.5,10-10,10h-44c-5.5,0-10-4.5-10-10V61c0-5.5,4.5-10,10-10h44
					c5.5,0,10,4.5,10,10V103z"/>
			</g>
		</g>
		<g id="duibutton-background-pressed">
			<g>
				<path style="fill:#FFFFFF;" d="M162,104c0,5.5-4.5,10-10,10h-44c-5.5,0-10-4.5-10-10V62c0-5.5,4.5-10,10-10h44
					c5.5,0,10,4.5,10,10V104z"/>
			</g>
			<g>
				<path style="fill:#333333;" d="M162,102c0,5.5-4.5,10-10,10h-44c-5.5,0-10-4.5-10-10V60c0-5.5,4.5-10,10-10h44
					c5.5,0,10,4.5,10,10V102z"/>
			</g>
			<g>
				<linearGradient id="SVGID_8_" gradientUnits="userSpaceOnUse" x1="130" y1="113" x2="130" y2="51">
					<stop  offset="0" style="stop-color:#B3B3B3"/>
					<stop  offset="1" style="stop-color:#4D4D4D"/>
				</linearGradient>
				<path style="fill:url(#SVGID_8_);" d="M162,103c0,5.5-4.5,10-10,10h-44c-5.5,0-10-4.5-10-10V61c0-5.5,4.5-10,10-10h44
					c5.5,0,10,4.5,10,10V103z"/>
			</g>
		</g>
		<g id="duibutton-background">
			<g>
				<path style="fill:#808080;" d="M88,104c0,5.5-4.5,10-10,10H34c-5.5,0-10-4.5-10-10V62c0-5.5,4.5-10,10-10h44c5.5,0,10,4.5,10,10
					V104z"/>
			</g>
			<g>
				<path style="fill:#FFFFFF;" d="M88,102c0,5.5-4.5,10-10,10H34c-5.5,0-10-4.5-10-10V60c0-5.5,4.5-10,10-10h44c5.5,0,10,4.5,10,10
					V102z"/>
			</g>
			<g>
				<linearGradient id="SVGID_9_" gradientUnits="userSpaceOnUse" x1="56" y1="113" x2="56" y2="51">
					<stop  offset="0" style="stop-color:#D2D3D3"/>
					<stop  offset="1" style="stop-color:#F2F2F2"/>
				</linearGradient>
				<path style="fill:url(#SVGID_9_);" d="M88,103c0,5.5-4.5,10-10,10H34c-5.5,0-10-4.5-10-10V61c0-5.5,4.5-10,10-10h44
					c5.5,0,10,4.5,10,10V103z"/>
			</g>
		</g>
	</g>
</g>
</svg>
