<?xml version="1.0" encoding="iso-8859-1"?>
<!-- Generator: Adobe Illustrator 14.0.0, SVG Export Plug-In . SVG Version: 6.00 Build 43363)  -->
<!DOCTYPE svg PUBLIC "-//W3C//DTD SVG 1.1//EN" "http://www.w3.org/Graphics/SVG/1.1/DTD/svg11.dtd">
<svg version="1.1" xmlns="http://www.w3.org/2000/svg" xmlns:xlink="http://www.w3.org/1999/xlink" x="0px" y="0px" width="278px"
	 height="403px" viewBox="0 0 278 403" style="enable-background:new 0 0 278 403;" xml:space="preserve">
<g id="duislider-layer">
</g>
<g id="dui-theme-rd">
	<g id="duislider">
		<g id="duisliderThemeTemplateHelper">
			<g>
				<path style="fill:#B3B3B3;" d="M16,402c-8.271,0-15-6.729-15-15V16C1,7.729,7.729,1,16,1h246c8.271,0,15,6.729,15,15v371
					c0,8.271-6.729,15-15,15H16z"/>
				<g>
					<path d="M262,2c7.72,0,14,6.28,14,14v371c0,7.72-6.28,14-14,14H16c-7.72,0-14-6.28-14-14V16C2,8.28,8.28,2,16,2H262 M262,0H16
						C7.2,0,0,7.2,0,16v371c0,8.8,7.2,16,16,16h246c8.8,0,16-7.2,16-16V16C278,7.2,270.8,0,262,0L262,0z"/>
				</g>
			</g>
			<path style="fill:#010101;" d="M118.146,34.497c-1.025,0-2.049-0.14-3.066-0.421v-1.589c1.121,0.321,2.123,0.481,3.004,0.481
				c0.943,0,1.689-0.211,2.24-0.635s0.826-1.033,0.826-1.826c0-0.506-0.107-0.934-0.324-1.286c-0.215-0.353-0.494-0.651-0.834-0.897
				c-0.344-0.246-0.838-0.557-1.488-0.934c-0.771-0.443-1.383-0.838-1.83-1.184s-0.822-0.786-1.123-1.323
				c-0.301-0.536-0.451-1.188-0.451-1.953c0-1.299,0.434-2.298,1.297-2.999c0.865-0.701,2.043-1.051,3.533-1.051
				c0.977,0,1.893,0.102,2.748,0.307v1.539c-0.957-0.213-1.824-0.318-2.604-0.318c-0.814,0-1.477,0.197-1.984,0.59
				c-0.51,0.393-0.764,0.938-0.764,1.635c0,0.451,0.135,0.883,0.404,1.293s1.002,0.963,2.199,1.66
				c0.779,0.451,1.393,0.848,1.84,1.189c0.449,0.342,0.828,0.779,1.139,1.312s0.467,1.173,0.467,1.918
				C123.375,33,121.633,34.497,118.146,34.497z"/>
			<path style="fill:#010101;" d="M125.486,34.333V18.102h2.186v16.231H125.486z"/>
			<path style="fill:#010101;" d="M133.156,34.333h-2.184v-10.5h-1.363v-1.425h3.547V34.333z M132.07,18.225
				c0.334,0,0.623,0.123,0.867,0.369c0.242,0.246,0.363,0.536,0.363,0.871c0,0.342-0.119,0.635-0.359,0.877
				c-0.238,0.242-0.529,0.363-0.871,0.363c-0.35,0-0.643-0.121-0.883-0.363c-0.238-0.242-0.357-0.535-0.357-0.877
				c0-0.349,0.119-0.643,0.357-0.882C131.428,18.344,131.721,18.225,132.07,18.225z"/>
			<path style="fill:#010101;" d="M143.719,34.333l-0.461-1.466c-0.631,1.086-1.707,1.63-3.23,1.63c-1.416,0-2.48-0.501-3.195-1.502
				c-0.713-1.001-1.07-2.565-1.07-4.691c0-1.784,0.381-3.241,1.143-4.373s1.844-1.697,3.246-1.697c1.148,0,2.01,0.345,2.584,1.036
				v-5.168h2.184v16.231H143.719z M142.807,28.898l-0.012-0.677c0-1.777-0.199-2.978-0.6-3.599c-0.4-0.623-0.969-0.934-1.707-0.934
				c-0.82,0-1.436,0.379-1.846,1.139c-0.41,0.758-0.615,1.896-0.615,3.414c0,1.593,0.197,2.785,0.596,3.578
				c0.395,0.793,0.99,1.189,1.783,1.189c0.771,0,1.365-0.287,1.779-0.861S142.807,30.491,142.807,28.898z"/>
			<path style="fill:#010101;" d="M155.717,32.508v1.486c-1.074,0.336-2.186,0.503-3.334,0.503c-1.668,0-2.916-0.503-3.742-1.507
				c-0.828-1.006-1.24-2.554-1.24-4.646c0-1.839,0.4-3.317,1.199-4.435c0.801-1.118,1.941-1.677,3.426-1.677
				c1.201,0,2.105,0.319,2.711,0.959s0.992,1.422,1.164,2.348c0.17,0.927,0.256,2.028,0.256,3.308h-6.439
				c0,1.387,0.246,2.428,0.738,3.122s1.23,1.04,2.215,1.04C153.504,33.01,154.52,32.843,155.717,32.508z M149.717,27.504h4.297
				c0-1.442-0.172-2.461-0.512-3.056c-0.344-0.595-0.836-0.892-1.477-0.892c-0.719,0-1.268,0.307-1.646,0.922
				S149.779,26.103,149.717,27.504z"/>
			<path style="fill:#010101;" d="M159.807,22.408l0.502,1.988c0.664-1.4,1.818-2.102,3.467-2.102c0.219,0,0.379,0.01,0.482,0.031
				v1.988c-0.172-0.014-0.428-0.02-0.77-0.02c-0.938,0-1.623,0.224-2.061,0.671c-0.438,0.448-0.656,1.147-0.656,2.097v7.271h-2.186
				V22.408H159.807z"/>
		</g>
		<g id="duislider-handle-value-background">
			<g>
				<path style="fill:#FFFFFF;" d="M154,181c0,5.5-4.5,10-10,10h-28c-5.5,0-10-4.5-10-10v-26c0-5.5,4.5-10,10-10h28
					c5.5,0,10,4.5,10,10V181z"/>
			</g>
			<g>
				<path style="fill:#333333;" d="M154,179c0,5.5-4.5,10-10,10h-28c-5.5,0-10-4.5-10-10v-26c0-5.5,4.5-10,10-10h28
					c5.5,0,10,4.5,10,10V179z"/>
			</g>
			<g>
				<linearGradient id="SVGID_1_" gradientUnits="userSpaceOnUse" x1="129.9995" y1="144" x2="129.9995" y2="190">
					<stop  offset="0" style="stop-color:#F2F2F2"/>
					<stop  offset="1" style="stop-color:#D2D3D3"/>
				</linearGradient>
				<path style="fill:url(#SVGID_1_);" d="M154,180c0,5.5-4.5,10-10,10h-28c-5.5,0-10-4.5-10-10v-26c0-5.5,4.5-10,10-10h28
					c5.5,0,10,4.5,10,10V180z"/>
			</g>
		</g>
		<g id="duislider-vertical-background-elapsed">
			<rect x="42" y="355.449" style="opacity:0;fill:#010101;" width="16" height="30"/>
			<g id="Normal_68_">
				
					<linearGradient id="SVGID_2_" gradientUnits="userSpaceOnUse" x1="2247.5508" y1="-3796.001" x2="2247.5508" y2="-3808.001" gradientTransform="matrix(-4.371139e-08 -1 1 -4.371139e-08 3852.0005 2617.9995)">
					<stop  offset="0" style="stop-color:#74CCD4"/>
					<stop  offset="0.1301" style="stop-color:#66C2D6"/>
					<stop  offset="0.4156" style="stop-color:#4BB5DC"/>
					<stop  offset="0.7046" style="stop-color:#35ADDF"/>
					<stop  offset="1" style="stop-color:#2AAAE2"/>
				</linearGradient>
				<path style="fill:url(#SVGID_2_);" d="M51,356.449c2.75,0,5,2.25,5,5v18c0,2.75-2.25,5-5,5h-2c-2.75,0-5-2.25-5-5v-18
					c0-2.75,2.25-5,5-5H51z"/>
			</g>
		</g>
		<g id="duislider-vertical-background-received">
			<rect x="42" y="323.449" style="opacity:0;fill:#010101;" width="16" height="30"/>
			<g id="Normal_67_">
				<path style="fill:#9DC53F;" d="M49,352.449c-2.75,0-5-2.25-5-5v-18c0-2.75,2.25-5,5-5h2c2.75,0,5,2.25,5,5v18c0,2.75-2.25,5-5,5
					H49z"/>
			</g>
			<g id="Normal_66_" style="opacity:0.3;">
				
					<linearGradient id="SVGID_3_" gradientUnits="userSpaceOnUse" x1="4223.4492" y1="2542.999" x2="4223.4492" y2="2530.999" gradientTransform="matrix(-4.371139e-08 1 -1 -4.371139e-08 2587 -3885.0005)">
					<stop  offset="0.25" style="stop-color:#FFFFFF;stop-opacity:0"/>
					<stop  offset="0.9328" style="stop-color:#FFFFFF;stop-opacity:0.9104"/>
					<stop  offset="1" style="stop-color:#FFFFFF"/>
				</linearGradient>
				<path style="fill:url(#SVGID_3_);" d="M49,352.449c-2.75,0-5-2.25-5-5v-18c0-2.75,2.25-5,5-5h2c2.75,0,5,2.25,5,5v18
					c0,2.75-2.25,5-5,5H49z"/>
			</g>
		</g>
		<g id="duislider-vertical-background">
			<g id="Normal_65_" style="opacity:0.2;">
				<path style="fill:#010101;" d="M52,291c3.3,0,6,2.7,6,6v18c0,3.3-2.7,6-6,6h-4c-3.3,0-6-2.7-6-6v-18c0-3.3,2.7-6,6-6H52z"/>
			</g>
			<g id="Normal_64_">
				<path style="fill:#CCCCCC;" d="M52,292c2.75,0,5,2.25,5,5v18c0,2.75-2.25,5-5,5h-2c-2.75,0-5-2.25-5-5v-18c0-2.75,2.25-5,5-5H52
					z"/>
			</g>
			<g id="Normal_63_">
				<path style="fill:#010101;" d="M50,292c2.75,0,5,2.25,5,5v18c0,2.75-2.25,5-5,5h-2c-2.75,0-5-2.25-5-5v-18c0-2.75,2.25-5,5-5H50
					z"/>
			</g>
			<g id="Normal_28_">
				
					<linearGradient id="SVGID_4_" gradientUnits="userSpaceOnUse" x1="2248" y1="-3860.001" x2="2248" y2="-3872.001" gradientTransform="matrix(-4.371139e-08 -1 1 -4.371139e-08 3916.0005 2553.9995)">
					<stop  offset="0" style="stop-color:#1A1A1A"/>
					<stop  offset="1" style="stop-color:#000000"/>
				</linearGradient>
				<path style="fill:url(#SVGID_4_);" d="M51,292c2.75,0,5,2.25,5,5v18c0,2.75-2.25,5-5,5h-2c-2.75,0-5-2.25-5-5v-18
					c0-2.75,2.25-5,5-5H51z"/>
			</g>
		</g>
		<g id="duislider-vertical-handle-pressed">
			<rect x="14" y="212.449" style="opacity:0;fill:#010101;" width="72" height="72"/>
			<g id="Normal_27_">
				
					<radialGradient id="SVGID_5_" cx="128.7266" cy="168.5557" r="19.001" gradientTransform="matrix(1.1052 0 0 1.1052 -92.2676 62.1611)" gradientUnits="userSpaceOnUse">
					<stop  offset="0" style="stop-color:#000000"/>
					<stop  offset="1" style="stop-color:#000000;stop-opacity:0.1"/>
				</radialGradient>
				<path style="fill:url(#SVGID_5_);" d="M71,249.449c0,11-9,20-20,20h-2c-11,0-20-9-20-20v-2c0-11,9-20,20-20h2c11,0,20,9,20,20
					V249.449z"/>
			</g>
			<g id="Normal_26_">
				<linearGradient id="SVGID_6_" gradientUnits="userSpaceOnUse" x1="50" y1="265.9492" x2="50" y2="230.9492">
					<stop  offset="0" style="stop-color:#B3B3B3"/>
					<stop  offset="1" style="stop-color:#4D4D4D"/>
				</linearGradient>
				<path style="fill:url(#SVGID_6_);" d="M50,265.949c-9.649,0-17.5-7.851-17.5-17.5s7.851-17.5,17.5-17.5s17.5,7.851,17.5,17.5
					S59.649,265.949,50,265.949L50,265.949z"/>
				<g>
					<path style="fill:#999999;" d="M50,231.449c9.374,0,17,7.626,17,17s-7.626,17-17,17s-17-7.626-17-17S40.626,231.449,50,231.449
						 M50,230.449c-9.9,0-18,8.1-18,18s8.1,18,18,18s18-8.1,18-18S59.9,230.449,50,230.449L50,230.449z"/>
				</g>
			</g>
		</g>
		<g id="duislider-vertical-handle">
			<rect x="14" y="132.449" style="opacity:0;fill:#010101;" width="72" height="72"/>
			<g id="Normal_25_">
				
					<radialGradient id="SVGID_7_" cx="125.0166" cy="96.1709" r="19.001" gradientTransform="matrix(1.1052 0 0 1.1052 -88.168 62.1611)" gradientUnits="userSpaceOnUse">
					<stop  offset="0" style="stop-color:#000000"/>
					<stop  offset="1" style="stop-color:#000000;stop-opacity:0.1"/>
				</radialGradient>
				<path style="fill:url(#SVGID_7_);" d="M71,169.449c0,11-9,20-20,20h-2c-11,0-20-9-20-20v-2c0-11,9-20,20-20h2c11,0,20,9,20,20
					V169.449z"/>
			</g>
			<g id="Normal_24_">
				<linearGradient id="SVGID_8_" gradientUnits="userSpaceOnUse" x1="50" y1="185.9492" x2="50" y2="150.9492">
					<stop  offset="0" style="stop-color:#E6E6E6"/>
					<stop  offset="0.5042" style="stop-color:#F2F2F2"/>
					<stop  offset="1" style="stop-color:#F7F7F7"/>
				</linearGradient>
				<path style="fill:url(#SVGID_8_);" d="M50,185.949c-9.649,0-17.5-7.851-17.5-17.5s7.851-17.5,17.5-17.5s17.5,7.851,17.5,17.5
					S59.649,185.949,50,185.949L50,185.949z"/>
				<path style="fill:#FFFFFF;" d="M50,151.449c9.374,0,17,7.626,17,17s-7.626,17-17,17s-17-7.626-17-17S40.626,151.449,50,151.449
					 M50,150.449c-9.9,0-18,8.1-18,18s8.1,18,18,18s18-8.1,18-18S59.9,150.449,50,150.449L50,150.449z"/>
			</g>
		</g>
		<g id="duislider-background-elapsed">
			<rect x="218" y="78.449" style="opacity:0;fill:#010101;" width="30" height="16"/>
			<g id="Normal_23_">
				<linearGradient id="SVGID_9_" gradientUnits="userSpaceOnUse" x1="233" y1="92.4492" x2="233" y2="80.4492">
					<stop  offset="0" style="stop-color:#74CCD4"/>
					<stop  offset="0.1301" style="stop-color:#66C2D6"/>
					<stop  offset="0.4156" style="stop-color:#4BB5DC"/>
					<stop  offset="0.7046" style="stop-color:#35ADDF"/>
					<stop  offset="1" style="stop-color:#2AAAE2"/>
				</linearGradient>
				<path style="fill:url(#SVGID_9_);" d="M247,87.449c0,2.75-2.25,5-5,5h-18c-2.75,0-5-2.25-5-5v-2c0-2.75,2.25-5,5-5h18
					c2.75,0,5,2.25,5,5V87.449z"/>
			</g>
		</g>
		<g id="duislider-background-received">
			<rect x="218" y="98.449" style="opacity:0;fill:#010101;" width="30" height="16"/>
			<g id="Normal_16_">
				<path style="fill:#9DC53F;" d="M219,105.449c0-2.75,2.25-5,5-5h18c2.75,0,5,2.25,5,5v2c0,2.75-2.25,5-5,5h-18
					c-2.75,0-5-2.25-5-5V105.449z"/>
			</g>
			<g id="Normal_17_" style="opacity:0.3;">
				
					<linearGradient id="SVGID_10_" gradientUnits="userSpaceOnUse" x1="6603" y1="-1861.5508" x2="6603" y2="-1873.5508" gradientTransform="matrix(-1 0 0 -1 6836 -1761.1016)">
					<stop  offset="0.25" style="stop-color:#FFFFFF;stop-opacity:0"/>
					<stop  offset="0.9328" style="stop-color:#FFFFFF;stop-opacity:0.9104"/>
					<stop  offset="1" style="stop-color:#FFFFFF"/>
				</linearGradient>
				<path style="fill:url(#SVGID_10_);" d="M219,105.449c0-2.75,2.25-5,5-5h18c2.75,0,5,2.25,5,5v2c0,2.75-2.25,5-5,5h-18
					c-2.75,0-5-2.25-5-5V105.449z"/>
			</g>
		</g>
		<g id="duislider-background">
			<g id="Normal_35_" style="opacity:0.2;">
				<path style="fill:#010101;" d="M208,88.449c0,3.3-2.7,6-6,6h-18c-3.3,0-6-2.7-6-6v-4c0-3.3,2.7-6,6-6h18c3.3,0,6,2.7,6,6V88.449
					z"/>
			</g>
			<g id="Normal_34_">
				<path style="fill:#CCCCCC;" d="M207,88.449c0,2.75-2.25,5-5,5h-18c-2.75,0-5-2.25-5-5v-2c0-2.75,2.25-5,5-5h18
					c2.75,0,5,2.25,5,5V88.449z"/>
			</g>
			<g id="Normal_33_">
				<path style="fill:#010101;" d="M207,86.449c0,2.75-2.25,5-5,5h-18c-2.75,0-5-2.25-5-5v-2c0-2.75,2.25-5,5-5h18
					c2.75,0,5,2.25,5,5V86.449z"/>
			</g>
			<g id="Normal_32_">
				<linearGradient id="SVGID_11_" gradientUnits="userSpaceOnUse" x1="193" y1="92.4492" x2="193" y2="80.4492">
					<stop  offset="0" style="stop-color:#1A1A1A"/>
					<stop  offset="1" style="stop-color:#000000"/>
				</linearGradient>
				<path style="fill:url(#SVGID_11_);" d="M207,87.449c0,2.75-2.25,5-5,5h-18c-2.75,0-5-2.25-5-5v-2c0-2.75,2.25-5,5-5h18
					c2.75,0,5,2.25,5,5V87.449z"/>
			</g>
		</g>
		<g id="duislider-handle-pressed">
			<rect x="96" y="48.449" style="opacity:0;fill:#010101;" width="72" height="72"/>
			<g id="Normal_15_">
				
					<radialGradient id="SVGID_12_" cx="202.9209" cy="20.1665" r="19.0012" gradientTransform="matrix(1.1052 0 0 1.1052 -92.2676 62.1611)" gradientUnits="userSpaceOnUse">
					<stop  offset="0" style="stop-color:#000000"/>
					<stop  offset="1" style="stop-color:#000000;stop-opacity:0.1"/>
				</radialGradient>
				<path style="fill:url(#SVGID_12_);" d="M153,85.449c0,11-9,20-20,20h-2c-11,0-20-9-20-20v-2c0-11,9-20,20-20h2c11,0,20,9,20,20
					V85.449z"/>
			</g>
			<g id="Normal_2_">
				<linearGradient id="SVGID_13_" gradientUnits="userSpaceOnUse" x1="132.0005" y1="101.9492" x2="132.0005" y2="66.9492">
					<stop  offset="0" style="stop-color:#B3B3B3"/>
					<stop  offset="1" style="stop-color:#4D4D4D"/>
				</linearGradient>
				<path style="fill:url(#SVGID_13_);" d="M132,101.949c-9.649,0-17.5-7.851-17.5-17.5s7.851-17.5,17.5-17.5s17.5,7.851,17.5,17.5
					S141.649,101.949,132,101.949L132,101.949z"/>
				<g>
					<path style="fill:#999999;" d="M132,67.449c9.374,0,17,7.626,17,17s-7.626,17-17,17s-17-7.626-17-17S122.626,67.449,132,67.449
						 M132,66.449c-9.9,0-18,8.1-18,18s8.1,18,18,18c9.9,0,18-8.1,18-18S141.9,66.449,132,66.449L132,66.449z"/>
				</g>
			</g>
		</g>
		<g id="duislider-handle">
			<rect x="14" y="48.449" style="opacity:0;fill:#010101;" width="72" height="72"/>
			<g id="Normal_30_">
				
					<radialGradient id="SVGID_14_" cx="125.0166" cy="20.1665" r="19.0012" gradientTransform="matrix(1.1052 0 0 1.1052 -88.168 62.1611)" gradientUnits="userSpaceOnUse">
					<stop  offset="0" style="stop-color:#000000"/>
					<stop  offset="1" style="stop-color:#000000;stop-opacity:0.1"/>
				</radialGradient>
				<path style="fill:url(#SVGID_14_);" d="M71,85.449c0,11-9,20-20,20h-2c-11,0-20-9-20-20v-2c0-11,9-20,20-20h2c11,0,20,9,20,20
					V85.449z"/>
			</g>
			<g id="Normal_29_">
				<linearGradient id="SVGID_15_" gradientUnits="userSpaceOnUse" x1="50" y1="101.9492" x2="50" y2="66.9492">
					<stop  offset="0" style="stop-color:#E6E6E6"/>
					<stop  offset="0.5042" style="stop-color:#F2F2F2"/>
					<stop  offset="1" style="stop-color:#F7F7F7"/>
				</linearGradient>
				<path style="fill:url(#SVGID_15_);" d="M50,101.949c-9.649,0-17.5-7.851-17.5-17.5s7.851-17.5,17.5-17.5s17.5,7.851,17.5,17.5
					S59.649,101.949,50,101.949L50,101.949z"/>
				<path style="fill:#FFFFFF;" d="M50,67.449c9.374,0,17,7.626,17,17s-7.626,17-17,17s-17-7.626-17-17S40.626,67.449,50,67.449
					 M50,66.449c-9.9,0-18,8.1-18,18s8.1,18,18,18s18-8.1,18-18S59.9,66.449,50,66.449L50,66.449z"/>
			</g>
		</g>
	</g>
</g>
</svg>
