<?xml version="1.0" encoding="UTF-8" standalone="no"?>
<!-- Created with Inkscape (http://www.inkscape.org/) -->

<svg
   xmlns:dc="http://purl.org/dc/elements/1.1/"
   xmlns:cc="http://creativecommons.org/ns#"
   xmlns:rdf="http://www.w3.org/1999/02/22-rdf-syntax-ns#"
   xmlns:svg="http://www.w3.org/2000/svg"
   xmlns="http://www.w3.org/2000/svg"
   xmlns:xlink="http://www.w3.org/1999/xlink"
   xmlns:sodipodi="http://sodipodi.sourceforge.net/DTD/sodipodi-0.dtd"
   xmlns:inkscape="http://www.inkscape.org/namespaces/inkscape"
   width="42"
   height="42"
   id="svg3697"
   version="1.1"
   inkscape:version="0.47 r22583"
   sodipodi:docname="New document 2">
  <defs
     id="defs3699">
    <inkscape:perspective
       sodipodi:type="inkscape:persp3d"
       inkscape:vp_x="0 : 526.18109 : 1"
       inkscape:vp_y="0 : 1000 : 0"
       inkscape:vp_z="744.09448 : 526.18109 : 1"
       inkscape:persp3d-origin="372.04724 : 350.78739 : 1"
       id="perspective3705" />
    <inkscape:perspective
       id="perspective3735"
       inkscape:persp3d-origin="0.5 : 0.33333333 : 1"
       inkscape:vp_z="1 : 0.5 : 1"
       inkscape:vp_y="0 : 1000 : 0"
       inkscape:vp_x="0 : 0.5 : 1"
       sodipodi:type="inkscape:persp3d" />
    <linearGradient
       gradientTransform="translate(110,419.34175)"
       inkscape:collect="always"
       xlink:href="#SVGID_15_"
       id="linearGradient3684"
       gradientUnits="userSpaceOnUse"
       x1="50"
       y1="101.9492"
       x2="50"
       y2="66.949203" />
    <linearGradient
       id="SVGID_15_"
       gradientUnits="userSpaceOnUse"
       x1="50"
       y1="101.9492"
       x2="50"
       y2="66.949203">
      <stop
         offset="0"
         style="stop-color:#E6E6E6"
         id="stop230" />
      <stop
         offset="0.5042"
         style="stop-color:#F2F2F2"
         id="stop232" />
      <stop
         offset="1"
         style="stop-color:#F7F7F7"
         id="stop234" />
    </linearGradient>
    <radialGradient
       inkscape:collect="always"
       xlink:href="#SVGID_14_"
       id="radialGradient3692"
       gradientUnits="userSpaceOnUse"
       gradientTransform="matrix(1.1052,0,0,1.1052,-88.168,62.1611)"
       cx="125.0166"
       cy="20.1665"
       r="19.0012" />
    <radialGradient
       id="SVGID_14_"
       cx="125.0166"
       cy="20.1665"
       r="19.0012"
       gradientTransform="matrix(1.1052,0,0,1.1052,-88.168,62.1611)"
       gradientUnits="userSpaceOnUse">
      <stop
         offset="0"
         style="stop-color:#000000"
         id="stop222" />
      <stop
         offset="1"
         style="stop-color:#000000;stop-opacity:0.1"
         id="stop224" />
    </radialGradient>
    <radialGradient
       r="19.0012"
       cy="20.1665"
       cx="125.0166"
       gradientTransform="matrix(1.1052,0,0,1.1052,21.832,481.50285)"
       gradientUnits="userSpaceOnUse"
       id="radialGradient3751"
       xlink:href="#SVGID_14_"
       inkscape:collect="always" />
  </defs>
  <sodipodi:namedview
     id="base"
     pagecolor="#ffffff"
     bordercolor="#666666"
     borderopacity="1.0"
     inkscape:pageopacity="0.0"
     inkscape:pageshadow="2"
     inkscape:zoom="2.8"
     inkscape:cx="55.216682"
     inkscape:cy="16.436966"
     inkscape:document-units="px"
     inkscape:current-layer="layer1"
     showgrid="false"
     inkscape:window-width="552"
     inkscape:window-height="490"
     inkscape:window-x="2443"
     inkscape:window-y="380"
     inkscape:window-maximized="0" />
  <metadata
     id="metadata3702">
    <rdf:RDF>
      <cc:Work
         rdf:about="">
        <dc:format>image/svg+xml</dc:format>
        <dc:type
           rdf:resource="http://purl.org/dc/dcmitype/StillImage" />
        <dc:title></dc:title>
      </cc:Work>
    </rdf:RDF>
  </metadata>
  <g
     inkscape:label="Layer 1"
     inkscape:groupmode="layer"
     id="layer1"
     transform="translate(-139,-482.79075)">
    <path
       style="fill:url(#radialGradient3751)"
       d="m 181,504.79075 c 0,11 -9,20 -20,20 h -2 c -11,0 -20,-9 -20,-20 v -2 c 0,-11 9,-20 20,-20 h 2 c 11,0 20,9 20,20 v 2 z"
       id="path226" />
    <path
       style="fill:url(#linearGradient3684)"
       d="m 160,521.29075 c -9.649,0 -17.5,-7.851 -17.5,-17.5 0,-9.649 7.851,-17.5 17.5,-17.5 9.649,0 17.5,7.851 17.5,17.5 0,9.649 -7.851,17.5 -17.5,17.5 l 0,0 z"
       id="path236" />
    <path
       style="fill:#ffffff"
       d="m 160,486.79075 c 9.374,0 17,7.626 17,17 0,9.374 -7.626,17 -17,17 -9.374,0 -17,-7.626 -17,-17 0,-9.374 7.626,-17 17,-17 m 0,-1 c -9.9,0 -18,8.1 -18,18 0,9.9 8.1,18 18,18 9.9,0 18,-8.1 18,-18 0,-9.9 -8.1,-18 -18,-18 l 0,0 z"
       id="path238" />
  </g>
</svg>
