<?xml version="1.0" encoding="UTF-8"?>
<!DOCTYPE svg PUBLIC "-//W3C//DTD SVG 1.1 Tiny//EN" "http://www.w3.org/Graphics/SVG/1.1/DTD/svg11-tiny.dtd">
<svg baseProfile="tiny" height="30px" version="1.1" viewBox="0.019 0 30 30" width="30px" x="0px" xmlns="http://www.w3.org/2000/svg" xmlns:xlink="http://www.w3.org/1999/xlink" y="0px">
<path d="M30,27c0,1.656-1.343,3-3,3H3c-1.657,0-3-1.344-3-3V3  c0-1.656,1.343-3,3-3h24c1.657,0,3,1.344,3,3V27z" fill="#FFFFFF" fill-opacity="0.6" stroke-opacity="0.6"/>
<path d="M3,29c-1.103,0-2-0.896-2-2V3c0-1.104,0.897-2,2-2h24c1.103,0,2,0.896,2,2v24c0,1.104-0.897,2-2,2H3z  " fill="url(#SVGID_1_)"/>
<path d="M22.387,19.431c0.818,0.819,0.816,2.143,0,2.957c-0.814,0.817-2.139,0.817-2.955,0L15,17.955l-4.433,4.433  c-0.816,0.817-2.138,0.817-2.955,0c-0.815-0.818-0.815-2.138,0-2.957L12.045,15l-4.433-4.433c-0.815-0.817-0.815-2.141,0-2.955  c0.817-0.815,2.139-0.817,2.955,0L15,12.045l4.432-4.433c0.816-0.817,2.138-0.817,2.955,0c0.818,0.818,0.818,2.138,0,2.955  L17.955,15L22.387,19.431z" fill="#FFFFFF"/>
<defs>
<linearGradient gradientUnits="userSpaceOnUse" id="SVGID_1_" x1="15.0005" x2="15.0005" y1="28.749" y2="1.0277">
<stop offset="0" style="stop-color:#86C7FF"/>
<stop offset="0.7" style="stop-color:#C1C1C1"/>
<stop offset="1" style="stop-color:#7F8F86"/>
</linearGradient>
</defs>
</svg>
