<?xml version="1.0" encoding="UTF-8"?>
<!DOCTYPE svg PUBLIC "-//W3C//DTD SVG 1.1 Tiny//EN" "http://www.w3.org/Graphics/SVG/1.1/DTD/svg11-tiny.dtd">
<svg baseProfile="tiny" height="30px" version="1.1" viewBox="0.019 0 30 30" width="30px" x="0px" xmlns="http://www.w3.org/2000/svg" xmlns:xlink="http://www.w3.org/1999/xlink" y="0px">
<path d="M30,27c0,1.656-1.343,3-3,3H3c-1.657,0-3-1.344-3-3V3  c0-1.656,1.343-3,3-3h24c1.657,0,3,1.344,3,3V27z" fill="#FFFFFF" fill-opacity="0.6" stroke-opacity="0.6"/>
<path d="M3,29c-1.103,0-2-0.896-2-2V3c0-1.104,0.897-2,2-2h24  c1.103,0,2,0.896,2,2v24c0,1.104-0.897,2-2,2H3z" fill="url(#SVGID_1_)"/>
<path d="M22.387,19.431c0.817,0.819,0.815,2.142,0,2.956c-0.814,0.817-2.139,0.817-2.955,0L15,17.955l-4.433,4.432  c-0.815,0.817-2.137,0.817-2.954,0c-0.816-0.817-0.816-2.137,0-2.956L12.045,15l-4.432-4.432c-0.816-0.818-0.816-2.141,0-2.955  c0.817-0.816,2.139-0.817,2.954,0L15,12.045l4.432-4.432c0.816-0.817,2.137-0.817,2.955,0c0.817,0.817,0.817,2.137,0,2.955  L17.954,15L22.387,19.431z" fill="#FFFFFF"/>
<defs>
<linearGradient gradientUnits="userSpaceOnUse" id="SVGID_1_" x1="14.9995" x2="14.9995" y1="1" y2="29.0005">
<stop offset="0" style="stop-color:#CCCCCC"/>
<stop offset="1" style="stop-color:#999999"/>
</linearGradient>
</defs>
</svg>
