<?xml version="1.0" encoding="utf-8"?>
<!-- Generator: Adobe Illustrator 14.0.0, SVG Export Plug-In . SVG Version: 6.00 Build 43363)  -->
<!DOCTYPE svg PUBLIC "-//W3C//DTD SVG 1.1//EN" "http://www.w3.org/Graphics/SVG/1.1/DTD/svg11.dtd">
<svg version="1.1" id="Layer_1" xmlns="http://www.w3.org/2000/svg" xmlns:xlink="http://www.w3.org/1999/xlink" x="0px" y="0px"
 width="30px" height="30px" viewBox="0 0 30 30" enable-background="new 0 0 30 30" xml:space="preserve">
<rect x="-1.8" y="-1.799" fill="none" width="33.6" height="33.6"/>
<path fill-opacity="0.5" d="M3.392,10.042h23.214c0.917,0,1.657-0.745,1.657-1.659c0-0.916-0.74-1.658-1.657-1.658H3.392
 c-0.916,0-1.659,0.743-1.659,1.658C1.735,9.298,2.476,10.042,3.392,10.042z M26.608,14.462H3.392c-0.916,0-1.659,0.745-1.659,1.659
 c0,0.913,0.743,1.657,1.659,1.657h23.214c0.917,0,1.657-0.744,1.657-1.657C28.265,15.207,27.523,14.462,26.608,14.462z
 M26.608,22.203H3.392c-0.916,0-1.659,0.74-1.659,1.657c0,0.915,0.743,1.659,1.659,1.659h23.214c0.917,0,1.657-0.744,1.657-1.659
 C28.265,22.943,27.523,22.203,26.608,22.203z"/>
<path fill="#FFFFFF" d="M3.392,8.922h23.214c0.917,0,1.657-0.745,1.657-1.659c0-0.916-0.74-1.658-1.657-1.658H3.392
 c-0.916,0-1.659,0.743-1.659,1.658C1.735,8.178,2.476,8.922,3.392,8.922z M26.608,13.342H3.392c-0.916,0-1.659,0.745-1.659,1.659
 c0,0.913,0.743,1.657,1.659,1.657h23.214c0.917,0,1.657-0.744,1.657-1.657C28.265,14.087,27.523,13.342,26.608,13.342z
 M26.608,21.083H3.392c-0.916,0-1.659,0.741-1.659,1.657s0.743,1.659,1.659,1.659h23.214c0.917,0,1.657-0.743,1.657-1.659
 C28.265,21.824,27.523,21.083,26.608,21.083z"/>
</svg>
