<?xml version="1.0" encoding="utf-8"?>
<!-- Generator: Adobe Illustrator 14.0.0, SVG Export Plug-In . SVG Version: 6.00 Build 43363)  -->
<!DOCTYPE svg PUBLIC "-//W3C//DTD SVG 1.1//EN" "http://www.w3.org/Graphics/SVG/1.1/DTD/svg11.dtd">
<svg version="1.1" id="Layer_1" xmlns="http://www.w3.org/2000/svg" xmlns:xlink="http://www.w3.org/1999/xlink" x="0px" y="0px"
 width="30px" height="30px" viewBox="0 0 30 30" enable-background="new 0 0 30 30" xml:space="preserve">
<rect x="-1.8" y="-1.8" fill="none" width="33.6" height="33.6"/>
<path fill-opacity="0.5" d="M19.095,8.952H9.878V5.878c0-0.398-0.23-0.757-0.59-0.926C9.151,4.887,9.004,4.854,8.855,4.854
 c-0.234,0-0.468,0.082-0.657,0.236l-6.145,5.123C1.821,10.408,1.685,10.696,1.685,11c0,0.305,0.137,0.592,0.368,0.788l6.145,5.12
 c0.189,0.157,0.422,0.237,0.657,0.237c0.149,0,0.296-0.031,0.433-0.095c0.36-0.169,0.59-0.529,0.59-0.929v-3.072h9.217
 c2.826,0,5.121,2.298,5.121,5.121c0,2.823-2.295,5.12-5.121,5.12h-1.023c-1.129,0-2.048,0.917-2.048,2.048
 c0,1.13,0.919,2.048,2.048,2.048h1.023c5.084,0,9.218-4.135,9.218-9.216C28.313,13.086,24.179,8.952,19.095,8.952z"/>
<path fill="#FFFFFF" d="M19.095,7.832H9.878V4.759c0-0.399-0.23-0.757-0.59-0.927C9.151,3.767,9.004,3.734,8.855,3.734
 c-0.234,0-0.468,0.082-0.657,0.236L2.053,9.093C1.821,9.288,1.685,9.576,1.685,9.879c0,0.305,0.137,0.592,0.368,0.788l6.145,5.12
 c0.189,0.158,0.422,0.237,0.657,0.237c0.149,0,0.296-0.031,0.433-0.095c0.36-0.169,0.59-0.53,0.59-0.929v-3.072h9.217
 c2.826,0,5.121,2.298,5.121,5.121c0,2.824-2.295,5.121-5.121,5.121h-1.023c-1.129,0-2.048,0.916-2.048,2.047
 c0,1.13,0.919,2.048,2.048,2.048h1.023c5.084,0,9.218-4.135,9.218-9.216C28.313,11.966,24.179,7.832,19.095,7.832z"/>
</svg>
