<?xml version="1.0" encoding="UTF-8"?>
<!DOCTYPE svg PUBLIC "-//W3C//DTD SVG 1.1 Tiny//EN" "http://www.w3.org/Graphics/SVG/1.1/DTD/svg11-tiny.dtd">
<svg baseProfile="tiny" height="30px" version="1.1" viewBox="0 0 30 30" width="30px" x="0px" xmlns="http://www.w3.org/2000/svg" xmlns:xlink="http://www.w3.org/1999/xlink" y="0px">
<rect fill="none" height="30" width="30"/>
<path d="M12.335,23.19c-5.84,0-10.589-4.75-10.589-10.588  c0-5.839,4.749-10.589,10.589-10.589c5.837,0,10.588,4.75,10.588,10.589C22.923,18.44,18.172,23.19,12.335,23.19L12.335,23.19z   M12.335,6.181c-3.541,0-6.422,2.88-6.422,6.421c0,3.54,2.881,6.42,6.422,6.42c3.54,0,6.421-2.88,6.421-6.42  C18.756,9.061,15.875,6.181,12.335,6.181L12.335,6.181z" fill="#FFFFFF" stroke="#000000" stroke-width="2"/>
<path d="M25.756,27.58c-0.522,0.528-1.382,0.533-1.909,0.011l-5.713-5.648  c-0.527-0.522-0.533-1.381-0.011-1.909l1.424-1.441c0.522-0.528,1.382-0.533,1.909-0.011l5.713,5.648  c0.527,0.522,0.532,1.381,0.011,1.909L25.756,27.58z" fill="#FFFFFF" stroke="#000000" stroke-width="2"/>
<path d="M12.335,23.19c-5.84,0-10.589-4.75-10.589-10.588c0-5.839,4.749-10.589,10.589-10.589  c5.837,0,10.588,4.75,10.588,10.589C22.923,18.44,18.172,23.19,12.335,23.19L12.335,23.19z M12.335,6.181  c-3.541,0-6.422,2.88-6.422,6.421c0,3.54,2.881,6.42,6.422,6.42c3.54,0,6.421-2.88,6.421-6.42  C18.756,9.061,15.875,6.181,12.335,6.181L12.335,6.181z" fill="#FFFFFF"/>
<path d="M25.756,27.58c-0.522,0.528-1.382,0.533-1.909,0.011l-5.713-5.648c-0.527-0.522-0.533-1.381-0.011-1.909  l1.424-1.441c0.522-0.528,1.382-0.533,1.909-0.011l5.713,5.648c0.527,0.522,0.532,1.381,0.011,1.909L25.756,27.58z" fill="#FFFFFF"/>
</svg>
