<?xml version="1.0" encoding="UTF-8"?>
<!DOCTYPE svg PUBLIC "-//W3C//DTD SVG 1.1 Tiny//EN" "http://www.w3.org/Graphics/SVG/1.1/DTD/svg11-tiny.dtd">
<svg baseProfile="tiny" height="30px" version="1.1" viewBox="0 0 30 30" width="30px" x="0px" xmlns="http://www.w3.org/2000/svg" xmlns:xlink="http://www.w3.org/1999/xlink" y="0px">
<rect fill="none" height="30" width="30"/>
<path d="M16.138,10.275c0.673,0,1.229,0.557,1.229,1.231v15.686  c0,0.678-0.556,1.233-1.229,1.233h-2.273c-0.677,0-1.23-0.556-1.23-1.233V11.506c0-0.675,0.554-1.231,1.23-1.231H16.138z" fill="#FFFFFF" stroke="#000000" stroke-width="2"/>
<path d="M17.362,4.875c0,0.742-0.608,1.35-1.35,1.35h-2.025  c-0.741,0-1.35-0.608-1.35-1.35V2.85c0-0.742,0.608-1.35,1.35-1.35h2.025c0.741,0,1.35,0.608,1.35,1.35V4.875z" fill="#FFFFFF" stroke="#000000" stroke-width="2"/>
<path d="M16.138,10.275c0.673,0,1.229,0.557,1.229,1.231v15.686c0,0.678-0.556,1.233-1.229,1.233h-2.273  c-0.677,0-1.23-0.556-1.23-1.233V11.506c0-0.675,0.554-1.231,1.23-1.231H16.138z" fill="#FFFFFF"/>
<path d="M17.362,4.875c0,0.742-0.608,1.35-1.35,1.35h-2.025c-0.741,0-1.35-0.608-1.35-1.35V2.85  c0-0.742,0.608-1.35,1.35-1.35h2.025c0.741,0,1.35,0.608,1.35,1.35V4.875z" fill="#FFFFFF"/>
</svg>
