<?xml version="1.0" encoding="UTF-8"?>
<!DOCTYPE svg PUBLIC "-//W3C//DTD SVG 1.1 Tiny//EN" "http://www.w3.org/Graphics/SVG/1.1/DTD/svg11-tiny.dtd">
<svg baseProfile="tiny" height="30px" version="1.1" viewBox="0 0 30 30" width="30px" x="0px" xmlns="http://www.w3.org/2000/svg" xmlns:xlink="http://www.w3.org/1999/xlink" y="0px">
<rect fill="none" height="30" width="30"/>
<path d="M15.389,10.185c-0.638,0.38-1.16,0.083-1.16-0.659V3.054  c0-0.743,0.522-1.04,1.16-0.659l5.384,3.204c0.638,0.38,0.638,1.001,0,1.382L15.389,10.185z" fill="#FFFFFF" stroke="#000000" stroke-width="2"/>
<path d="M21.809,13.022c-0.207-0.421-0.159-1.188,0.531-1.628l1.708-1.088  c0.406-0.259,1.319-0.46,1.971,0.563c0.783,1.636,1.192,3.432,1.192,5.268c0,6.732-5.478,12.208-12.21,12.208l0,0  c-6.733,0-12.21-5.477-12.21-12.208c0-6.733,5.478-12.21,12.21-12.21v4.725c-4.128,0-7.486,3.357-7.486,7.485  c0,4.126,3.358,7.483,7.486,7.483s7.486-3.357,7.486-7.483C22.486,15.054,22.253,13.994,21.809,13.022z" fill="#FFFFFF" stroke="#000000" stroke-width="2"/>
<path d="M15.389,10.185c-0.638,0.38-1.16,0.083-1.16-0.659V3.054c0-0.743,0.522-1.04,1.16-0.659l5.384,3.204  c0.638,0.38,0.638,1.001,0,1.382L15.389,10.185z" fill="#FFFFFF"/>
<path d="M21.809,13.022c-0.207-0.421-0.159-1.188,0.531-1.628l1.708-1.088c0.406-0.259,1.319-0.46,1.971,0.563  c0.783,1.636,1.192,3.432,1.192,5.268c0,6.732-5.478,12.208-12.21,12.208l0,0c-6.733,0-12.21-5.477-12.21-12.208  c0-6.733,5.478-12.21,12.21-12.21v4.725c-4.128,0-7.486,3.357-7.486,7.485c0,4.126,3.358,7.483,7.486,7.483s7.486-3.357,7.486-7.483  C22.486,15.054,22.253,13.994,21.809,13.022z" fill="#FFFFFF"/>
</svg>
