<?xml version="1.0" encoding="UTF-8"?>
<!DOCTYPE svg PUBLIC "-//W3C//DTD SVG 1.1 Tiny//EN" "http://www.w3.org/Graphics/SVG/1.1/DTD/svg11-tiny.dtd">
<svg baseProfile="tiny" height="30px" version="1.1" viewBox="0 0 30 30" width="30px" x="0px" xmlns="http://www.w3.org/2000/svg" xmlns:xlink="http://www.w3.org/1999/xlink" y="0px">
<g>
<rect fill="none" height="30" width="30"/>
</g>
<path d="M24.421,3.093c-0.355-0.165-0.771-0.107-1.066,0.144L11,13.69V4c0-0.552-0.447-1-1-1H5C4.447,3,4,3.448,4,4  v22c0,0.553,0.447,1,1,1h1.5c0.553,0,1-0.447,1-1s-0.447-1-1-1H6V5h3v21c0,0.553,0.447,1,1,1s1-0.447,1-1v-9.69l8.634,7.306  c0.421,0.357,1.052,0.304,1.409-0.117c0.356-0.422,0.304-1.053-0.118-1.41L12.548,15L23,6.156V26c0,0.553,0.447,1,1,1s1-0.447,1-1V4  C25,3.611,24.774,3.257,24.421,3.093z" fill="#CC0000"/>
</svg>
