<?xml version="1.0" encoding="UTF-8"?>
<!DOCTYPE svg PUBLIC "-//W3C//DTD SVG 1.1 Tiny//EN" "http://www.w3.org/Graphics/SVG/1.1/DTD/svg11-tiny.dtd">
<svg baseProfile="tiny" height="30px" version="1.1" viewBox="0 0 30 30" width="30px" x="0px" xmlns="http://www.w3.org/2000/svg" xmlns:xlink="http://www.w3.org/1999/xlink" y="0px">
<g>
<rect fill="none" height="30" width="30"/>
</g>
<path d="M23,20.628c-0.273,0-0.545-0.111-0.743-0.331c-0.369-0.41-0.337-1.042,0.073-1.412  C23.392,17.929,24,16.513,24,15c0-1.512-0.608-2.928-1.67-3.885c-0.41-0.37-0.442-1.002-0.072-1.413  c0.37-0.411,1.003-0.441,1.412-0.073C25.15,10.965,26,12.923,26,15c0,2.078-0.85,4.035-2.33,5.371  C23.479,20.543,23.239,20.628,23,20.628L23,20.628z" fill="#CC0000"/>
<path d="M23,25.289c-0.391,0-0.762-0.231-0.922-0.615c-0.214-0.51,0.026-1.095,0.535-1.309  C25.886,21.995,28,18.711,28,15s-2.114-6.995-5.387-8.366c-0.509-0.213-0.749-0.799-0.535-1.309c0.213-0.51,0.797-0.749,1.309-0.536  C27.404,6.473,30,10.481,30,15c0,4.52-2.596,8.527-6.613,10.211C23.26,25.264,23.129,25.289,23,25.289L23,25.289z" fill="#CC0000"/>
<path d="M20.493,3.13c-0.313-0.178-0.698-0.173-1.008,0.013L9.723,9H2c-0.553,0-1,0.448-1,1v10c0,0.553,0.447,1,1,1  h8c0.553,0,1-0.447,1-1v-7c0-0.552-0.447-1-1-1s-1,0.448-1,1v6H3v-8h7c0.023,0,0.043-0.012,0.066-0.014  c0.066-0.004,0.129-0.021,0.195-0.039c0.066-0.019,0.129-0.036,0.189-0.067c0.021-0.01,0.043-0.01,0.063-0.022L19,5.766v18.468  l-5.485-3.291c-0.476-0.285-1.088-0.131-1.372,0.342c-0.284,0.475-0.131,1.088,0.343,1.373l7,4.199C19.644,26.953,19.822,27,20,27  c0.17,0,0.34-0.043,0.493-0.13C20.807,26.693,21,26.36,21,26V4C21,3.64,20.807,3.307,20.493,3.13z" fill="#CC0000"/>
</svg>
