<?xml version="1.0" encoding="UTF-8"?>
<!DOCTYPE svg PUBLIC "-//W3C//DTD SVG 1.1 Tiny//EN" "http://www.w3.org/Graphics/SVG/1.1/DTD/svg11-tiny.dtd">
<svg baseProfile="tiny" height="30px" version="1.1" viewBox="0 0 30 30" width="30px" x="0px" xmlns="http://www.w3.org/2000/svg" xmlns:xlink="http://www.w3.org/1999/xlink" y="0px">
<g>
<rect fill="none" height="30" width="30"/>
</g>
<path d="M25,3h-5c-0.553,0-1,0.448-1,1v9.69L6.646,3.237C6.349,2.984,5.932,2.928,5.579,3.093  C5.226,3.257,5,3.611,5,4v22c0,0.553,0.447,1,1,1s1-0.447,1-1V6.156L17.452,15l-8.377,7.088c-0.422,0.357-0.475,0.988-0.118,1.41  c0.357,0.421,0.987,0.475,1.409,0.117L19,16.31V26c0,0.553,0.447,1,1,1s1-0.447,1-1V5h3v20h-0.5c-0.553,0-1,0.447-1,1s0.447,1,1,1  H25c0.553,0,1-0.447,1-1V4C26,3.448,25.553,3,25,3z" fill="#CC0000"/>
</svg>
