<?xml version="1.0" encoding="UTF-8"?>
<!DOCTYPE svg PUBLIC "-//W3C//DTD SVG 1.1 Tiny//EN" "http://www.w3.org/Graphics/SVG/1.1/DTD/svg11-tiny.dtd">
<svg baseProfile="tiny" height="30px" version="1.1" viewBox="0 0 30 30" width="30px" x="0px" xmlns="http://www.w3.org/2000/svg" xmlns:xlink="http://www.w3.org/1999/xlink" y="0px">
<g>
<rect fill="none" height="30" width="30"/>
</g>
<path d="M7.138,29.055c-1.485,0-2.793-0.444-3.75-1.289C2.493,26.976,2,25.904,2,24.75  c0-2.355,1.745-4.169,4.554-4.73c1.597-0.318,3.351,0.314,3.894,0.586c0.494,0.247,0.694,0.848,0.447,1.342  c-0.248,0.494-0.848,0.695-1.342,0.447c-0.356-0.179-1.64-0.607-2.606-0.414C5.074,22.355,4,23.364,4,24.75  c0,0.581,0.246,1.105,0.712,1.516c0.717,0.634,1.869,0.906,3.164,0.742c1.594-0.199,3.935-1.668,4.129-3.607L12,2  c0-0.464,0.318-0.866,0.77-0.973c0.452-0.108,0.917,0.111,1.125,0.525c0.02,0.039,1.969,3.896,4.813,6.741  C19.729,9.314,21,10.586,21,13c0,1.845-0.944,4.236-3.594,5.414c-0.504,0.227-1.095-0.003-1.32-0.508  c-0.224-0.505,0.003-1.096,0.508-1.32C18.826,15.594,19,13.59,19,13c0-1.586-0.753-2.339-1.707-3.293  C15.98,8.395,14.86,6.914,14,5.632V23.5c-0.296,3.014-3.279,5.168-5.876,5.492C7.788,29.034,7.459,29.055,7.138,29.055L7.138,29.055  z" fill="#CC0000"/>
<path d="M24.5,22c-0.275,0-0.55-0.113-0.747-0.336c-0.367-0.412-0.33-1.045,0.083-1.412  c1.932-1.717,3.039-4.36,3.039-7.252s-1.107-5.536-3.039-7.252c-0.413-0.367-0.45-0.999-0.083-1.412s0.999-0.45,1.411-0.083  c2.358,2.096,3.711,5.285,3.711,8.748s-1.353,6.651-3.711,8.748C24.974,21.916,24.736,22,24.5,22L24.5,22z" fill="#CC0000"/>
<path d="M22,18.5c-0.256,0-0.512-0.098-0.707-0.293c-0.391-0.391-0.391-1.023,0-1.414  c2.127-2.127,2.127-5.459,0-7.586c-0.391-0.391-0.391-1.023,0-1.414s1.023-0.391,1.414,0c2.871,2.871,2.871,7.543,0,10.414  C22.512,18.402,22.256,18.5,22,18.5L22,18.5z" fill="#CC0000"/>
</svg>
