<?xml version="1.0" encoding="UTF-8"?>
<!DOCTYPE svg PUBLIC "-//W3C//DTD SVG 1.1 Tiny//EN" "http://www.w3.org/Graphics/SVG/1.1/DTD/svg11-tiny.dtd">
<svg baseProfile="tiny" height="30px" version="1.1" viewBox="0 0 30 30" width="30px" x="0px" xmlns="http://www.w3.org/2000/svg" xmlns:xlink="http://www.w3.org/1999/xlink" y="0px">
<g>
<rect fill="none" height="30" width="30"/>
</g>
<path d="M7.001,27c-0.363,0-0.714-0.198-0.891-0.544c-0.252-0.491-0.058-1.094,0.434-1.346l8-4.1  c0.287-0.146,0.625-0.146,0.912,0l6.218,3.186l-1.159-6.71c-0.057-0.325,0.052-0.657,0.288-0.887l5.002-4.861l-6.908-0.846  c-0.331-0.04-0.619-0.242-0.771-0.539L15,4.206l-3.126,6.147c-0.151,0.297-0.439,0.499-0.771,0.539l-6.908,0.846L9.197,16.6  c0.236,0.229,0.345,0.562,0.288,0.887L8.604,22.59c-0.094,0.545-0.611,0.906-1.155,0.815c-0.545-0.094-0.909-0.611-0.815-1.155  l0.792-4.584l-6.122-5.949c-0.275-0.268-0.373-0.671-0.251-1.036c0.123-0.364,0.444-0.627,0.827-0.673l8.453-1.035l3.776-7.426  c0.342-0.672,1.441-0.672,1.783,0l3.776,7.426l8.453,1.035c0.383,0.046,0.704,0.309,0.827,0.673  c0.122,0.365,0.024,0.769-0.251,1.036l-6.122,5.949l1.41,8.164c0.064,0.373-0.088,0.751-0.393,0.976  c-0.307,0.226-0.712,0.258-1.049,0.084L15,23.024L7.456,26.89C7.311,26.965,7.154,27,7.001,27L7.001,27z" fill="#CC0000"/>
<rect fill="none" height="30" width="30"/>
<rect fill="none" height="30" width="30"/>
</svg>
