<?xml version="1.0" encoding="UTF-8"?>
<!DOCTYPE svg PUBLIC "-//W3C//DTD SVG 1.1 Tiny//EN" "http://www.w3.org/Graphics/SVG/1.1/DTD/svg11-tiny.dtd">
<svg baseProfile="tiny" height="30px" version="1.1" viewBox="0 0 30 30" width="30px" x="0px" xmlns="http://www.w3.org/2000/svg" xmlns:xlink="http://www.w3.org/1999/xlink" y="0px">
<path d="M7.719,10.806c-0.978,0-1.532-1.027-0.771-1.788l7.146-7.147  c0.492-0.496,1.295-0.495,1.785,0l7.152,7.147c0.804,0.81,0.202,1.788-0.622,1.788H7.719z" fill-opacity="0.65" stroke-opacity="0.65"/>
<path d="M22.28,19.193c0.979,0,1.533,1.028,0.772,1.788l-7.147,7.147  c-0.491,0.496-1.294,0.495-1.784,0l-7.152-7.147c-0.804-0.81-0.202-1.788,0.622-1.788H22.28z" fill-opacity="0.65" stroke-opacity="0.65"/>
<path d="M7.719,11.806h14.69c0.815,0,1.543-0.48,1.853-1.225  c0.315-0.758,0.116-1.627-0.523-2.271L16.59,1.167c-0.427-0.432-0.996-0.669-1.604-0.669c-0.606,0-1.176,0.237-1.6,0.665L6.24,8.311  c-0.621,0.621-0.813,1.475-0.501,2.228C6.058,11.309,6.835,11.806,7.719,11.806z M6.948,9.018l7.146-7.147  c0.492-0.496,1.295-0.495,1.785,0l7.152,7.147c0.804,0.81,0.202,1.788-0.622,1.788H7.72C6.742,10.806,6.188,9.778,6.948,9.018z   M22.28,18.193H7.591c-0.815,0-1.543,0.48-1.853,1.225c-0.315,0.758-0.116,1.627,0.523,2.271l7.148,7.144  c0.427,0.432,0.996,0.669,1.604,0.669c0.606,0,1.176-0.237,1.599-0.665l7.147-7.146c0.621-0.621,0.813-1.475,0.502-2.228  C23.942,18.691,23.165,18.193,22.28,18.193z M23.054,20.981l-7.147,7.147c-0.491,0.496-1.294,0.495-1.784,0L6.97,20.981  c-0.804-0.81-0.202-1.788,0.622-1.788h14.689C23.26,19.193,23.814,20.222,23.054,20.981z" fill="#FFFFFF" fill-opacity="0.65" stroke-opacity="0.65"/>
<rect fill="none" height="30" width="30"/>
</svg>
