<?xml version="1.0" encoding="UTF-8"?>
<!DOCTYPE svg PUBLIC "-//W3C//DTD SVG 1.1 Tiny//EN" "http://www.w3.org/Graphics/SVG/1.1/DTD/svg11-tiny.dtd">
<svg baseProfile="tiny" height="30px" version="1.1" viewBox="0 0 30 30" width="30px" x="0px" xmlns="http://www.w3.org/2000/svg" xmlns:xlink="http://www.w3.org/1999/xlink" y="0px">
<path d="M15,0C6.716,0,0,6.716,0,15s6.716,15,15,15s15-6.716,15-15S23.284,0,15,0z   M15,29C7.269,29,1,22.731,1,15S7.269,1,15,1s14,6.269,14,14S22.731,29,15,29z" fill-opacity="0.65" stroke-opacity="0.65"/>
<circle cx="15" cy="15" fill="url(#SVGID_1_)" r="14"/>
<path d="M15,1C7.268,1,1,7.268,1,15s6.268,14,14,14  c7.732,0,14-6.268,14-14S22.732,1,15,1z M15,26C8.925,26,4,21.074,4,15S8.925,4,15,4c6.074,0,11,4.926,11,11S21.074,26,15,26z" fill="#FFFFFF" fill-opacity="0.15" stroke-opacity="0.15"/>
<path d="M15,1C7.268,1,1,7.268,1,15s6.268,14,14,14  c7.732,0,14-6.268,14-14S22.732,1,15,1z M15,27C8.374,27,3,21.627,3,15S8.374,3,15,3c6.627,0,12,5.373,12,12S21.627,27,15,27z" fill="#FFFFFF" fill-opacity="0.15" stroke-opacity="0.15"/>
<path d="M15,1C7.268,1,1,7.268,1,15s6.268,14,14,14  c7.732,0,14-6.268,14-14S22.732,1,15,1z M15,28C7.821,28,2,22.18,2,15S7.821,2,15,2c7.18,0,13,5.82,13,13S22.18,28,15,28z" fill="#FFFFFF" fill-opacity="0.15" stroke-opacity="0.15"/>
<path d="M15,9c-3.312,0-6,2.685-6,6s2.688,6,6,6c3.313,0,6-2.685,6-6S18.313,9,15,9z M15,20c-2.757,0-5-2.243-5-5  s2.243-5,5-5s5,2.243,5,5S17.757,20,15,20z" fill="#FFFFFF"/>
<defs>
<linearGradient gradientUnits="userSpaceOnUse" id="SVGID_1_" x1="15.0005" x2="15.0005" y1="28.667" y2="1.2047">
<stop offset="0" style="stop-color:#86C7FF"/>
<stop offset="0.7" style="stop-color:#C1C1C1"/>
<stop offset="1" style="stop-color:#7F8F86"/>
</linearGradient>
</defs>
</svg>
