<?xml version="1.0" encoding="utf-8"?>
<!-- Generator: Adobe Illustrator 14.0.0, SVG Export Plug-In  -->
<!DOCTYPE svg PUBLIC "-//W3C//DTD SVG 1.1//EN" "http://www.w3.org/Graphics/SVG/1.1/DTD/svg11.dtd" [
    <!ENTITY ns_flows "http://ns.adobe.com/Flows/1.0/">
]>
<svg version="1.1"
     xmlns="http://www.w3.org/2000/svg" xmlns:xlink="http://www.w3.org/1999/xlink" xmlns:a="http://ns.adobe.com/AdobeSVGViewerExtensions/3.0/"
     x="0px" y="0px" width="84px" height="42px" viewBox="0 0 84 42" enable-background="new 0 0 84 42" xml:space="preserve">
<defs>
</defs>
<linearGradient id="SVGID_1_" gradientUnits="userSpaceOnUse" x1="42.5005" y1="41.5" x2="42.5005" y2="1.6445">
    <stop  offset="0" style="stop-color:#999999"/>
    <stop  offset="1" style="stop-color:#CCCCCC;stop-opacity:0.95"/>
</linearGradient>
<path opacity="0.6" fill="url(#SVGID_1_)" enable-background="new    " d="M7,1C3.691,1,1,3.691,1,7v28c0,3.309,2.691,6,6,6h77V1H7z
    "/>
<rect x="83" y="1" opacity="0.2" width="1" height="40"/>
<path opacity="0.4" enable-background="new    " d="M7,1h77V0H7C3.14,0,0,3.141,0,7v28c0,3.859,3.14,7,7,7h77v-1H7
    c-3.309,0-6-2.691-6-6V7C1,3.691,3.691,1,7,1z"/>
</svg>
