<?xml version="1.0" encoding="UTF-8"?>
<!DOCTYPE svg PUBLIC "-//W3C//DTD SVG 1.1 Tiny//EN" "http://www.w3.org/Graphics/SVG/1.1/DTD/svg11-tiny.dtd">
<svg baseProfile="tiny" height="34px" version="1.1" viewBox="0 0 56 34" width="56px" x="0px" xmlns="http://www.w3.org/2000/svg" xmlns:xlink="http://www.w3.org/1999/xlink" y="0px">
<path d="M49,0H7C3.141,0,0,3.141,0,7v20c0,3.859,3.141,7,7,7h42c3.859,0,7-3.141,7-7V7C56,3.141,52.859,0,49,0z   M55,27c0,3.309-2.691,6-6,6H7c-3.309,0-6-2.691-6-6V7c0-3.309,2.691-6,6-6h42c3.309,0,6,2.691,6,6V27z" fill-opacity="0.4" stroke-opacity="0.4"/>
<linearGradient gradientUnits="userSpaceOnUse" id="SVGID_1_" x1="27.9995" x2="27.9995" y1="1.2607" y2="33.0579">
<stop offset="0" style="stop-color:#999999"/>
<stop offset="1" style="stop-color:#CCCCCC;stop-opacity:0.95"/>
</linearGradient>
<path d="M49,1H7C3.691,1,1,3.691,1,7v20c0,3.309,2.691,6,6,6h42  c3.309,0,6-2.691,6-6V7C55,3.691,52.308,1,49,1z" fill="url(#SVGID_1_)" fill-opacity="0.6" stroke-opacity="0.6"/>
<path d="M7,33c-3.309,0-6-2.691-6-6V7c0-3.309,2.691-6,6-6h20c3.308,0,6,2.691,6,6v20c0,3.309-2.691,6-6,6H7z" fill="#999999"/>
<linearGradient gradientUnits="userSpaceOnUse" id="SVGID_2_" x1="16.9995" x2="16.9995" y1="2.1973" y2="31.4271">
<stop offset="0" style="stop-color:#CCCCCC"/>
<stop offset="1" style="stop-color:#B3B3B3"/>
</linearGradient>
<path d="M7,32c-2.757,0-5-2.244-5-5V7c0-2.758,2.243-5,5-5h20  c2.757,0,5,2.242,5,5v20c0,2.756-2.242,5-5,5H7z" fill="url(#SVGID_2_)"/>
<rect fill="none" height="34" width="34"/>
</svg>
