<?xml version="1.0" encoding="utf-8"?>
<!-- Generator: Adobe Illustrator 14.0.0, SVG Export Plug-In  -->
<!DOCTYPE svg PUBLIC "-//W3C//DTD SVG 1.1//EN" "http://www.w3.org/Graphics/SVG/1.1/DTD/svg11.dtd" [
    <!ENTITY ns_flows "http://ns.adobe.com/Flows/1.0/">
]>
<svg version="1.1"
     xmlns="http://www.w3.org/2000/svg" xmlns:xlink="http://www.w3.org/1999/xlink" xmlns:a="http://ns.adobe.com/AdobeSVGViewerExtensions/3.0/"
     x="0px" y="0px" width="24px" height="18px" viewBox="0 0 24 18" enable-background="new 0 0 24 18" xml:space="preserve">
<defs>
</defs>
<path fill="#FFFFFF" d="M0,11c0,0.549,0.449,1,1.003,1l0,0c0.55,0,1.003,0,1.003,0v4c0,0.549,0.449,1,1.003,1h19.988
    C23.548,17,24,16.549,24,16V2c0-0.549-0.452-1-1.003-1H3.009C2.455,1,2.006,1.451,2.006,2v4c0,0-0.453,0-1.003,0l0,0
    C0.449,6,0,6.451,0,7V11z M21.994,15H4.012V3h17.982V15z"/>
<rect x="6" y="5" fill="#FCEE21" width="14" height="8"/>
<rect fill="none" width="24" height="18"/>
</svg>
