<?xml version="1.0" encoding="UTF-8"?>
<!DOCTYPE svg PUBLIC "-//W3C//DTD SVG 1.1 Tiny//EN" "http://www.w3.org/Graphics/SVG/1.1/DTD/svg11-tiny.dtd">
<svg baseProfile="tiny" height="40px" version="1.1" viewBox="0 0 300 40" width="300px" x="0px" xmlns="http://www.w3.org/2000/svg" xmlns:xlink="http://www.w3.org/1999/xlink" y="0px">
<path d="M293,0H7C3.141,0,0,3.141,0,7v26c0,3.859,3.141,7,7,7h286  c3.859,0,7-3.141,7-7V7C300,3.141,296.859,0,293,0z M299,33c0,3.309-2.691,6-6,6H7c-3.309,0-6-2.691-6-6V7c0-3.309,2.691-6,6-6h286  c3.309,0,6,2.691,6,6V33z" fill="#008AFF" fill-opacity="0.65" stroke-opacity="0.65"/>
<path d="M7,39c-3.309,0-6-2.691-6-6V7c0-3.309,2.691-6,6-6h286c3.309,0,6,2.691,6,6v26c0,3.309-2.691,6-6,6H7  z" fill="url(#SVGID_1_)"/>
<path d="M293,1H7C3.691,1,1,3.691,1,7v26c0,3.309,2.691,6,6,6h286c3.309,0,6-2.691,6-6V7C299,3.691,296.309,1,293,1z   M298,33c0,2.757-2.243,5-5,5H7c-2.757,0-5-2.243-5-5V7c0-2.757,2.243-5,5-5h286c2.757,0,5,2.243,5,5V33z" fill-opacity="0.2" stroke-opacity="0.2"/>
<defs>
<linearGradient gradientUnits="userSpaceOnUse" id="SVGID_1_" x1="150.0005" x2="150.0005" y1="38.7373" y2="0.9311">
<stop offset="0" style="stop-color:#E6E6E6"/>
<stop offset="0.85" style="stop-color:#E6E6E6"/>
<stop offset="0.8916" style="stop-color:#DDDDDD"/>
<stop offset="0.9592" style="stop-color:#C5C5C5"/>
<stop offset="1" style="stop-color:#B3B3B3"/>
</linearGradient>
</defs>
</svg>
