<?xml version="1.0" encoding="UTF-8"?>
<!DOCTYPE svg PUBLIC "-//W3C//DTD SVG 1.1 Tiny//EN" "http://www.w3.org/Graphics/SVG/1.1/DTD/svg11-tiny.dtd">
<svg baseProfile="tiny" height="70px" version="1.1" viewBox="0 0 70 70" width="70px" x="0px" xmlns="http://www.w3.org/2000/svg" xmlns:xlink="http://www.w3.org/1999/xlink" y="0px">
<path d="M63,0H7C3.14,0,0,3.141,0,7v56c0,3.859,3.14,7,7,7h56c3.859,0,7-3.141,7-7V7  C70,3.141,66.859,0,63,0z M69,63c0,3.309-2.691,6-6,6H7c-3.309,0-6-2.691-6-6V7c0-3.309,2.691-6,6-6h56c3.309,0,6,2.691,6,6V63z" fill-opacity="0.65" stroke-opacity="0.65"/>
<linearGradient gradientUnits="userSpaceOnUse" id="SVGID_1_" x1="34.9995" x2="34.9995" y1="1.1934" y2="69.0013">
<stop offset="0" style="stop-color:#CCCCCC"/>
<stop offset="1" style="stop-color:#333333"/>
</linearGradient>
<path d="M7,69c-3.309,0-6-2.691-6-6V7c0-3.309,2.691-6,6-6h56  c3.309,0,6,2.691,6,6v56c0,3.309-2.691,6-6,6H7z" fill="url(#SVGID_1_)" fill-opacity="0.6" stroke-opacity="0.6"/>
<linearGradient gradientUnits="userSpaceOnUse" id="SVGID_2_" x1="25" x2="25" y1="12.1367" y2="57.9031">
<stop offset="0" style="stop-color:#CCCCCC"/>
<stop offset="1" style="stop-color:#333333"/>
</linearGradient>
<path d="M7,58c-2.757,0-5-2.244-5-5V17c0-2.757,2.243-5,5-5h36  c2.757,0,5,2.243,5,5v36c0,2.756-2.243,5-5,5H7z" display="none" fill="url(#SVGID_2_)"/>
<path d="M63,1H7C3.691,1,1,3.691,1,7v56c0,3.309,2.691,6,6,6h56  c3.309,0,6-2.691,6-6V7C69,3.691,66.309,1,63,1z M66,63c0,1.654-1.346,3-3,3H7c-1.654,0-3-1.346-3-3V7c0-1.654,1.346-3,3-3h56  c1.654,0,3,1.346,3,3V63z" fill="#FFFFFF" fill-opacity="0.15" stroke-opacity="0.15"/>
<path d="M63,1H7C3.691,1,1,3.691,1,7v56c0,3.309,2.691,6,6,6h56  c3.309,0,6-2.691,6-6V7C69,3.691,66.309,1,63,1z M67,63c0,2.206-1.795,4-4,4H7c-2.206,0-4-1.794-4-4V7c0-2.206,1.794-4,4-4h56  c2.205,0,4,1.794,4,4V63z" fill="#FFFFFF" fill-opacity="0.15" stroke-opacity="0.15"/>
<path d="M63,1H7C3.691,1,1,3.691,1,7v56c0,3.309,2.691,6,6,6h56  c3.309,0,6-2.691,6-6V7C69,3.691,66.309,1,63,1z M68,63c0,2.757-2.243,5-5,5H7c-2.757,0-5-2.243-5-5V7c0-2.757,2.243-5,5-5h56  c2.757,0,5,2.243,5,5V63z" fill="#FFFFFF" fill-opacity="0.15" stroke-opacity="0.15"/>
</svg>
