<?xml version="1.0" encoding="UTF-8"?>
<!DOCTYPE svg PUBLIC "-//W3C//DTD SVG 1.1 Tiny//EN" "http://www.w3.org/Graphics/SVG/1.1/DTD/svg11-tiny.dtd">
<svg baseProfile="tiny" height="34px" version="1.1" viewBox="0 0 34 34" width="34px" x="0px" xmlns="http://www.w3.org/2000/svg" xmlns:xlink="http://www.w3.org/1999/xlink" y="0px">
<path d="M7,33c-3.309,0-6-2.691-6-6V7c0-3.309,2.691-6,6-6h20c3.309,0,6,2.691,6,6v20c0,3.309-2.691,6-6,6H7z" fill="#808080"/>
<path d="M7,32c-2.757,0-5-2.244-5-5V7c0-2.758,2.243-5,5-5h20  c2.757,0,5,2.242,5,5v20c0,2.756-2.243,5-5,5H7z" fill="url(#SVGID_1_)"/>
<path d="M27,2H7C4.243,2,2,4.242,2,7v20c0,2.756,2.243,5,5,5h20  c2.757,0,5-2.244,5-5V7C32,4.242,29.757,2,27,2z M29,27c0,1.102-0.897,2-2,2H7c-1.103,0-2-0.898-2-2V7c0-1.104,0.897-2,2-2h20  c1.103,0,2,0.896,2,2V27z" fill="#FFFFFF" fill-opacity="0.15" stroke-opacity="0.15"/>
<path d="M27,2H7C4.243,2,2,4.242,2,7v20c0,2.756,2.243,5,5,5h20  c2.757,0,5-2.244,5-5V7C32,4.242,29.757,2,27,2z M30,27c0,1.654-1.346,3-3,3H7c-1.654,0-3-1.346-3-3V7c0-1.654,1.346-3,3-3h20  c1.654,0,3,1.346,3,3V27z" fill="#FFFFFF" fill-opacity="0.15" stroke-opacity="0.15"/>
<path d="M27,2H7C4.243,2,2,4.242,2,7v20c0,2.756,2.243,5,5,5h20  c2.757,0,5-2.244,5-5V7C32,4.242,29.757,2,27,2z M31,27c0,2.205-1.794,4-4,4H7c-2.206,0-4-1.795-4-4V7c0-2.207,1.794-4,4-4h20  c2.206,0,4,1.793,4,4V27z" fill="#FFFFFF" fill-opacity="0.15" stroke-opacity="0.15"/>
<rect fill="none" height="34" width="34"/>
<defs>
<linearGradient gradientUnits="userSpaceOnUse" id="SVGID_1_" x1="16.9995" x2="16.9995" y1="2.1973" y2="31.4276">
<stop offset="0" style="stop-color:#E6E6E6"/>
<stop offset="1" style="stop-color:#B3B3B3"/>
</linearGradient>
</defs>
</svg>
