<?xml version="1.0" encoding="UTF-8"?>
<!DOCTYPE svg PUBLIC "-//W3C//DTD SVG 1.1 Tiny//EN" "http://www.w3.org/Graphics/SVG/1.1/DTD/svg11-tiny.dtd">
<svg baseProfile="tiny" height="20px" version="1.1" viewBox="0 0 20 20" width="20px" x="0px" xmlns="http://www.w3.org/2000/svg" xmlns:xlink="http://www.w3.org/1999/xlink" y="0px">
<rect fill="none" height="20" width="20"/>
<rect fill="none" height="20" width="20"/>
<path d="M16,10c0-3.3-2.701-6-6-6C6.7,4,4,6.7,4,10v10h12V10z" fill="url(#SVGID_1_)"/>
<path d="M5,10c0-2.757,2.242-5,5-5c2.755,0,5,2.243,5,5v10h1V10c0-3.3-2.701-6-6-6C6.7,4,4,6.7,4,10v10h1V10z" fill-opacity="0.1" stroke-opacity="0.1"/>
<defs>
<linearGradient gradientTransform="matrix(0 1 -1 0 -1006 2139)" gradientUnits="userSpaceOnUse" id="SVGID_1_" x1="-2126.9995" x2="-2126.9995" y1="-1010.001" y2="-1022.0005">
<stop offset="0" style="stop-color:#E6E6E6"/>
<stop offset="0.7" style="stop-color:#E6E6E6"/>
<stop offset="1" style="stop-color:#D2D2D2"/>
</linearGradient>
</defs>
</svg>
