<?xml version="1.0" encoding="UTF-8"?>
<!DOCTYPE svg PUBLIC "-//W3C//DTD SVG 1.1 Tiny//EN" "http://www.w3.org/Graphics/SVG/1.1/DTD/svg11-tiny.dtd">
<svg baseProfile="tiny" height="50px" version="1.1" viewBox="0 0 110 50" width="110px" x="0px" xmlns="http://www.w3.org/2000/svg" xmlns:xlink="http://www.w3.org/1999/xlink" y="0px">
<rect fill="none" height="50" width="110"/>
<linearGradient gradientTransform="matrix(-1 0 0 1 -1122 0)" gradientUnits="userSpaceOnUse" id="SVGID_1_" x1="-1177" x2="-1177" y1="44" y2="6.0005">
<stop offset="0" style="stop-color:#999999"/>
<stop offset="0.103" style="stop-color:#000000"/>
<stop offset="1" style="stop-color:#000000"/>
</linearGradient>
<path d="M102,6c4.418,0,8,3.582,8,8v22c0,4.418-3.582,8-8,8H0V6H102z" fill="url(#SVGID_1_)" fill-opacity="0.25" stroke-opacity="0.25"/>
<path d="M102,7c3.859,0,7,3.141,7,7v22c0,3.859-3.141,7-7,7H0V7H102z"/>
<linearGradient gradientTransform="matrix(-1 0 0 1 -1122 0)" gradientUnits="userSpaceOnUse" id="SVGID_2_" x1="-1176" x2="-1176" y1="41.8721" y2="8.0217">
<stop offset="0" style="stop-color:#86C7FF"/>
<stop offset="0.7" style="stop-color:#C1C1C1"/>
<stop offset="1" style="stop-color:#7F8F86"/>
</linearGradient>
<path d="M102,8c3.309,0,6,2.691,6,6v22c0,3.309-2.691,6-6,6H0V8H102z" fill="url(#SVGID_2_)"/>
<path d="M102,39c1.654,0,3-1.346,3-3V14c0-1.654-1.346-3-3-3H0V8h102  c3.309,0,6,2.691,6,6v22c0,3.309-2.691,6-6,6H0v-3H102z" fill="#FFFFFF" fill-opacity="0.15" stroke-opacity="0.15"/>
<path d="M102,40c2.205,0,4-1.795,4-4V14c0-2.205-1.795-4-4-4H0V8h102  c3.309,0,6,2.691,6,6v22c0,3.309-2.691,6-6,6H0v-2H102z" fill="#FFFFFF" fill-opacity="0.15" stroke-opacity="0.15"/>
<path d="M102,41c2.757,0,5-2.243,5-5V14c0-2.757-2.243-5-5-5H0V8h102  c3.309,0,6,2.691,6,6v22c0,3.309-2.691,6-6,6H0v-1H102z" fill="#FFFFFF" fill-opacity="0.15" stroke-opacity="0.15"/>
<rect fill="#FFFFFF" fill-opacity="0.3" height="34" stroke-opacity="0.3" width="1" y="8"/>
</svg>
