<?xml version="1.0" encoding="UTF-8"?>
<!DOCTYPE svg PUBLIC "-//W3C//DTD SVG 1.1 Tiny//EN" "http://www.w3.org/Graphics/SVG/1.1/DTD/svg11-tiny.dtd">
<svg baseProfile="tiny" height="50px" version="1.1" viewBox="0 0 110 50" width="110px" x="0px" xmlns="http://www.w3.org/2000/svg" xmlns:xlink="http://www.w3.org/1999/xlink" y="0px">
<rect fill="none" height="50" width="110"/>
<linearGradient gradientUnits="userSpaceOnUse" id="SVGID_1_" x1="55.0005" x2="55.0005" y1="44" y2="6.0005">
<stop offset="0" style="stop-color:#999999"/>
<stop offset="0.103" style="stop-color:#000000"/>
<stop offset="1" style="stop-color:#000000"/>
</linearGradient>
<path d="M8,6c-4.418,0-8,3.582-8,8v22c0,4.418,3.582,8,8,8h102V6H8z" fill="url(#SVGID_1_)" fill-opacity="0.25" stroke-opacity="0.25"/>
<path d="M8,7c-3.86,0-7,3.14-7,7v22c0,3.859,3.14,7,7,7h102V7H8z"/>
<linearGradient gradientUnits="userSpaceOnUse" id="SVGID_2_" x1="55.9995" x2="55.9995" y1="8.0967" y2="42.0011">
<stop offset="0" style="stop-color:#A1D3FF"/>
<stop offset="1" style="stop-color:#5CB4FF"/>
</linearGradient>
<path d="M8,8c-3.309,0-6,2.691-6,6v22c0,3.309,2.691,6,6,6h102V8H8z" fill="url(#SVGID_2_)"/>
<path d="M8,39c-1.654,0-3-1.346-3-3V14c0-1.654,1.346-3,3-3h102V8H8  c-3.309,0-6,2.691-6,6v22c0,3.309,2.691,6,6,6h102v-3H8z" fill="#FFFFFF" fill-opacity="0.15" stroke-opacity="0.15"/>
<path d="M8,40c-2.206,0-4-1.795-4-4V14c0-2.206,1.794-4,4-4h102V8H8  c-3.309,0-6,2.691-6,6v22c0,3.309,2.691,6,6,6h102v-2H8z" fill="#FFFFFF" fill-opacity="0.15" stroke-opacity="0.15"/>
<path d="M8,41c-2.757,0-5-2.243-5-5V14c0-2.757,2.243-5,5-5h102V8H8  c-3.309,0-6,2.691-6,6v22c0,3.309,2.691,6,6,6h102v-1H8z" fill="#FFFFFF" fill-opacity="0.15" stroke-opacity="0.15"/>
<rect fill-opacity="0.3" height="34" stroke-opacity="0.3" width="1" x="109" y="8"/>
</svg>
