<?xml version="1.0" encoding="UTF-8"?>
<!DOCTYPE svg PUBLIC "-//W3C//DTD SVG 1.1 Tiny//EN" "http://www.w3.org/Graphics/SVG/1.1/DTD/svg11-tiny.dtd">
<svg baseProfile="tiny" height="60px" version="1.1" viewBox="0 0.001 360 60" width="360px" x="0px" xmlns="http://www.w3.org/2000/svg" xmlns:xlink="http://www.w3.org/1999/xlink" y="0px">
<linearGradient gradientUnits="userSpaceOnUse" id="SVGID_1_" x1="179.9995" x2="179.9995" y1="39.834" y2="59.834">
<stop offset="0" style="stop-color:#000000;stop-opacity:0"/>
<stop offset="1" style="stop-color:#000000"/>
</linearGradient>
<path d="M0,40c0,14.953,5.047,20,20,20h320c14.953,0,20-5.047,20-20H0z" fill="url(#SVGID_1_)" fill-opacity="0.3" stroke-opacity="0.3"/>
<path d="M360,20c0-14.953-5.047-20-20-20H20C5.047,0,0,5.047,0,20v19c0,14.953,5.047,20,20,20h320  c14.953,0,20-5.047,20-20V20z" fill="#FFFFFF"/>
<linearGradient gradientUnits="userSpaceOnUse" id="SVGID_2_" x1="179.9995" x2="179.9995" y1="0.8369" y2="57.7452">
<stop offset="0" style="stop-color:#FFFFFF"/>
<stop offset="1" style="stop-color:#EDEDED"/>
</linearGradient>
<path d="M20,58C5.617,58,1,53.383,1,39V20C1,5.617,5.617,1,20,1h320c14.383,0,19,4.617,19,19v19  c0,14.383-4.617,19-19,19H20z" fill="url(#SVGID_2_)"/>
</svg>
