<?xml version="1.0" encoding="UTF-8"?>
<!DOCTYPE svg PUBLIC "-//W3C//DTD SVG 1.1 Tiny//EN" "http://www.w3.org/Graphics/SVG/1.1/DTD/svg11-tiny.dtd">
<svg baseProfile="tiny" height="30" viewBox="0 0 30 30" width="30" xmlns="http://www.w3.org/2000/svg" xmlns:xlink="http://www.w3.org/1999/xlink">
<g>
<rect fill="none" height="30" width="30"/>
<linearGradient gradientUnits="userSpaceOnUse" id="SVGID_1_" x1="15.0005" x2="15.0005" y1="29" y2="1.0005">
<stop offset="0" style="stop-color:#FAFBFD;stop-opacity:0.35"/>
<stop offset="0.1818" style="stop-color:#FAFBFD;stop-opacity:0.15"/>
<stop offset="0.9267" style="stop-color:#FAFBFD;stop-opacity:0.4686"/>
<stop offset="1" style="stop-color:#FAFBFD;stop-opacity:0.5"/>
</linearGradient>
<rect fill="url(#SVGID_1_)" fill-opacity="0.8" height="28" stroke-opacity="0.8" width="28" x="1" y="1"/>
<polygon fill-opacity="0.2" points="2,2 2,28 3,28 3,4 27,4 27,28 28,28 28,2 " stroke-opacity="0.2"/>
<linearGradient gradientUnits="userSpaceOnUse" id="SVGID_2_" x1="1" x2="29" y1="15" y2="15">
<stop offset="0" style="stop-color:#FFFFFF;stop-opacity:0"/>
<stop offset="0.5" style="stop-color:#FFFFFF"/>
<stop offset="1" style="stop-color:#FFFFFF;stop-opacity:0"/>
</linearGradient>
<path d="M28,2v26H2V2H28 M29,1H1v28h28V1L29,1z" fill="url(#SVGID_2_)" fill-opacity="0.8" stroke-opacity="0.8"/>
<path d="M0,0v30h30V0H0z M29,29H1V1h28V29z" fill-opacity="0.15" stroke-opacity="0.15"/>
<linearGradient gradientUnits="userSpaceOnUse" id="SVGID_3_" x1="15.0005" x2="15.0005" y1="21.5" y2="8.5005">
<stop offset="0" style="stop-color:#FFFFFF"/>
<stop offset="0.4" style="stop-color:#C3D1D9"/>
<stop offset="1" style="stop-color:#FEFEFE"/>
</linearGradient>
<path d="M6,15.194l2.918-2.602l3.859,3.442c5.57-4.569,4.223-3.58,9.224-7.535L24,9.601  C18,15.421,12.915,21.5,12.915,21.5L6,15.194z" fill="url(#SVGID_3_)"/>
<linearGradient gradientUnits="userSpaceOnUse" id="SVGID_4_" x1="15.0005" x2="15.0005" y1="21.5" y2="8.5005">
<stop offset="0" style="stop-color:#FFFFFF;stop-opacity:0"/>
<stop offset="0.5" style="stop-color:#FFFFFF"/>
<stop offset="1" style="stop-color:#FFFFFF;stop-opacity:0"/>
</linearGradient>
<path d="M22.1,9.706l0.229,0.126c-4.301,4.259-8.028,8.51-9.503,10.225l-5.323-4.854l1.416-1.263l3.198,2.853  l0.635,0.566l0.657-0.54c2.119-1.738,3.239-2.674,4.088-3.382C18.809,12.34,19.45,11.805,22.1,9.706 M22.001,8.5  c-5.001,3.955-3.653,2.966-9.224,7.535l-3.859-3.442L6,15.194l6.915,6.306c0,0,5.085-6.079,11.085-11.899L22.001,8.5L22.001,8.5z" fill="url(#SVGID_4_)"/>
<rect fill-opacity="0.2" height="1" stroke-opacity="0.2" width="26" x="2" y="2"/>
</g>
</svg>
