<?xml version="1.0" encoding="UTF-8"?>
<!DOCTYPE svg PUBLIC "-//W3C//DTD SVG 1.1 Tiny//EN" "http://www.w3.org/Graphics/SVG/1.1/DTD/svg11-tiny.dtd">
<svg baseProfile="tiny" height="20px" version="1.1" viewBox="0 0 20 20" width="20px" x="0px" xmlns="http://www.w3.org/2000/svg" xmlns:xlink="http://www.w3.org/1999/xlink" y="0px">
<rect fill="none" height="20" width="20"/>
<rect fill="none" height="20" width="20"/>
<path d="M5.5,13.5C3.576,13.5,2,11.925,2,10s1.576-3.5,3.5-3.5H20v-2H5.5C2.467,4.5,0,6.967,0,10  s2.467,5.5,5.5,5.5H20v-2H5.5z" fill="#FFFFFF" fill-opacity="0.2" stroke-opacity="0.2"/>
<g fill-opacity="0.25" stroke-opacity="0.25">
<path d="M5.5,6.5C3.576,6.5,2,8.075,2,10s1.576,3.5,3.5,3.5H20v-7H5.5z"/>
</g>
<g fill-opacity="0.5" stroke-opacity="0.5">
<path d="M5.5,6.5C3.576,6.5,2,8.075,2,10c0,1.717,1.257,3.148,2.895,3.438C3.529,13.158,2.5,11.947,2.5,10.5c0-1.654,1.346-3,3-3   H20v-1H5.5z"/>
</g>
<g fill-opacity="0.1" stroke-opacity="0.1">
<path d="M5.5,12.5C4.122,12.5,2,11.379,2,10c0,1.925,1.576,3.5,3.5,3.5H20v-1H5.5z"/>
</g>
</svg>
