<?xml version="1.0" encoding="UTF-8"?>
<!DOCTYPE svg PUBLIC "-//W3C//DTD SVG 1.1 Tiny//EN" "http://www.w3.org/Graphics/SVG/1.1/DTD/svg11-tiny.dtd">
<svg baseProfile="tiny" height="50px" version="1.1" viewBox="0 0 110 50" width="110px" x="0px" xmlns="http://www.w3.org/2000/svg" xmlns:xlink="http://www.w3.org/1999/xlink" y="0px">
<rect fill="none" height="50" width="110"/>
<linearGradient gradientUnits="userSpaceOnUse" id="SVGID_1_" x1="55.0005" x2="55.0005" y1="44" y2="6.0005">
<stop offset="0" style="stop-color:#999999"/>
<stop offset="0.103" style="stop-color:#000000"/>
<stop offset="1" style="stop-color:#000000"/>
</linearGradient>
<path d="M8,6c-4.418,0-8,3.582-8,8v22c0,4.418,3.582,8,8,8h102V6H8z" fill="url(#SVGID_1_)" fill-opacity="0.25" stroke-opacity="0.25"/>
<path d="M8,7c-3.86,0-7,3.141-7,7v22c0,3.859,3.14,7,7,7h102V7H8z" fill-opacity="0.65" stroke-opacity="0.65"/>
<linearGradient gradientUnits="userSpaceOnUse" id="SVGID_2_" x1="56" x2="56" y1="41.7432" y2="8.0064">
<stop offset="0" style="stop-color:#999999"/>
<stop offset="1" style="stop-color:#CCCCCC;stop-opacity:0.95"/>
</linearGradient>
<path d="M8,8c-3.309,0-6,2.691-6,6v22c0,3.309,2.691,6,6,6h102V8  H8z" fill="url(#SVGID_2_)" fill-opacity="0.6" stroke-opacity="0.6"/>
<rect fill-opacity="0.15" height="34" stroke-opacity="0.15" width="1" x="109" y="8"/>
</svg>
