<?xml version="1.0" encoding="UTF-8"?>
<!DOCTYPE svg PUBLIC "-//W3C//DTD SVG 1.1 Tiny//EN" "http://www.w3.org/Graphics/SVG/1.1/DTD/svg11-tiny.dtd">
<svg baseProfile="tiny" height="10px" version="1.1" viewBox="0 0 10 10" width="10px" x="0px" xmlns="http://www.w3.org/2000/svg" xmlns:xlink="http://www.w3.org/1999/xlink" y="0px">
<rect fill="none" height="10" width="10"/>
<path d="M0,10h3c0-3.859,3.14-7,7-7V0C4.5,0,0,4.5,0,10z" fill="#FFFFFF" fill-opacity="0.2" stroke-opacity="0.2"/>
<path d="M2,10h1c0-3.859,3.14-7,7-7V2C5.589,2,2,5.589,2,10z" fill-opacity="0.55" stroke-opacity="0.55"/>
<path d="M3,10h7V3C6.14,3,3,6.141,3,10z" fill="#2C414D" fill-opacity="0.85" stroke-opacity="0.85"/>
<linearGradient gradientUnits="userSpaceOnUse" id="SVGID_1_" x1="6.5" x2="6.5" y1="97.001" y2="3.0612">
<stop offset="0" style="stop-color:#1C1C1C"/>
<stop offset="1" style="stop-color:#4A4A4A"/>
</linearGradient>
<path d="M3,10h7V3C6.14,3,3,6.141,3,10z" fill="url(#SVGID_1_)" fill-opacity="0.8" stroke-opacity="0.8"/>
<path d="M3,10h4c0-1.654,1.346-3,3-3V3C6.14,3,3,6.141,3,10z" fill="#FFFFFF" fill-opacity="0.05" stroke-opacity="0.05"/>
<path d="M3,10h3c0-2.206,1.794-4,4-4V3C6.14,3,3,6.141,3,10z" fill="#FFFFFF" fill-opacity="0.05" stroke-opacity="0.05"/>
<path d="M3,10h2c0-2.757,2.243-5,5-5V3C6.14,3,3,6.141,3,10z" fill="#FFFFFF" fill-opacity="0.15" stroke-opacity="0.15"/>
<linearGradient gradientUnits="userSpaceOnUse" id="SVGID_2_" x1="6.5" x2="6.5" y1="97.001" y2="3.155">
<stop offset="0" style="stop-color:#FFFFFF;stop-opacity:0.1"/>
<stop offset="1" style="stop-color:#FFFFFF;stop-opacity:0.6"/>
</linearGradient>
<path d="M3,10h1c0-3.309,2.691-6,6-6V3C6.14,3,3,6.141,3,10z" fill="url(#SVGID_2_)"/>
</svg>
