<?xml version="1.0" encoding="UTF-8"?>
<!DOCTYPE svg PUBLIC "-//W3C//DTD SVG 1.1 Tiny//EN" "http://www.w3.org/Graphics/SVG/1.1/DTD/svg11-tiny.dtd">
<svg baseProfile="tiny" height="60px" version="1.1" viewBox="0 0 90 60" width="90px" x="0px" xmlns="http://www.w3.org/2000/svg" xmlns:xlink="http://www.w3.org/1999/xlink" y="0px">
<rect fill="none" height="60" width="90"/>
<linearGradient gradientUnits="userSpaceOnUse" id="SVGID_1_" x1="45.0005" x2="45.0005" y1="53.9995" y2="6.0005">
<stop offset="0" style="stop-color:#999999"/>
<stop offset="0.103" style="stop-color:#000000"/>
<stop offset="1" style="stop-color:#000000"/>
</linearGradient>
<path d="M84,46c0,4.418-3.582,8-8,8H14c-4.418,0-8-3.582-8-8V14c0-4.418,3.582-8,8-8h62  c4.418,0,8,3.582,8,8V46z" fill="url(#SVGID_1_)" fill-opacity="0.25" stroke-opacity="0.25"/>
<path d="M14,53c-3.86,0-7-3.141-7-7V14c0-3.859,3.14-7,7-7h62c3.859,0,7,3.141,7,7v32  c0,3.859-3.141,7-7,7H14z" fill-opacity="0.65" stroke-opacity="0.65"/>
<linearGradient gradientUnits="userSpaceOnUse" id="SVGID_2_" x1="45.0005" x2="45.0005" y1="50.6675" y2="7.644">
<stop offset="0" style="stop-color:#999999"/>
<stop offset="1" style="stop-color:#CCCCCC;stop-opacity:0.95"/>
</linearGradient>
<path d="M14,52c-3.309,0-6-2.691-6-6V14c0-3.309,2.691-6,6-6h62  c3.309,0,6,2.691,6,6v32c0,3.309-2.691,6-6,6H14z" fill="url(#SVGID_2_)" fill-opacity="0.6" stroke-opacity="0.6"/>
</svg>
