<?xml version="1.0" encoding="UTF-8"?>
<!DOCTYPE svg PUBLIC "-//W3C//DTD SVG 1.1 Tiny//EN" "http://www.w3.org/Graphics/SVG/1.1/DTD/svg11-tiny.dtd">
<svg baseProfile="tiny" height="30px" version="1.1" viewBox="0 0 30 30" width="30px" x="0px" xmlns="http://www.w3.org/2000/svg" xmlns:xlink="http://www.w3.org/1999/xlink" y="0px">
<path d="M15,0C6.716,0,0,6.715,0,15c0,8.284,6.716,15,15,15s15-6.717,15-15  C30,6.715,23.284,0,15,0z M15,29c-7.731,0-14-6.27-14-14C1,7.268,7.269,1,15,1s14,6.268,14,14C29,22.731,22.731,29,15,29z" fill-opacity="0.4" stroke-opacity="0.4"/>
<circle cx="15" cy="15" fill="url(#SVGID_1_)" fill-opacity="0.6" r="14" stroke-opacity="0.6"/>
<circle cx="15" cy="15" fill="#999999" r="6"/>
<defs>
<linearGradient gradientUnits="userSpaceOnUse" id="SVGID_1_" x1="15.0005" x2="15.0005" y1="28.8579" y2="1.0473">
<stop offset="0" style="stop-color:#999999"/>
<stop offset="1" style="stop-color:#CCCCCC;stop-opacity:0.95"/>
</linearGradient>
</defs>
</svg>
