<?xml version="1.0" encoding="UTF-8"?>
<!DOCTYPE svg PUBLIC "-//W3C//DTD SVG 1.1 Tiny//EN" "http://www.w3.org/Graphics/SVG/1.1/DTD/svg11-tiny.dtd">
<svg baseProfile="tiny" height="60px" version="1.1" viewBox="0 0.167 360 60" width="360px" x="0px" xmlns="http://www.w3.org/2000/svg" xmlns:xlink="http://www.w3.org/1999/xlink" y="0px">
<path d="M360,20c0-14.953-5.047-20-20-20H20C5.047,0,0,5.047,0,20v19c0,14.953,5.047,20,20,20h320  c14.953,0,20-5.047,20-20V20z" fill="#1080DD"/>
<linearGradient gradientUnits="userSpaceOnUse" id="SVGID_1_" x1="180.0005" x2="180.0005" y1="58.8369" y2="0.3279">
<stop offset="0" style="stop-color:#FFFFFF"/>
<stop offset="1" style="stop-color:#FFFFFF;stop-opacity:0"/>
</linearGradient>
<path d="M360,20c0-14.953-5.047-20-20-20H20C5.047,0,0,5.047,0,20v19c0,14.953,5.047,20,20,20  h320c14.953,0,20-5.047,20-20V20z" fill="url(#SVGID_1_)" fill-opacity="0.15" stroke-opacity="0.15"/>
<linearGradient gradientUnits="userSpaceOnUse" id="SVGID_2_" x1="179.9995" x2="179.9995" y1="0.7026" y2="58.7251">
<stop offset="0" style="stop-color:#FFFFFF"/>
<stop offset="1" style="stop-color:#000000"/>
</linearGradient>
<path d="M340,0H20C5.047,0,0,5.047,0,20v19c0,14.953,5.047,20,20,20h320  c14.953,0,20-5.047,20-20V20C360,5.047,354.953,0,340,0z M359,39c0,14.383-4.617,19-19,19H20C5.617,58,1,53.383,1,39V20  C1,5.617,5.617,1,20,1h320c14.383,0,19,4.617,19,19V39z" fill="url(#SVGID_2_)" fill-opacity="0.1" stroke-opacity="0.1"/>
<rect fill="none" height="60" width="360" y="0.167"/>
</svg>
