<?xml version="1.0" encoding="UTF-8"?>
<!DOCTYPE svg PUBLIC "-//W3C//DTD SVG 1.1 Tiny//EN" "http://www.w3.org/Graphics/SVG/1.1/DTD/svg11-tiny.dtd">
<svg baseProfile="tiny" height="20px" version="1.1" viewBox="0 0 100 20" width="100px" x="0px" xmlns="http://www.w3.org/2000/svg" xmlns:xlink="http://www.w3.org/1999/xlink" y="0px">
<rect fill="none" height="20" width="100"/>
<path d="M99,10c0,1.656-1.344,3-3,3H4c-1.657,0-3-1.344-3-3l0,0c0-1.656,1.343-3,3-3h92  C97.656,7,99,8.344,99,10L99,10z" fill="url(#SVGID_1_)" fill-opacity="0.65" stroke-opacity="0.65"/>
<path d="M96,6H4c-2.209,0-4,1.791-4,4s1.791,4,4,4h92c2.209,0,4-1.791,4-4S98.209,6,96,6  z M96,13H4c-1.657,0-3-1.344-3-3s1.343-3,3-3h92c1.656,0,3,1.344,3,3S97.656,13,96,13z" fill-opacity="0.6" stroke-opacity="0.6"/>
<defs>
<linearGradient gradientUnits="userSpaceOnUse" id="SVGID_1_" x1="50.0005" x2="50.0005" y1="12.334" y2="6.7466">
<stop offset="0" style="stop-color:#999999"/>
<stop offset="1" style="stop-color:#666666"/>
</linearGradient>
</defs>
</svg>
