<?xml version="1.0" encoding="UTF-8"?>
<!DOCTYPE svg PUBLIC "-//W3C//DTD SVG 1.1 Tiny//EN" "http://www.w3.org/Graphics/SVG/1.1/DTD/svg11-tiny.dtd">
<svg baseProfile="tiny" height="30px" version="1.1" viewBox="0 0 30 30" width="30px" x="0px" xmlns="http://www.w3.org/2000/svg" xmlns:xlink="http://www.w3.org/1999/xlink" y="0px">
<path d="M15,0C6.716,0,0,6.717,0,15c0,8.285,6.716,15,15,15s15-6.715,15-15  C30,6.717,23.284,0,15,0z M15,29C7.269,29,1,22.732,1,15C1,7.27,7.269,1,15,1s14,6.27,14,14C29,22.732,22.731,29,15,29z" fill-opacity="0.65" stroke-opacity="0.65"/>
<circle cx="15" cy="15" fill="url(#SVGID_1_)" r="14"/>
<path d="M15,1C7.268,1,1,7.268,1,15s6.268,14,14,14s14-6.268,14-14  S22.732,1,15,1z M15,26C8.926,26,4,21.074,4,15S8.926,4,15,4s11,4.926,11,11S21.074,26,15,26z" fill="#FFFFFF" fill-opacity="0.15" stroke-opacity="0.15"/>
<path d="M15,1C7.268,1,1,7.268,1,15s6.268,14,14,14s14-6.268,14-14  S22.732,1,15,1z M15,27C8.373,27,3,21.627,3,15S8.373,3,15,3s12,5.373,12,12S21.627,27,15,27z" fill="#FFFFFF" fill-opacity="0.15" stroke-opacity="0.15"/>
<path d="M15,1C7.268,1,1,7.268,1,15s6.268,14,14,14s14-6.268,14-14  S22.732,1,15,1z M15,28C7.82,28,2,22.18,2,15S7.82,2,15,2s13,5.82,13,13S22.18,28,15,28z" fill="#FFFFFF" fill-opacity="0.15" stroke-opacity="0.15"/>
<defs>
<linearGradient gradientUnits="userSpaceOnUse" id="SVGID_1_" x1="14.9995" x2="14.9995" y1="0.667" y2="28.5336">
<stop offset="0" style="stop-color:#E6E6E6"/>
<stop offset="1" style="stop-color:#666666"/>
</linearGradient>
</defs>
</svg>
