<?xml version="1.0" encoding="utf-8"?>
<!-- Generator: Adobe Illustrator 14.0.0, SVG Export Plug-In  -->
<!DOCTYPE svg PUBLIC "-//W3C//DTD SVG 1.1//EN" "http://www.w3.org/Graphics/SVG/1.1/DTD/svg11.dtd" [
    <!ENTITY ns_flows "http://ns.adobe.com/Flows/1.0/">
]>
<svg version="1.1"
     xmlns="http://www.w3.org/2000/svg" xmlns:xlink="http://www.w3.org/1999/xlink" xmlns:a="http://ns.adobe.com/AdobeSVGViewerExtensions/3.0/"
     x="0px" y="0px" width="84px" height="42px" viewBox="0 0 84 42" enable-background="new 0 0 84 42" xml:space="preserve">
<defs>
</defs>
<path opacity="0.65" enable-background="new    " d="M77,0H7C3.14,0,0,3.141,0,7v28c0,3.859,3.14,7,7,7h70c3.859,0,7-3.141,7-7V7
    C84,3.141,80.859,0,77,0z M83,35c0,3.309-2.691,6-6,6H7c-3.309,0-6-2.691-6-6V7c0-3.309,2.691-6,6-6h70c3.309,0,6,2.691,6,6V35z"/>
<linearGradient id="SVGID_1_" gradientUnits="userSpaceOnUse" x1="42.0005" y1="41.3911" x2="42.0005" y2="1.55">
    <stop  offset="0" style="stop-color:#86C7FF"/>
    <stop  offset="0.7" style="stop-color:#C1C1C1"/>
    <stop  offset="1" style="stop-color:#7F8F86"/>
</linearGradient>
<path fill="url(#SVGID_1_)" d="M7,41c-3.309,0-6-2.691-6-6V7c0-3.309,2.691-6,6-6h70c3.309,0,6,2.691,6,6v28c0,3.309-2.691,6-6,6H7z
    "/>
<path opacity="0.15" fill="#FFFFFF" enable-background="new    " d="M77,1H7C3.691,1,1,3.691,1,7v28c0,3.309,2.691,6,6,6h70
    c3.309,0,6-2.691,6-6V7C83,3.691,80.309,1,77,1z M80,35c0,1.654-1.346,3-3,3H7c-1.654,0-3-1.346-3-3V7c0-1.654,1.346-3,3-3h70
    c1.654,0,3,1.346,3,3V35z"/>
<path opacity="0.15" fill="#FFFFFF" enable-background="new    " d="M77,1H7C3.691,1,1,3.691,1,7v28c0,3.309,2.691,6,6,6h70
    c3.309,0,6-2.691,6-6V7C83,3.691,80.309,1,77,1z M81,35c0,2.207-1.795,4-4,4H7c-2.206,0-4-1.793-4-4V7c0-2.205,1.794-4,4-4h70
    c2.205,0,4,1.795,4,4V35z"/>
<path opacity="0.15" fill="#FFFFFF" enable-background="new    " d="M77,1H7C3.691,1,1,3.691,1,7v28c0,3.309,2.691,6,6,6h70
    c3.309,0,6-2.691,6-6V7C83,3.691,80.309,1,77,1z M82,35c0,2.758-2.243,5-5,5H7c-2.757,0-5-2.242-5-5V7c0-2.756,2.243-5,5-5h70
    c2.757,0,5,2.244,5,5V35z"/>
</svg>
