<?xml version="1.0" encoding="UTF-8"?>
<!DOCTYPE svg PUBLIC "-//W3C//DTD SVG 1.1 Tiny//EN" "http://www.w3.org/Graphics/SVG/1.1/DTD/svg11-tiny.dtd">
<svg baseProfile="tiny" height="40px" version="1.1" viewBox="0 0 80 40" width="80px" x="0px" xmlns="http://www.w3.org/2000/svg" xmlns:xlink="http://www.w3.org/1999/xlink" y="0px">
<path d="M20,40C5.047,40,0,34.953,0,20C0,5.047,5.047,0,20,0h40c14.951,0,20,5.047,20,20c0,14.953-5.049,20-20,20H20  z" fill="#CCCCCC"/>
<path d="M20,39C5.617,39,1,34.383,1,20S5.617,1,20,1h40c14.383,0,19,4.617,19,19s-4.617,19-19,19H20z" fill="url(#SVGID_1_)"/>
<defs>
<linearGradient gradientUnits="userSpaceOnUse" id="SVGID_1_" x1="39.9995" x2="39.9995" y1="1" y2="39.1067">
<stop offset="0" style="stop-color:#FFFFFF"/>
<stop offset="1" style="stop-color:#EDEDED"/>
</linearGradient>
</defs>
</svg>
