<?xml version="1.0" encoding="UTF-8"?>
<!DOCTYPE svg PUBLIC "-//W3C//DTD SVG 1.1 Tiny//EN" "http://www.w3.org/Graphics/SVG/1.1/DTD/svg11-tiny.dtd">
<svg baseProfile="tiny" height="30px" version="1.1" viewBox="0 0 30 30" width="30px" x="0px" xmlns="http://www.w3.org/2000/svg" xmlns:xlink="http://www.w3.org/1999/xlink" y="0px">
<path d="M15,30c11.113,0,15-3.886,15-15C30,3.889,26.113,0,15,0C3.891,0,0,3.889,0,15  C0,26.114,3.891,30,15,30z M15,2.813c9.568,0,12.188,2.62,12.188,12.188c0,9.568-2.619,12.188-12.188,12.188S2.813,24.568,2.813,15  C2.813,5.433,5.432,2.813,15,2.813z" fill="#3C3C3C" fill-opacity="0.6" stroke-opacity="0.6"/>
<radialGradient cx="-183.7949" cy="5239.3164" gradientTransform="matrix(-0.9687 0 0 -0.9688 -173.0513 5103.7109)" gradientUnits="userSpaceOnUse" id="SVGID_1_" r="28.3423">
<stop offset="0" style="stop-color:#FFFFFF"/>
<stop offset="1" style="stop-color:#FFFFFF;stop-opacity:0"/>
</radialGradient>
<path d="M15,30c11.113,0,15-3.886,15-15C30,3.889,26.113,0,15,0C3.891,0,0,3.889,0,15  C0,26.114,3.891,30,15,30z M15,2.813c9.568,0,12.188,2.62,12.188,12.188c0,9.568-2.619,12.188-12.188,12.188S2.813,24.568,2.813,15  C2.813,5.433,5.432,2.813,15,2.813z" fill="url(#SVGID_1_)"/>
</svg>
