<?xml version="1.0" encoding="UTF-8"?>
<!DOCTYPE svg PUBLIC "-//W3C//DTD SVG 1.1 Tiny//EN" "http://www.w3.org/Graphics/SVG/1.1/DTD/svg11-tiny.dtd">
<svg baseProfile="tiny" height="30px" version="1.1" viewBox="0 -0.001 30 30" width="30px" x="0px" xmlns="http://www.w3.org/2000/svg" xmlns:xlink="http://www.w3.org/1999/xlink" y="0px">
<rect fill="none" fill-rule="evenodd" height="29.999" width="30"/>
<path d="M4.5,24.499c-1.378,0-2.5-1.121-2.5-2.5c0-1.377,1.122-2.5,2.5-2.5  h21c1.378,0,2.5,1.123,2.5,2.5c0,1.379-1.122,2.5-2.5,2.5H4.5z M4.5,17.499C3.122,17.499,2,16.378,2,15c0-1.378,1.122-2.5,2.5-2.5  h21c1.378,0,2.5,1.122,2.5,2.5c0,1.378-1.122,2.499-2.5,2.499H4.5z M4.5,10.5C3.122,10.5,2,9.378,2,8s1.122-2.5,2.5-2.5h21  C26.878,5.5,28,6.622,28,8s-1.122,2.5-2.5,2.5H4.5z" fill="#FFFFFF" fill-rule="evenodd"/>
<path d="M4.5,9.5h21C26.329,9.5,27,8.828,27,8s-0.672-1.5-1.5-1.5  h-21C3.671,6.5,3,7.172,3,8S3.671,9.5,4.5,9.5z M25.5,13.5h-21C3.671,13.5,3,14.172,3,15s0.671,1.499,1.5,1.499h21  c0.828,0,1.5-0.671,1.5-1.499S26.329,13.5,25.5,13.5z M25.5,20.499h-21c-0.829,0-1.5,0.672-1.5,1.5s0.671,1.5,1.5,1.5h21  c0.828,0,1.5-0.672,1.5-1.5S26.329,20.499,25.5,20.499z" fill="url(#SVGID_1_)" fill-rule="evenodd"/>
<defs>
<linearGradient gradientUnits="userSpaceOnUse" id="SVGID_1_" x1="15" x2="15" y1="6.3198" y2="23.2401">
<stop offset="0" style="stop-color:#496DA2"/>
<stop offset="0.9888" style="stop-color:#235487"/>
<stop offset="1" style="stop-color:#235487"/>
</linearGradient>
</defs>
</svg>
