<?xml version="1.0" encoding="UTF-8"?>
<!DOCTYPE svg PUBLIC "-//W3C//DTD SVG 1.1 Tiny//EN" "http://www.w3.org/Graphics/SVG/1.1/DTD/svg11-tiny.dtd">
<svg baseProfile="tiny" height="40px" version="1.1" viewBox="0 0 300 40" width="300px" x="0px" xmlns="http://www.w3.org/2000/svg" xmlns:xlink="http://www.w3.org/1999/xlink" y="0px">
<path d="M293,0H7C3.141,0,0,3.141,0,7v26c0,3.859,3.141,7,7,7h286c3.859,0,7-3.141,7-7V7  C300,3.141,296.859,0,293,0z M299,33c0,3.309-2.691,6-6,6H7c-3.309,0-6-2.691-6-6V7c0-3.309,2.691-6,6-6h286c3.309,0,6,2.691,6,6V33  z" fill-opacity="0.4" stroke-opacity="0.4"/>
<path d="M7,39c-3.309,0-6-2.691-6-6V7c0-3.309,2.691-6,6-6h286c3.309,0,6,2.691,6,6v26c0,3.309-2.691,6-6,6H7z" fill="#CCCCCC"/>
</svg>
