<?xml version="1.0" encoding="UTF-8"?>
<!DOCTYPE svg PUBLIC "-//W3C//DTD SVG 1.1 Tiny//EN" "http://www.w3.org/Graphics/SVG/1.1/DTD/svg11-tiny.dtd">
<svg baseProfile="tiny" height="60px" version="1.1" viewBox="0 0 336 60" width="336px" x="0px" xmlns="http://www.w3.org/2000/svg" xmlns:xlink="http://www.w3.org/1999/xlink" y="0px">
<path d="M329,0H7C3.141,0,0,3.141,0,7v46c0,3.859,3.141,7,7,7h322c3.859,0,7-3.141,7-7  V7C336,3.141,332.859,0,329,0z M335,53c0,3.309-2.691,6-6,6H7c-3.309,0-6-2.691-6-6V7c0-3.309,2.691-6,6-6h322c3.309,0,6,2.691,6,6  V53z" fill-opacity="0.65" stroke-opacity="0.65"/>
<path d="M7,59c-3.309,0-6-2.691-6-6V7c0-3.309,2.691-6,6-6h322c3.309,0,6,2.691,6,6v46c0,3.309-2.691,6-6,6H7  z" fill="url(#SVGID_1_)"/>
<path d="M329,1H7C3.691,1,1,3.691,1,7v46c0,3.309,2.691,6,6,6h322  c3.309,0,6-2.691,6-6V7C335,3.691,332.309,1,329,1z M332,53c0,1.654-1.346,3-3,3H7c-1.654,0-3-1.346-3-3V7c0-1.654,1.346-3,3-3h322  c1.654,0,3,1.346,3,3V53z" fill="#FFFFFF" fill-opacity="0.15" stroke-opacity="0.15"/>
<path d="M329,1H7C3.691,1,1,3.691,1,7v46c0,3.309,2.691,6,6,6h322  c3.309,0,6-2.691,6-6V7C335,3.691,332.309,1,329,1z M333,53c0,2.207-1.795,4-4,4H7c-2.205,0-4-1.793-4-4V7c0-2.205,1.795-4,4-4h322  c2.205,0,4,1.795,4,4V53z" fill="#FFFFFF" fill-opacity="0.15" stroke-opacity="0.15"/>
<path d="M329,1H7C3.691,1,1,3.691,1,7v46c0,3.309,2.691,6,6,6h322  c3.309,0,6-2.691,6-6V7C335,3.691,332.309,1,329,1z M334,53c0,2.758-2.243,5-5,5H7c-2.757,0-5-2.242-5-5V7c0-2.756,2.243-5,5-5h322  c2.757,0,5,2.244,5,5V53z" fill="#FFFFFF" fill-opacity="0.15" stroke-opacity="0.15"/>
<defs>
<linearGradient gradientUnits="userSpaceOnUse" id="SVGID_1_" x1="167.9995" x2="167.9995" y1="1.1646" y2="59.0012">
<stop offset="0" style="stop-color:#F2F2F2"/>
<stop offset="1" style="stop-color:#E6E6E6"/>
</linearGradient>
</defs>
</svg>
