<?xml version="1.0" encoding="UTF-8"?>
<!DOCTYPE svg PUBLIC "-//W3C//DTD SVG 1.1 Tiny//EN" "http://www.w3.org/Graphics/SVG/1.1/DTD/svg11-tiny.dtd">
<svg baseProfile="tiny" height="30px" version="1.1" viewBox="0 0.001 30 30" width="30px" x="0px" xmlns="http://www.w3.org/2000/svg" xmlns:xlink="http://www.w3.org/1999/xlink" y="0px">
<path d="M23,0H7C3.14,0,0,3.141,0,7v16c0,3.859,3.14,7,7,7h16c3.859,0,7-3.141,7-7V7  C30,3.141,26.859,0,23,0z M29,23c0,3.309-2.691,6-6,6H7c-3.309,0-6-2.691-6-6V7c0-3.309,2.691-6,6-6h16c3.309,0,6,2.691,6,6V23z" fill-opacity="0.65" stroke-opacity="0.65"/>
<path d="M7,29c-3.309,0-6-2.691-6-6V7c0-3.309,2.691-6,6-6h16  c3.309,0,6,2.691,6,6v16c0,3.309-2.691,6-6,6H7z" fill="url(#SVGID_1_)" fill-opacity="0.6" stroke-opacity="0.6"/>
<path d="M23,1H7C3.691,1,1,3.691,1,7v16c0,3.309,2.691,6,6,6h16  c3.309,0,6-2.691,6-6V7C29,3.691,26.309,1,23,1z M26,23c0,1.654-1.346,3-3,3H7c-1.654,0-3-1.346-3-3V7c0-1.654,1.346-3,3-3h16  c1.654,0,3,1.346,3,3V23z" fill="#FFFFFF" fill-opacity="0.15" stroke-opacity="0.15"/>
<path d="M23,1H7C3.691,1,1,3.691,1,7v16c0,3.309,2.691,6,6,6h16  c3.309,0,6-2.691,6-6V7C29,3.691,26.309,1,23,1z M27,23c0,2.206-1.795,4-4,4H7c-2.206,0-4-1.794-4-4V7c0-2.205,1.794-4,4-4h16  c2.205,0,4,1.795,4,4V23z" fill="#FFFFFF" fill-opacity="0.15" stroke-opacity="0.15"/>
<path d="M23,1H7C3.691,1,1,3.691,1,7v16c0,3.309,2.691,6,6,6h16  c3.309,0,6-2.691,6-6V7C29,3.691,26.309,1,23,1z M28,23c0,2.757-2.243,5-5,5H7c-2.757,0-5-2.243-5-5V7c0-2.756,2.243-5,5-5h16  c2.757,0,5,2.244,5,5V23z" fill="#FFFFFF" fill-opacity="0.15" stroke-opacity="0.15"/>
<defs>
<linearGradient gradientUnits="userSpaceOnUse" id="SVGID_1_" x1="14.9995" x2="14.9995" y1="1.0796" y2="29.001">
<stop offset="0" style="stop-color:#CCCCCC"/>
<stop offset="1" style="stop-color:#333333"/>
</linearGradient>
</defs>
</svg>
