<?xml version="1.0" encoding="UTF-8"?>
<!DOCTYPE svg PUBLIC "-//W3C//DTD SVG 1.1 Tiny//EN" "http://www.w3.org/Graphics/SVG/1.1/DTD/svg11-tiny.dtd">
<svg baseProfile="tiny" height="30px" version="1.1" viewBox="-0.06 0 30 30" width="30px" x="0px" xmlns="http://www.w3.org/2000/svg" xmlns:xlink="http://www.w3.org/1999/xlink" y="0px">
<path d="M15,0C3.888,0,0,3.887,0,15c0,11.112,3.888,15,15,15c11.11,0,15-3.888,15-15  C30,3.887,26.11,0,15,0z M15,27.188C5.432,27.188,2.813,24.568,2.813,15C2.813,5.433,5.432,2.813,15,2.813  c9.569,0,12.188,2.62,12.188,12.188C27.188,24.568,24.569,27.188,15,27.188z" fill="#3C3C3C" fill-opacity="0.6" stroke-opacity="0.6"/>
<radialGradient cx="25.0005" cy="1.877" gradientUnits="userSpaceOnUse" id="SVGID_1_" r="27.4565">
<stop offset="0" style="stop-color:#FFFFFF"/>
<stop offset="1" style="stop-color:#FFFFFF;stop-opacity:0"/>
</radialGradient>
<path d="M15,0C3.888,0,0,3.887,0,15c0,11.112,3.888,15,15,15c11.11,0,15-3.888,15-15C30,3.887,26.11,0,15,0z   M15,27.188C5.432,27.188,2.813,24.568,2.813,15C2.813,5.433,5.432,2.813,15,2.813c9.569,0,12.188,2.62,12.188,12.188  C27.188,24.568,24.569,27.188,15,27.188z" fill="url(#SVGID_1_)"/>
</svg>
