<?xml version="1.0" encoding="UTF-8"?>
<!DOCTYPE svg PUBLIC "-//W3C//DTD SVG 1.1 Tiny//EN" "http://www.w3.org/Graphics/SVG/1.1/DTD/svg11-tiny.dtd">
<svg baseProfile="tiny" height="34px" version="1.1" viewBox="0 0 56 34" width="56px" x="0px" xmlns="http://www.w3.org/2000/svg" xmlns:xlink="http://www.w3.org/1999/xlink" y="0px">
<path d="M49,1H7C3.691,1,1,3.691,1,7v20c0,3.309,2.691,6,6,6h42c3.309,0,6-2.691,6-6V7  C55,3.691,52.309,1,49,1z" fill="url(#SVGID_1_)"/>
<path d="M1,7v1c0-2.756,2.243-5,5-5h44c2.757,0,5,2.244,5,5V7c0-3.309-2.691-6-6-6H7C3.691,1,1,3.691,1,7z" fill-opacity="0.15" stroke-opacity="0.15"/>
<path d="M6,2h44c2.757,0,5,2.244,5,5c0-3.309-2.691-6-6-6H7C3.691,1,1,3.691,1,7C1,4.244,3.243,2,6,2z" fill-opacity="0.15" stroke-opacity="0.15"/>
<path d="M50,32H6c-2.757,0-5-2.242-5-5c0,3.309,2.691,6,6,6h42c3.309,0,6-2.691,6-6  C55,29.758,52.757,32,50,32z" fill="#FFFFFF" fill-opacity="0.65" stroke-opacity="0.65"/>
<rect fill="none" height="34" width="56"/>
<defs>
<linearGradient gradientUnits="userSpaceOnUse" id="SVGID_1_" x1="28.0005" x2="28.0005" y1="33.7363" y2="1.3171">
<stop offset="0" style="stop-color:#5ACF8A"/>
<stop offset="1" style="stop-color:#00B54A"/>
</linearGradient>
</defs>
</svg>
