<?xml version="1.0" encoding="utf-8"?>
<!-- Generator: Adobe Illustrator 14.0.0, SVG Export Plug-In  -->
<!DOCTYPE svg PUBLIC "-//W3C//DTD SVG 1.1//EN" "http://www.w3.org/Graphics/SVG/1.1/DTD/svg11.dtd" [
    <!ENTITY ns_flows "http://ns.adobe.com/Flows/1.0/">
]>
<svg version="1.1"
     xmlns="http://www.w3.org/2000/svg" xmlns:xlink="http://www.w3.org/1999/xlink" xmlns:a="http://ns.adobe.com/AdobeSVGViewerExtensions/3.0/"
     x="0px" y="0px" width="84px" height="42px" viewBox="0 0 84 42" enable-background="new 0 0 84 42" xml:space="preserve">
<defs>
</defs>
<linearGradient id="SVGID_1_" gradientUnits="userSpaceOnUse" x1="-1189.5" y1="40.5" x2="-1189.5" y2="1.6032" gradientTransform="matrix(-1 0 0 1 -1148 0)">
    <stop  offset="0" style="stop-color:#86C7FF"/>
    <stop  offset="0.7" style="stop-color:#C1C1C1"/>
    <stop  offset="1" style="stop-color:#7F8F86"/>
</linearGradient>
<path fill="url(#SVGID_1_)" d="M77,1c3.309,0,6,2.691,6,6v28c0,3.309-2.691,6-6,6H0V1H77z"/>
<path opacity="0.15" fill="#FFFFFF" enable-background="new    " d="M77,38c1.654,0,3-1.346,3-3V7c0-1.654-1.346-3-3-3H0V1h77
    c3.309,0,6,2.691,6,6v28c0,3.309-2.691,6-6,6H0v-3H77z"/>
<path opacity="0.15" fill="#FFFFFF" enable-background="new    " d="M77,39c2.205,0,4-1.795,4-4V7c0-2.205-1.795-4-4-4H0V1h77
    c3.309,0,6,2.691,6,6v28c0,3.309-2.691,6-6,6H0v-2H77z"/>
<path opacity="0.15" fill="#FFFFFF" enable-background="new    " d="M77,40c2.757,0,5-2.243,5-5V7c0-2.757-2.243-5-5-5H0V1h77
    c3.309,0,6,2.691,6,6v28c0,3.309-2.691,6-6,6H0v-1H77z"/>
<rect y="1" opacity="0.3" fill="#FFFFFF" width="1" height="40"/>
<path opacity="0.65" enable-background="new    " d="M77,0H0v1h77c3.309,0,6,2.691,6,6v28c0,3.309-2.691,6-6,6H0v1h77
    c3.859,0,7-3.141,7-7V7C84,3.141,80.859,0,77,0z"/>
</svg>
