<?xml version="1.0" encoding="UTF-8"?>
<!DOCTYPE svg PUBLIC "-//W3C//DTD SVG 1.1 Tiny//EN" "http://www.w3.org/Graphics/SVG/1.1/DTD/svg11-tiny.dtd">
<svg baseProfile="tiny" height="30px" version="1.1" viewBox="0 0 30 30" width="30px" x="0px" xmlns="http://www.w3.org/2000/svg" xmlns:xlink="http://www.w3.org/1999/xlink" y="0px">
<path d="M23,0H7C3.14,0,0,3.141,0,7v16c0,3.859,3.14,7,7,7h16c3.859,0,7-3.141,7-7V7  C30,3.141,26.859,0,23,0z M29,23c0,3.309-2.691,6-6,6H7c-3.309,0-6-2.691-6-6V7c0-3.309,2.691-6,6-6h16c3.309,0,6,2.691,6,6V23z" fill-opacity="0.4" stroke-opacity="0.4"/>
<path d="M7,29c-3.309,0-6-2.691-6-6V7c0-3.309,2.691-6,6-6h16  c3.309,0,6,2.691,6,6v16c0,3.309-2.691,6-6,6H7z" fill="url(#SVGID_1_)" fill-opacity="0.6" stroke-opacity="0.6"/>
<defs>
<linearGradient gradientUnits="userSpaceOnUse" id="SVGID_1_" x1="15.0005" x2="15.0005" y1="28.8926" y2="0.8931">
<stop offset="0" style="stop-color:#999999"/>
<stop offset="1" style="stop-color:#CCCCCC;stop-opacity:0.95"/>
</linearGradient>
</defs>
</svg>
