<?xml version="1.0" encoding="UTF-8"?>
<!DOCTYPE svg PUBLIC "-//W3C//DTD SVG 1.1 Tiny//EN" "http://www.w3.org/Graphics/SVG/1.1/DTD/svg11-tiny.dtd">
<svg baseProfile="tiny" height="30px" version="1.1" viewBox="0 0 30 30" width="30px" x="0px" xmlns="http://www.w3.org/2000/svg" xmlns:xlink="http://www.w3.org/1999/xlink" y="0px">
<g>
<rect fill="none" height="30" width="30"/>
</g>
<path d="M26,27c-0.256,0-0.512-0.098-0.707-0.293l-22-22c-0.391-0.391-0.391-1.023,0-1.414s1.023-0.391,1.414,0  l22,22c0.391,0.391,0.391,1.023,0,1.414C26.512,26.902,26.256,27,26,27L26,27z" fill="#FFFFFF"/>
<path d="M4,27c-0.256,0-0.512-0.098-0.707-0.293c-0.391-0.391-0.391-1.023,0-1.414l22-22  c0.391-0.391,1.023-0.391,1.414,0s0.391,1.023,0,1.414l-22,22C4.512,26.902,4.256,27,4,27L4,27z" fill="#FFFFFF"/>
</svg>
