<?xml version="1.0" encoding="UTF-8"?>
<!DOCTYPE svg PUBLIC "-//W3C//DTD SVG 1.1 Tiny//EN" "http://www.w3.org/Graphics/SVG/1.1/DTD/svg11-tiny.dtd">
<svg baseProfile="tiny" height="30px" version="1.1" viewBox="-0.001 0 30 30" width="30px" x="0px" xmlns="http://www.w3.org/2000/svg" xmlns:xlink="http://www.w3.org/1999/xlink" y="0px">
<path d="M16.688,3.954l-2.121,2.121c-0.391,0.391-0.393,1.023,0,1.415l7.777,7.777  l-7.242,7.242c-0.391,0.392-0.391,1.025,0,1.415l2.121,2.121c0.391,0.39,1.023,0.391,1.414,0l10.07-10.071  C28.902,15.779,29,15.523,29,15.268s-0.098-0.512-0.293-0.707L18.102,3.954C17.711,3.563,17.078,3.563,16.688,3.954z" fill-opacity="0.65" stroke-opacity="0.65"/>
<rect fill="none" height="30" width="30"/>
<path d="M29.414,13.854L18.81,3.248  c-0.378-0.379-0.88-0.587-1.415-0.587c-0.534,0-1.036,0.208-1.414,0.586l-2.121,2.121c-0.379,0.379-0.587,0.882-0.587,1.416  c0.001,0.534,0.209,1.036,0.587,1.413l7.07,7.07l-6.536,6.536c-0.377,0.378-0.585,0.88-0.585,1.414c0,0.535,0.208,1.038,0.586,1.414  l2.122,2.122c0.378,0.377,0.88,0.585,1.413,0.585c0.001,0,0.001,0,0.001,0c0.533,0,1.035-0.208,1.413-0.586l10.07-10.071  C29.792,16.304,30,15.802,30,15.268S29.792,14.231,29.414,13.854z M28.707,15.975l-10.07,10.071c-0.391,0.391-1.023,0.39-1.414,0  l-2.121-2.121c-0.391-0.39-0.391-1.023,0-1.415l7.242-7.242L14.566,7.49c-0.393-0.392-0.391-1.024,0-1.415l2.121-2.121  c0.391-0.391,1.023-0.392,1.414,0l10.605,10.606C28.902,14.756,29,15.012,29,15.268S28.902,15.779,28.707,15.975z" fill="#FFFFFF" fill-opacity="0.65" stroke-opacity="0.65"/>
</svg>
