<?xml version="1.0" encoding="UTF-8"?>
<!DOCTYPE svg PUBLIC "-//W3C//DTD SVG 1.1 Tiny//EN" "http://www.w3.org/Graphics/SVG/1.1/DTD/svg11-tiny.dtd">
<svg baseProfile="tiny" height="30px" version="1.1" viewBox="0 0 30 30" width="30px" x="0px" xmlns="http://www.w3.org/2000/svg" xmlns:xlink="http://www.w3.org/1999/xlink" y="0px">
<rect fill="none" fill-rule="evenodd" height="30" width="30"/>
<path d="M13.334,26c-0.782,0-1.535-0.283-2.122-0.799l-8.887-7.775c-0.7-0.611-1.101-1.496-1.101-2.425  c0-0.931,0.401-1.814,1.101-2.424L11.201,4.8c0.587-0.515,1.341-0.799,2.124-0.799c0.454,0,0.913,0.099,1.328,0.286  c1.148,0.521,1.891,1.672,1.895,2.932l0.002,2.337h9.006c1.777,0,3.223,1.446,3.223,3.223v4.444c0,1.776-1.445,3.223-3.223,3.223h-9  l0.002,2.328c0,1.264-0.743,2.416-1.892,2.938C14.255,25.898,13.793,26,13.334,26L13.334,26z" fill="#FFFFFF"/>
<path d="M2.983,16.673l8.888,7.775C12.283,24.81,12.806,25,13.334,25c0.311,0,0.625-0.066,0.918-0.201  c0.793-0.359,1.304-1.15,1.304-2.023l-0.002-3.33h10c1.227,0,2.223-0.996,2.223-2.223v-4.444c0-1.227-0.996-2.223-2.223-2.223  H15.548l-0.002-3.335c-0.002-0.871-0.512-1.662-1.306-2.022c-0.292-0.132-0.605-0.197-0.916-0.197c-0.529,0-1.052,0.188-1.465,0.551  l-8.878,7.777C2.499,13.75,2.224,14.36,2.224,15C2.224,15.642,2.5,16.25,2.983,16.673z" fill="url(#SVGID_1_)"/>
<defs>
<linearGradient gradientUnits="userSpaceOnUse" id="SVGID_1_" x1="15" x2="15" y1="4.5801" y2="25.0521">
<stop offset="0" style="stop-color:#496DA2"/>
<stop offset="0.9888" style="stop-color:#235487"/>
<stop offset="1" style="stop-color:#235487"/>
</linearGradient>
</defs>
</svg>
