<?xml version="1.0" encoding="UTF-8"?>
<!DOCTYPE svg PUBLIC "-//W3C//DTD SVG 1.1 Tiny//EN" "http://www.w3.org/Graphics/SVG/1.1/DTD/svg11-tiny.dtd">
<svg baseProfile="tiny" height="10px" version="1.1" viewBox="0 0 10 10" width="10px" x="0px" xmlns="http://www.w3.org/2000/svg" xmlns:xlink="http://www.w3.org/1999/xlink" y="0px">
<rect fill="none" height="10" width="10"/>
<path d="M7,0c0,3.859-3.141,7-7,7v3c5.5,0,10-4.5,10-10H7z" fill="#FFFFFF" fill-opacity="0.2" stroke-opacity="0.2"/>
<path d="M7,0c0,3.859-3.141,7-7,7v1c4.411,0,8-3.589,8-8H7z" fill-opacity="0.55" stroke-opacity="0.55"/>
<path d="M0,0v7c3.859,0,7-3.141,7-7H0z" fill="#2C414D" fill-opacity="0.85" stroke-opacity="0.85"/>
<linearGradient gradientUnits="userSpaceOnUse" id="SVGID_1_" x1="3.5" x2="3.5" y1="7" y2="-86.9398">
<stop offset="0" style="stop-color:#1C1C1C"/>
<stop offset="1" style="stop-color:#4A4A4A"/>
</linearGradient>
<path d="M0,0v7c3.859,0,7-3.141,7-7H0z" fill="url(#SVGID_1_)" fill-opacity="0.8" stroke-opacity="0.8"/>
<path d="M3,0c0,1.654-1.346,3-3,3v4c3.859,0,7-3.141,7-7H3z" fill="#FFFFFF" fill-opacity="0.05" stroke-opacity="0.05"/>
<path d="M4,0c0,2.206-1.795,4-4,4v3c3.859,0,7-3.141,7-7H4z" fill="#FFFFFF" fill-opacity="0.05" stroke-opacity="0.05"/>
<path d="M5,0c0,2.757-2.243,5-5,5v2c3.859,0,7-3.141,7-7H5z" fill="#FFFFFF" fill-opacity="0.15" stroke-opacity="0.15"/>
<linearGradient gradientUnits="userSpaceOnUse" id="SVGID_2_" x1="3.5" x2="3.5" y1="7" y2="-86.846">
<stop offset="0" style="stop-color:#FFFFFF;stop-opacity:0.1"/>
<stop offset="1" style="stop-color:#FFFFFF;stop-opacity:0.6"/>
</linearGradient>
<path d="M6,0c0,3.309-2.691,6-6,6v1c3.859,0,7-3.141,7-7H6z" fill="url(#SVGID_2_)"/>
</svg>
