<?xml version="1.0" encoding="utf-8"?>
<!-- Generator: Adobe Illustrator 14.0.0, SVG Export Plug-In  -->
<!DOCTYPE svg PUBLIC "-//W3C//DTD SVG 1.1//EN" "http://www.w3.org/Graphics/SVG/1.1/DTD/svg11.dtd" [
    <!ENTITY ns_flows "http://ns.adobe.com/Flows/1.0/">
]>
<svg version="1.1"
     xmlns="http://www.w3.org/2000/svg" xmlns:xlink="http://www.w3.org/1999/xlink" xmlns:a="http://ns.adobe.com/AdobeSVGViewerExtensions/3.0/"
     x="0px" y="0px" width="84px" height="42px" viewBox="0 0 84 42" enable-background="new 0 0 84 42" xml:space="preserve">
<defs>
</defs>
<linearGradient id="SVGID_1_" gradientUnits="userSpaceOnUse" x1="42.5005" y1="40.5" x2="42.5005" y2="1.6032">
    <stop  offset="0" style="stop-color:#86C7FF"/>
    <stop  offset="0.7" style="stop-color:#C1C1C1"/>
    <stop  offset="1" style="stop-color:#7F8F86"/>
</linearGradient>
<path fill="url(#SVGID_1_)" d="M7,1C3.691,1,1,3.691,1,7v28c0,3.309,2.691,6,6,6h77V1H7z"/>
<path opacity="0.15" fill="#FFFFFF" enable-background="new    " d="M7,38c-1.654,0-3-1.346-3-3V7c0-1.654,1.346-3,3-3h77V1H7
    C3.691,1,1,3.691,1,7v28c0,3.309,2.691,6,6,6h77v-3H7z"/>
<path opacity="0.15" fill="#FFFFFF" enable-background="new    " d="M7,39c-2.206,0-4-1.795-4-4V7c0-2.205,1.794-4,4-4h77V1H7
    C3.691,1,1,3.691,1,7v28c0,3.309,2.691,6,6,6h77v-2H7z"/>
<path opacity="0.15" fill="#FFFFFF" enable-background="new    " d="M7,40c-2.757,0-5-2.243-5-5V7c0-2.757,2.243-5,5-5h77V1H7
    C3.691,1,1,3.691,1,7v28c0,3.309,2.691,6,6,6h77v-1H7z"/>
<rect x="83" y="1" opacity="0.3" width="1" height="40"/>
<path opacity="0.65" enable-background="new    " d="M7,1h77V0H7C3.14,0,0,3.141,0,7v28c0,3.859,3.14,7,7,7h77v-1H7
    c-3.309,0-6-2.691-6-6V7C1,3.691,3.691,1,7,1z"/>
</svg>
