<?xml version="1.0" encoding="UTF-8" standalone="no"?>
<svg
   xmlns:dc="http://purl.org/dc/elements/1.1/"
   xmlns:cc="http://creativecommons.org/ns#"
   xmlns:rdf="http://www.w3.org/1999/02/22-rdf-syntax-ns#"
   xmlns:svg="http://www.w3.org/2000/svg"
   xmlns="http://www.w3.org/2000/svg"
   xmlns:sodipodi="http://sodipodi.sourceforge.net/DTD/sodipodi-0.dtd"
   xmlns:inkscape="http://www.inkscape.org/namespaces/inkscape"
   height="30px"
   version="1.1"
   viewBox="0 0 30 30"
   width="30px"
   x="0px"
   y="0px"
   id="svg3002"
   inkscape:version="0.48.1 "
   sodipodi:docname="qtg_graf_dialog_close_icon.svg">
  <metadata
     id="metadata3017">
    <rdf:RDF>
      <cc:Work
         rdf:about="">
        <dc:format>image/svg+xml</dc:format>
        <dc:type
           rdf:resource="http://purl.org/dc/dcmitype/StillImage" />
      </cc:Work>
    </rdf:RDF>
  </metadata>
  <sodipodi:namedview
     pagecolor="#ffffff"
     bordercolor="#666666"
     borderopacity="1"
     objecttolerance="10"
     gridtolerance="10"
     guidetolerance="10"
     inkscape:pageopacity="0"
     inkscape:pageshadow="2"
     inkscape:window-width="1134"
     inkscape:window-height="801"
     id="namedview3015"
     showgrid="false"
     inkscape:zoom="9"
     inkscape:cx="16.222222"
     inkscape:cy="16.722222"
     inkscape:window-x="483"
     inkscape:window-y="161"
     inkscape:window-maximized="0"
     inkscape:current-layer="svg3002"
     inkscape:snap-center="false" />
  <path
     d="M23,0H7C3.14,0,0,3.141,0,7v16c0,3.859,3.14,7,7,7h16c3.859,0,7-3.141,7-7V7  C30,3.141,26.859,0,23,0z M29,23c0,3.309-2.691,6-6,6H7c-3.309,0-6-2.691-6-6V7c0-3.309,2.691-6,6-6h16c3.309,0,6,2.691,6,6V23z"
     fill-opacity="0.4"
     stroke-opacity="0.4"
     id="path3004" />
  <path
     d="M7,29c-3.309,0-6-2.691-6-6V7c0-3.309,2.691-6,6-6h16  c3.309,0,6,2.691,6,6v16c0,3.309-2.691,6-6,6H7z"
     fill="url(#SVGID_1_)"
     fill-opacity="0.6"
     stroke-opacity="0.6"
     id="path3006" />
  <defs
     id="defs3008">
    <linearGradient
       gradientUnits="userSpaceOnUse"
       id="SVGID_1_"
       x1="15.0005"
       x2="15.0005"
       y1="28.8926"
       y2="0.8931">
      <stop
         offset="0"
         style="stop-color:#999999"
         id="stop3011" />
      <stop
         offset="1"
         style="stop-color:#CCCCCC;stop-opacity:0.95"
         id="stop3013" />
    </linearGradient>
  </defs>
  <text
     xml:space="preserve"
     style="font-size:40px;font-style:normal;font-weight:normal;line-height:125%;letter-spacing:0px;word-spacing:0px;fill:#000000;fill-opacity:1;stroke:none;font-family:Sans;-inkscape-font-specification:Sans"
     x="5.1111112"
     y="25.33333"
     id="text3830"
     sodipodi:linespacing="125%"><tspan
       sodipodi:role="line"
       id="tspan3832"
       x="5.1111112"
       y="25.33333">x</tspan></text>
</svg>
