<?xml version="1.0" encoding="UTF-8"?>
<!DOCTYPE svg PUBLIC "-//W3C//DTD SVG 1.1 Tiny//EN" "http://www.w3.org/Graphics/SVG/1.1/DTD/svg11-tiny.dtd">
<svg baseProfile="tiny" height="20px" version="1.1" viewBox="0 0 20 20" width="20px" x="0px" xmlns="http://www.w3.org/2000/svg" xmlns:xlink="http://www.w3.org/1999/xlink" y="0px">
<rect fill="none" height="20" width="20"/>
<rect fill="none" height="20" width="20"/>
<path d="M14.5,4.5H0v2h14.5c1.926,0,3.5,1.575,3.5,3.5s-1.574,3.5-3.5,3.5H0v2h14.5  c3.033,0,5.5-2.467,5.5-5.5S17.533,4.5,14.5,4.5z" fill="#FFFFFF" fill-opacity="0.2" stroke-opacity="0.2"/>
<g fill-opacity="0.25" stroke-opacity="0.25">
<path d="M14.5,6.5H0v7h14.5c1.926,0,3.5-1.575,3.5-3.5S16.426,6.5,14.5,6.5z"/>
</g>
<g fill-opacity="0.5" stroke-opacity="0.5">
<path d="M14.5,6.5H0v1h14.5c1.654,0,3,1.346,3,3c0,1.447-1.029,2.658-2.395,2.938C16.744,13.148,18,11.718,18,10   C18,8.075,16.426,6.5,14.5,6.5z"/>
</g>
<g fill-opacity="0.1" stroke-opacity="0.1">
<path d="M14.5,12.5H0v1h14.5c1.926,0,3.5-1.575,3.5-3.5C18,11.379,15.879,12.5,14.5,12.5z"/>
</g>
</svg>
