<?xml version="1.0" encoding="UTF-8"?>
<!DOCTYPE svg PUBLIC "-//W3C//DTD SVG 1.1 Tiny//EN" "http://www.w3.org/Graphics/SVG/1.1/DTD/svg11-tiny.dtd">
<svg baseProfile="tiny" height="40px" version="1.1" viewBox="0 0 80 40" width="80px" x="0px" xmlns="http://www.w3.org/2000/svg" xmlns:xlink="http://www.w3.org/1999/xlink" y="0px">
<linearGradient gradientUnits="userSpaceOnUse" id="SVGID_1_" x1="39.9995" x2="39.9995" y1="0.333" y2="40.0499">
<stop offset="0" style="stop-color:#464646"/>
<stop offset="0.0171" style="stop-color:#454545"/>
<stop offset="0.3689" style="stop-color:#2E2E2E"/>
<stop offset="0.7034" style="stop-color:#212121"/>
<stop offset="1" style="stop-color:#1C1C1C"/>
</linearGradient>
<path d="M20,40C5.047,40,0,34.953,0,20C0,5.047,5.047,0,20,0h40c14.951,0,20,5.047,20,20  c0,14.953-5.049,20-20,20H20z" fill="url(#SVGID_1_)"/>
<linearGradient gradientUnits="userSpaceOnUse" id="SVGID_2_" x1="39.9995" x2="39.9995" y1="0.333" y2="40.0499">
<stop offset="0" style="stop-color:#FFFFFF"/>
<stop offset="1" style="stop-color:#000000"/>
</linearGradient>
<path d="M60,0H20C5.047,0,0,5.047,0,20c0,14.953,5.047,20,20,20h40c14.951,0,20-5.047,20-20  C80,5.047,74.951,0,60,0z M60,39H20C5.617,39,1,34.384,1,20C1,5.617,5.617,1,20,1h40c14.383,0,19,4.617,19,19  C79,34.384,74.383,39,60,39z" fill="url(#SVGID_2_)" fill-opacity="0.1" stroke-opacity="0.1"/>
</svg>
