<?xml version="1.0" encoding="UTF-8"?>
<!DOCTYPE svg PUBLIC "-//W3C//DTD SVG 1.1 Tiny//EN" "http://www.w3.org/Graphics/SVG/1.1/DTD/svg11-tiny.dtd">
<svg baseProfile="tiny" height="30px" version="1.1" viewBox="0 0 30 30" width="30px" x="0px" xmlns="http://www.w3.org/2000/svg" xmlns:xlink="http://www.w3.org/1999/xlink" y="0px">
<rect fill="none" height="30" width="29.999"/>
<path d="M22.512,29c-0.348,0-0.67-0.182-0.852-0.477l-1.098-1.785  C18.827,27.566,16.922,28,15,28C7.832,28,2,22.168,2,15c0-0.552,0.447-1,1-1h4c0.552,0,1,0.448,1,1c0,3.859,3.14,7,7,7  c0.823,0,1.622-0.145,2.391-0.432l-1.258-2.045c-0.188-0.31-0.195-0.695-0.02-1.012S16.624,18,16.987,18h11.012  c0.361,0,0.695,0.195,0.873,0.512c0.176,0.313,0.17,0.7-0.02,1.01l-5.486,9C23.184,28.818,22.862,29,22.514,29  C22.514,29,22.514,29,22.512,29z M22.999,16c-0.553,0-1-0.447-1-1c0-3.86-3.139-7-6.999-7c-0.826,0-1.627,0.145-2.396,0.432  l1.249,2.048c0.188,0.309,0.195,0.695,0.019,1.01C13.694,11.805,13.36,12,13,12H1.985c-0.361,0-0.695-0.196-0.873-0.512  c-0.177-0.316-0.169-0.703,0.021-1.012l5.527-9C6.843,1.181,7.166,1,7.514,1h0.001c0.348,0,0.671,0.182,0.854,0.479L9.45,3.253  C11.182,2.431,13.082,2,15,2c7.167,0,12.999,5.832,12.999,13c0,0.553-0.447,1-1,1H22.999z" fill-opacity="0.15" stroke-opacity="0.15"/>
<path d="M11.169,8.996C12.308,8.367,13.608,8,15,8c4.411,0,7.999,3.588,7.999,8h4  c0-6.627-5.373-12-11.999-12c-2.155,0-4.172,0.576-5.918,1.572L7.514,3l-5.527,9H13L11.169,8.996z M16.987,20l1.844,3.004  C17.692,23.631,16.391,24,15,24c-4.411,0-8-3.59-8-8H3c0,6.627,5.373,12,12,12c2.161,0,4.18-0.58,5.928-1.58L22.512,29l5.486-9  H16.987z" fill="#FFFFFF"/>
<path d="M11.169,7.996C12.308,7.367,13.608,7,15,7c4.411,0,7.999,3.588,7.999,8h4c0-6.627-5.373-12-11.999-12  c-2.155,0-4.172,0.576-5.918,1.572L7.514,2l-5.527,9H13L11.169,7.996z M16.987,19l1.844,3.004C17.692,22.631,16.391,23,15,23  c-4.411,0-8-3.59-8-8H3c0,6.627,5.373,12,12,12c2.161,0,4.18-0.58,5.928-1.58L22.512,28l5.486-9H16.987z" fill="url(#SVGID_1_)"/>
<defs>
<linearGradient gradientUnits="userSpaceOnUse" id="SVGID_1_" x1="14.9927" x2="14.9927" y1="27" y2="4.7612">
<stop offset="0" style="stop-color:#636363"/>
<stop offset="1" style="stop-color:#000000"/>
</linearGradient>
</defs>
</svg>
