<?xml version="1.0" encoding="UTF-8"?>
<!DOCTYPE svg PUBLIC "-//W3C//DTD SVG 1.1 Tiny//EN" "http://www.w3.org/Graphics/SVG/1.1/DTD/svg11-tiny.dtd">
<svg baseProfile="tiny" height="30px" version="1.1" viewBox="0 0 30 30" width="30px" x="0px" xmlns="http://www.w3.org/2000/svg" xmlns:xlink="http://www.w3.org/1999/xlink" y="0px">
<rect fill="none" height="30" width="30"/>
<path d="M7.5,26c-0.358,0-0.71-0.096-1.015-0.277C5.88,25.371,5.5,24.708,5.5,24V6  c0-0.709,0.38-1.371,0.993-1.728C6.794,4.095,7.145,4,7.5,4c0.343,0,0.684,0.089,0.981,0.258l15.022,9.014  C24.109,13.613,24.5,14.28,24.5,15c0,0.721-0.391,1.386-1.018,1.74L8.505,25.728C8.184,25.912,7.843,26,7.5,26z" fill-opacity="0.15" stroke-opacity="0.15"/>
<path d="M22.99,15.129l-15-9C7.838,6.043,7.67,6,7.5,6C7.326,6,7.15,6.046,6.996,6.137  C6.688,6.316,6.5,6.645,6.5,7v18c0,0.355,0.188,0.684,0.496,0.863C7.15,25.955,7.326,26,7.5,26c0.17,0,0.338-0.043,0.49-0.129l15-9  c0.314-0.178,0.51-0.51,0.51-0.871C23.5,15.639,23.304,15.307,22.99,15.129z" fill="#FFFFFF"/>
<path d="M22.99,14.129l-15-9C7.838,5.043,7.67,5,7.5,5C7.326,5,7.15,5.046,6.996,5.137  C6.688,5.316,6.5,5.645,6.5,6v18c0,0.355,0.188,0.684,0.496,0.863C7.15,24.955,7.326,25,7.5,25c0.17,0,0.338-0.043,0.49-0.129l15-9  c0.314-0.178,0.51-0.51,0.51-0.871S23.304,14.307,22.99,14.129z" fill="url(#SVGID_1_)"/>
<defs>
<linearGradient gradientUnits="userSpaceOnUse" id="SVGID_1_" x1="15" x2="15" y1="26.9995" y2="4.7613">
<stop offset="0" style="stop-color:#636363"/>
<stop offset="1" style="stop-color:#000000"/>
</linearGradient>
</defs>
</svg>
