<?xml version="1.0" encoding="UTF-8"?>
<!DOCTYPE svg PUBLIC "-//W3C//DTD SVG 1.1 Tiny//EN" "http://www.w3.org/Graphics/SVG/1.1/DTD/svg11-tiny.dtd">
<svg baseProfile="tiny" height="30px" version="1.1" viewBox="0 0 30 30" width="30px" x="0px" xmlns="http://www.w3.org/2000/svg" xmlns:xlink="http://www.w3.org/1999/xlink" y="0px">
<rect fill="none" height="30" width="30"/>
<path d="M17.5,28c-0.553,0-1-0.447-1-1v-5h-3v5c0,0.553-0.447,1-1,1H7  c-1.103,0-2-0.896-2-2v-7.086l-0.543,0.543C4.263,19.652,4.006,19.75,3.75,19.75s-0.512-0.098-0.707-0.293l-1.75-1.75  c-0.391-0.391-0.391-1.023,0-1.414L5,12.586V7c0-0.552,0.448-1,1-1h3c0.553,0,1,0.448,1,1v0.586l4.293-4.293  C14.488,3.098,14.744,3,15,3s0.512,0.098,0.707,0.293l13,13c0.391,0.391,0.391,1.023,0,1.414l-1.75,1.75  c-0.195,0.195-0.451,0.293-0.707,0.293s-0.512-0.098-0.707-0.293L25,18.914V26c0,1.104-0.896,2-2,2H17.5z" fill-opacity="0.15" stroke-opacity="0.15"/>
<path d="M6,19.621V27c0,0.553,0.447,1,1,1h5.5v-6h5v6H23c0.553,0,1-0.447,1-1v-7.379  l-9-9L6,19.621z M15,5l-6,6V8H6v6l-4,4l1.75,1.75L15,8.5l11.25,11.25L28,18L15,5z" fill="#FFFFFF"/>
<path d="M6,18.621V26c0,0.553,0.447,1,1,1h5.5v-6h5v6H23c0.553,0,1-0.447,1-1v-7.379l-9-9L6,18.621z M15,4  l-6,6V7H6v6l-4,4l1.75,1.75L15,7.5l11.25,11.25L28,17L15,4z" fill="url(#SVGID_1_)"/>
<defs>
<linearGradient gradientUnits="userSpaceOnUse" id="SVGID_1_" x1="15.0005" x2="15.0005" y1="27" y2="4.7612">
<stop offset="0" style="stop-color:#636363"/>
<stop offset="1" style="stop-color:#000000"/>
</linearGradient>
</defs>
</svg>
