<?xml version="1.0" encoding="UTF-8"?>
<!DOCTYPE svg PUBLIC "-//W3C//DTD SVG 1.1 Tiny//EN" "http://www.w3.org/Graphics/SVG/1.1/DTD/svg11-tiny.dtd">
<svg baseProfile="tiny" height="30px" version="1.1" viewBox="0 0 30 30" width="30px" x="0px" xmlns="http://www.w3.org/2000/svg" xmlns:xlink="http://www.w3.org/1999/xlink" y="0px">
<path d="M23.25,29c-3.172,0-5.75-2.58-5.75-5.75c0-0.031,0.002-0.064,0.002-0.096l-4.773-2.705  C11.453,21.453,9.891,22,8.25,22C4.252,22,1,18.748,1,14.75S4.252,7.5,8.25,7.5c1.709,0,3.326,0.587,4.625,1.667L17.5,6.701  C17.525,3.553,20.096,1,23.25,1C26.42,1,29,3.58,29,6.75s-2.58,5.75-5.75,5.75c-1.127,0-2.201-0.328-3.145-0.957l-4.645,2.476  c0.025,0.244,0.037,0.487,0.037,0.73c0,0.301-0.02,0.606-0.061,0.914l4.791,2.715c0.914-0.575,1.945-0.879,3.02-0.879  c3.172,0,5.75,2.58,5.75,5.75S26.42,29,23.25,29L23.25,29z" fill-opacity="0.15"/>
<path d="M23.25,19.5c-1.125,0-2.146,0.408-2.959,1.063l-5.963-3.379  c0.107-0.461,0.172-0.938,0.172-1.434c0-0.438-0.047-0.866-0.133-1.279l5.83-3.109c0.828,0.7,1.883,1.139,3.053,1.139  c2.625,0,4.75-2.127,4.75-4.75S25.875,3,23.25,3c-2.623,0-4.75,2.127-4.75,4.75c0,0.179,0.033,0.349,0.053,0.522l-5.834,3.111  C11.584,10.223,10.002,9.5,8.25,9.5C4.799,9.5,2,12.298,2,15.75C2,19.201,4.799,22,8.25,22c1.695,0,3.229-0.676,4.354-1.771  l5.961,3.379c-0.029,0.211-0.064,0.422-0.064,0.644c0,2.623,2.127,4.75,4.75,4.75c2.625,0,4.75-2.127,4.75-4.75  S25.875,19.5,23.25,19.5z" fill="#FFFFFF"/>
<path d="M23.25,18.5c-1.125,0-2.146,0.408-2.959,1.063l-5.963-3.379c0.107-0.461,0.172-0.939,0.172-1.434  c0-0.438-0.047-0.866-0.133-1.279l5.83-3.109c0.828,0.7,1.883,1.139,3.053,1.139c2.625,0,4.75-2.127,4.75-4.75S25.875,2,23.25,2  c-2.623,0-4.75,2.127-4.75,4.75c0,0.179,0.033,0.349,0.053,0.522l-5.834,3.111C11.584,9.223,10.002,8.5,8.25,8.5  C4.799,8.5,2,11.298,2,14.75C2,18.201,4.799,21,8.25,21c1.695,0,3.229-0.676,4.354-1.771l5.961,3.379  c-0.029,0.211-0.064,0.422-0.064,0.644c0,2.623,2.127,4.75,4.75,4.75c2.625,0,4.75-2.127,4.75-4.75S25.875,18.5,23.25,18.5z" fill="url(#SVGID_1_)"/>
<rect fill="none" height="30" width="30"/>
<defs>
<linearGradient gradientUnits="userSpaceOnUse" id="SVGID_1_" x1="15.0005" x2="15.0005" y1="27" y2="4.7612">
<stop offset="0" style="stop-color:#636363"/>
<stop offset="1" style="stop-color:#000000"/>
</linearGradient>
</defs>
</svg>
