<?xml version="1.0" encoding="UTF-8"?>
<!DOCTYPE svg PUBLIC "-//W3C//DTD SVG 1.1 Tiny//EN" "http://www.w3.org/Graphics/SVG/1.1/DTD/svg11-tiny.dtd">
<svg baseProfile="tiny" height="30px" version="1.1" viewBox="0 0 30 30" width="30px" x="0px" xmlns="http://www.w3.org/2000/svg" xmlns:xlink="http://www.w3.org/1999/xlink" y="0px">
<path d="M10.625,28c-0.269,0-0.532-0.063-0.787-0.189c-0.787-0.277-3.96-1.523-3.795-3.293  c0.041-0.455,0.193-0.849,0.328-1.195c0.091-0.235,0.177-0.457,0.196-0.623c0.08-0.688-0.27-1.254-0.845-2.121  c-0.282-0.426-0.573-0.865-0.806-1.362c-0.339-0.321-0.771-0.508-1.377-0.599L3.353,18.59c-0.724-0.104-2.228-0.32-2.283-2.124  L1.043,15.71C1.021,15.184,1,14.657,1,14.132c0.005-1.897,1.054-2.28,2.318-2.557c0.838-0.181,1.232-0.538,1.691-1.533  c0.155-0.333,0.342-0.654,0.527-0.971c0.498-0.844,0.746-1.312,0.517-1.9L5.924,6.85c-0.358-0.871-0.958-2.328,0.772-3.4  l0.618-0.389C7.709,2.81,8.104,2.56,8.508,2.327c0.514-0.295,0.953-0.432,1.389-0.432c0.938,0,1.505,0.628,2.055,1.236l0.1,0.109  c0.362,0.4,0.778,0.556,1.483,0.556c0.177,0,0.359-0.01,0.547-0.024c0.285-0.022,0.575-0.026,0.865-0.026h0.288  c0.996,0,1.472-0.072,1.832-0.523c0.078-0.099,0.154-0.201,0.23-0.303c0.434-0.584,1.028-1.385,2.075-1.385  c0.349,0,0.704,0.096,1.06,0.284l0.601,0.315c0.491,0.256,0.983,0.513,1.461,0.79c1.769,1.033,1.37,2.283,1.053,3.287  c-0.298,0.939-0.042,1.425,0.739,2.691C24.4,9.09,24.486,9.233,24.57,9.377c0.507,0.86,0.8,1.313,1.423,1.409l0.339,0.047  c0.934,0.124,2.493,0.332,2.563,2.362L28.96,15.3c0.22,1.881-1.496,2.411-2.419,2.695c-0.475,0.146-0.965,0.298-1.195,0.528  c-0.229,0.229-0.414,0.648-0.609,1.095c-0.178,0.407-0.362,0.827-0.627,1.216c-0.26,0.385-0.332,0.773-0.237,1.307  c0.03,0.168,0.132,0.387,0.237,0.619c0.158,0.338,0.336,0.721,0.406,1.176c0.274,1.75-2.812,3.193-3.582,3.522  c-0.279,0.162-0.574,0.244-0.879,0.244l0,0c-0.928-0.001-1.537-0.751-1.941-1.247c-0.104-0.131-0.2-0.258-0.295-0.342  c-0.346-0.342-0.656-0.446-1.236-0.446c-0.221,0-0.445,0.015-0.678,0.028c-0.189,0.011-0.383,0.021-0.578,0.027  c-0.182,0.008-0.358,0.01-0.53,0.012c-1.006,0.013-1.434,0.037-1.934,0.537c-0.091,0.09-0.179,0.224-0.275,0.359  C12.197,27.178,11.611,28,10.625,28L10.625,28z" fill-opacity="0.15"/>
<path d="M27.96,16.332c-0.021-0.701-0.041-1.4-0.063-2.102  c-0.047-1.332-0.947-1.287-2.056-1.455c-1.296-0.199-1.757-1.297-2.378-2.301c-0.771-1.25-1.326-2.123-0.87-3.564  c0.335-1.057,0.419-1.523-0.604-2.121c-0.659-0.385-1.35-0.727-2.024-1.086c-1.057-0.561-1.522,0.404-2.116,1.145  c-0.939,1.176-2.365,0.816-3.688,0.922c-1.121,0.088-2.068,0.004-2.849-0.855c-0.795-0.875-1.167-1.373-2.304-0.721  c-0.605,0.35-1.189,0.74-1.784,1.107C6.087,6.004,6.578,6.764,6.985,7.807c0.558,1.426-0.507,2.441-1.066,3.654  c-0.542,1.174-1.146,1.824-2.388,2.092C2.447,13.789,2.003,13.951,2,15.135c-0.002,0.765,0.047,1.533,0.07,2.298  c0.032,1.045,0.771,1.064,1.619,1.193c0.782,0.117,1.5,0.396,2.067,1.018c0.607,1.433,1.995,2.525,1.804,4.17  c-0.07,0.603-0.466,1.181-0.522,1.795c-0.079,0.859,2.478,2.109,3.212,2.289c0.894,0.476,1.416-0.846,1.905-1.334  c0.941-0.938,1.895-0.797,3.139-0.838c1.181-0.037,2.261-0.285,3.185,0.639c0.516,0.453,1.129,1.746,1.983,1.212  c0.726-0.228,3.199-1.63,3.063-2.486c-0.096-0.614-0.53-1.165-0.639-1.772c-0.134-0.748-0.031-1.416,0.396-2.043  c0.508-0.746,0.731-1.834,1.356-2.457C25.704,17.758,28.173,18.178,27.96,16.332 M14.947,23.031c-3.95,0-7.251-3.299-7.251-7.25  s3.299-7.252,7.251-7.252c3.951,0,7.25,3.301,7.25,7.252S18.896,23.031,14.947,23.031" fill="#FFFFFF"/>
<path d="M27.96,15.332c-0.021-0.701-0.041-1.4-0.063-2.102c-0.047-1.332-0.947-1.287-2.056-1.455  c-1.296-0.199-1.757-1.297-2.378-2.301c-0.771-1.25-1.326-2.123-0.87-3.564c0.335-1.057,0.419-1.523-0.604-2.121  c-0.659-0.385-1.35-0.727-2.024-1.086c-1.057-0.561-1.522,0.404-2.116,1.145c-0.939,1.176-2.365,0.816-3.688,0.922  c-1.121,0.088-2.068,0.004-2.849-0.855c-0.795-0.875-1.167-1.373-2.304-0.721c-0.605,0.35-1.189,0.74-1.784,1.107  C6.087,5.004,6.578,5.764,6.985,6.807c0.558,1.426-0.507,2.441-1.066,3.654c-0.542,1.174-1.146,1.824-2.388,2.092  C2.447,12.789,2.003,12.951,2,14.135c-0.002,0.766,0.047,1.533,0.07,2.298c0.032,1.045,0.771,1.064,1.619,1.193  c0.782,0.117,1.5,0.396,2.067,1.018c0.607,1.433,1.995,2.525,1.804,4.17c-0.07,0.603-0.466,1.181-0.522,1.795  c-0.079,0.859,2.478,2.109,3.212,2.289c0.894,0.476,1.416-0.846,1.905-1.334c0.941-0.938,1.895-0.797,3.139-0.838  c1.181-0.037,2.261-0.285,3.185,0.639c0.516,0.453,1.129,1.746,1.983,1.212c0.726-0.228,3.199-1.63,3.063-2.486  c-0.096-0.614-0.53-1.165-0.639-1.772c-0.134-0.748-0.031-1.416,0.396-2.043c0.508-0.746,0.731-1.834,1.356-2.457  C25.704,16.758,28.173,17.178,27.96,15.332 M14.947,22.031c-3.95,0-7.251-3.299-7.251-7.25c0-3.951,3.299-7.252,7.251-7.252  c3.951,0,7.25,3.301,7.25,7.252C22.197,18.732,18.896,22.031,14.947,22.031" fill="url(#SVGID_1_)"/>
<rect fill="none" height="30" width="30"/>
<defs>
<linearGradient gradientUnits="userSpaceOnUse" id="SVGID_1_" x1="14.9868" x2="14.9868" y1="27" y2="4.7612">
<stop offset="0" style="stop-color:#636363"/>
<stop offset="1" style="stop-color:#000000"/>
</linearGradient>
</defs>
</svg>
