<?xml version="1.0" encoding="UTF-8"?>
<!DOCTYPE svg PUBLIC "-//W3C//DTD SVG 1.1 Tiny//EN" "http://www.w3.org/Graphics/SVG/1.1/DTD/svg11-tiny.dtd">
<svg baseProfile="tiny" height="30px" version="1.1" viewBox="0 0 30 30" width="30px" x="0px" xmlns="http://www.w3.org/2000/svg" xmlns:xlink="http://www.w3.org/1999/xlink" y="0px">
<path d="M25.5,29c-0.936,0-1.813-0.365-2.475-1.025l-4.393-4.391C16.896,24.512,14.966,25,13,25  C6.383,25,1,19.617,1,13C1,6.383,6.383,1,13,1s12,5.383,12,12c0,1.965-0.486,3.896-1.416,5.635l4.391,4.391  c1.364,1.363,1.364,3.584,0,4.949C27.313,28.635,26.436,29,25.5,29L25.5,29z" fill-opacity="0.15"/>
<path d="M27.268,24.732l-4.934-4.935C23.384,18.113,24,16.131,24,14  c0-6.076-4.925-11-11-11S2,7.925,2,14c0,6.074,4.925,11,11,11c2.131,0,4.113-0.617,5.799-1.666l4.934,4.934  c0.978,0.978,2.56,0.978,3.535,0C28.244,27.291,28.244,25.709,27.268,24.732z M13,21.5c-4.137,0-7.5-3.365-7.5-7.5  c0-4.136,3.363-7.5,7.5-7.5s7.5,3.364,7.5,7.5C20.5,18.135,17.137,21.5,13,21.5z" fill="#FFFFFF"/>
<path d="M27.268,23.732l-4.934-4.935C23.384,17.113,24,15.131,24,13c0-6.076-4.925-11-11-11S2,6.925,2,13  c0,6.074,4.925,11,11,11c2.131,0,4.113-0.617,5.799-1.666l4.934,4.934c0.978,0.978,2.56,0.978,3.535,0  C28.244,26.291,28.244,24.709,27.268,23.732z M13,20.5c-4.137,0-7.5-3.365-7.5-7.5c0-4.136,3.363-7.5,7.5-7.5s7.5,3.364,7.5,7.5  C20.5,17.135,17.137,20.5,13,20.5z" fill="url(#SVGID_1_)"/>
<rect fill="none" height="30" width="30"/>
<defs>
<linearGradient gradientUnits="userSpaceOnUse" id="SVGID_1_" x1="15.0005" x2="15.0005" y1="27" y2="4.7612">
<stop offset="0" style="stop-color:#636363"/>
<stop offset="1" style="stop-color:#000000"/>
</linearGradient>
</defs>
</svg>
