<?xml version="1.0" encoding="UTF-8"?>
<!DOCTYPE svg PUBLIC "-//W3C//DTD SVG 1.1 Tiny//EN" "http://www.w3.org/Graphics/SVG/1.1/DTD/svg11-tiny.dtd">
<svg baseProfile="tiny" height="30px" version="1.1" viewBox="0 0 30 30" width="30px" x="0px" xmlns="http://www.w3.org/2000/svg" xmlns:xlink="http://www.w3.org/1999/xlink" y="0px">
<rect fill="none" height="30" width="30"/>
<path d="M9.277,29.984c-0.664,0-1.289-0.256-1.758-0.723L6.465,28.21c-0.97-0.97-0.97-2.549,0-3.521  l9.346-9.344c0.123-0.123,0.142-0.269,0.142-0.344c0-0.075-0.019-0.221-0.144-0.346L6.462,5.312  c-0.969-0.97-0.968-2.547,0.001-3.517l1.055-1.053c0.469-0.469,1.094-0.727,1.76-0.727s1.291,0.258,1.759,0.727l12.5,12.5  c0.47,0.468,0.728,1.093,0.728,1.759c0.002,0.666-0.258,1.291-0.727,1.759L11.036,29.262C10.568,29.729,9.943,29.984,9.277,29.984  L9.277,29.984z" fill-opacity="0.15"/>
<path d="M7.17,26.396c-0.578,0.58-0.578,1.527,0,2.105l1.055,1.051  c0.58,0.577,1.524,0.577,2.104,0l12.5-12.5c0.579-0.578,0.579-1.525,0-2.104l-12.5-12.5c-0.578-0.579-1.523-0.579-2.104,0  L7.17,3.502c-0.578,0.579-0.578,1.525,0,2.104l9.346,9.344c0.58,0.578,0.58,1.525,0,2.103L7.17,26.396z" fill="#FFFFFF"/>
<path d="M7.17,25.396c-0.578,0.58-0.578,1.527,0,2.105l1.055,1.051c0.58,0.577,1.524,0.577,2.104,0l12.5-12.5  c0.579-0.579,0.579-1.526,0-2.104l-12.5-12.5c-0.578-0.579-1.523-0.579-2.104,0L7.17,2.502c-0.578,0.579-0.578,1.524,0,2.104  l9.346,9.344c0.58,0.578,0.58,1.525,0,2.103L7.17,25.396z" fill="url(#SVGID_1_)"/>
<defs>
<linearGradient gradientUnits="userSpaceOnUse" id="SVGID_1_" x1="14.9995" x2="14.9995" y1="26" y2="3.7612">
<stop offset="0" style="stop-color:#636363"/>
<stop offset="1" style="stop-color:#000000"/>
</linearGradient>
</defs>
</svg>
