<?xml version="1.0" encoding="UTF-8"?>
<!DOCTYPE svg PUBLIC "-//W3C//DTD SVG 1.1 Tiny//EN" "http://www.w3.org/Graphics/SVG/1.1/DTD/svg11-tiny.dtd">
<svg baseProfile="tiny" height="30px" version="1.1" viewBox="0 0 30 30" width="30px" x="0px" xmlns="http://www.w3.org/2000/svg" xmlns:xlink="http://www.w3.org/1999/xlink" y="0px">
<rect fill="none" height="30" width="30"/>
<path d="M20.725,29.984c-0.666,0-1.291-0.256-1.758-0.725L6.465,16.76C5.996,16.291,5.738,15.666,5.738,15  s0.258-1.291,0.729-1.759l12.5-12.5c0.467-0.469,1.092-0.727,1.758-0.727s1.291,0.258,1.76,0.727l1.055,1.053  c0.969,0.969,0.969,2.547,0,3.517l-9.346,9.344c-0.125,0.124-0.143,0.271-0.143,0.345s0.018,0.221,0.141,0.344l9.346,9.343  c0.969,0.973,0.969,2.551,0,3.521l-1.055,1.053C22.014,29.729,21.389,29.984,20.725,29.984L20.725,29.984z" fill-opacity="0.15"/>
<path d="M13.484,17.053c-0.578-0.578-0.578-1.525,0-2.104l9.346-9.344  c0.578-0.579,0.578-1.525,0-2.104l-1.055-1.053c-0.58-0.579-1.525-0.579-2.104,0l-12.5,12.5c-0.578,0.578-0.578,1.525,0,2.103  l12.5,12.502c0.578,0.576,1.523,0.576,2.104,0l1.055-1.052c0.578-0.578,0.578-1.526,0-2.106L13.484,17.053z" fill="#FFFFFF"/>
<path d="M13.484,16.053c-0.578-0.579-0.578-1.525,0-2.104l9.346-9.344c0.578-0.579,0.578-1.525,0-2.104  l-1.055-1.053c-0.58-0.579-1.525-0.579-2.104,0l-12.5,12.5c-0.578,0.578-0.578,1.524,0,2.103l12.5,12.502  c0.578,0.576,1.523,0.576,2.104,0l1.055-1.052c0.578-0.578,0.578-1.526,0-2.106L13.484,16.053z" fill="url(#SVGID_1_)"/>
<defs>
<linearGradient gradientUnits="userSpaceOnUse" id="SVGID_1_" x1="15.0015" x2="15.0015" y1="26" y2="3.7612">
<stop offset="0" style="stop-color:#636363"/>
<stop offset="1" style="stop-color:#000000"/>
</linearGradient>
</defs>
</svg>
