<?xml version="1.0" encoding="UTF-8"?>
<!DOCTYPE svg PUBLIC "-//W3C//DTD SVG 1.1 Tiny//EN" "http://www.w3.org/Graphics/SVG/1.1/DTD/svg11-tiny.dtd">
<svg baseProfile="tiny" height="30px" version="1.1" viewBox="0 0 30 30" width="30px" x="0px" xmlns="http://www.w3.org/2000/svg" xmlns:xlink="http://www.w3.org/1999/xlink" y="0px">
<path d="M14,26.584c-0.535,0-1.037-0.207-1.414-0.584L3,16.414c-0.78-0.779-0.78-2.049,0-2.828L12.586,4  C12.963,3.623,13.465,3.416,14,3.416S15.037,3.623,15.414,4L17,5.586c0.779,0.779,0.779,2.049,0,2.828L13.414,12H26  c1.104,0,2,0.897,2,2v2c0,1.104-0.896,2-2,2H13.414L17,21.586c0.779,0.779,0.779,2.049,0,2.828L15.414,26  C15.037,26.377,14.535,26.584,14,26.584L14,26.584z" fill-opacity="0.15"/>
<path d="M26,14H11l5.293-5.293c0.389-0.389,0.389-1.025,0-1.414l-1.586-1.586  c-0.389-0.389-1.025-0.389-1.414,0l-9.586,9.586c-0.389,0.389-0.389,1.025,0,1.414l9.586,9.586c0.389,0.389,1.025,0.389,1.414,0  l1.586-1.586c0.389-0.389,0.389-1.025,0-1.414L11,18h15c0.549,0,1-0.449,1-1v-2C27,14.451,26.549,14,26,14z" fill="#FFFFFF"/>
<path d="M26,13H11l5.293-5.293c0.389-0.389,0.389-1.025,0-1.414l-1.586-1.586  c-0.389-0.389-1.025-0.389-1.414,0l-9.586,9.586c-0.389,0.389-0.389,1.025,0,1.414l9.586,9.586c0.389,0.389,1.025,0.389,1.414,0  l1.586-1.586c0.389-0.389,0.389-1.025,0-1.414L11,17h15c0.549,0,1-0.449,1-1v-2C27,13.45,26.549,13,26,13z" fill="url(#SVGID_1_)"/>
<rect fill="none" height="30" width="30"/>
<defs>
<linearGradient gradientUnits="userSpaceOnUse" id="SVGID_1_" x1="15.208" x2="15.208" y1="27" y2="4.7612">
<stop offset="0" style="stop-color:#636363"/>
<stop offset="1" style="stop-color:#000000"/>
</linearGradient>
</defs>
</svg>
