<?xml version="1.0" encoding="UTF-8"?>
<!DOCTYPE svg PUBLIC "-//W3C//DTD SVG 1.1 Tiny//EN" "http://www.w3.org/Graphics/SVG/1.1/DTD/svg11-tiny.dtd">
<svg baseProfile="tiny" height="46px" version="1.1" viewBox="0 0 90 46" width="90px" x="0px" xmlns="http://www.w3.org/2000/svg" xmlns:xlink="http://www.w3.org/1999/xlink" y="0px">
<linearGradient gradientUnits="userSpaceOnUse" id="SVGID_1_" x1="44.9995" x2="44.9995" y1="3" y2="42.8193">
<stop offset="0" style="stop-color:#A1D3FF"/>
<stop offset="1" style="stop-color:#5CB4FF"/>
</linearGradient>
<path d="M88,43H2V11c0-4.418,3.582-8,8-8h70c4.418,0,8,3.582,8,8V43z" fill="url(#SVGID_1_)"/>
<linearGradient gradientUnits="userSpaceOnUse" id="SVGID_2_" x1="44.9995" x2="44.9995" y1="3" y2="42.8193">
<stop offset="0" style="stop-color:#FFFFFF;stop-opacity:0.3"/>
<stop offset="1" style="stop-color:#FFFFFF;stop-opacity:0"/>
</linearGradient>
<path d="M80,3H10c-4.418,0-8,3.582-8,8v32h86V11C88,6.582,84.418,3,80,3z M87,42  H3V11c0-3.859,3.141-7,7-7h70c3.859,0,7,3.141,7,7V42z" fill="url(#SVGID_2_)"/>
<rect fill="none" height="46" width="90"/>
</svg>
