<?xml version="1.0" encoding="UTF-8"?>
<!DOCTYPE svg PUBLIC "-//W3C//DTD SVG 1.1 Tiny//EN" "http://www.w3.org/Graphics/SVG/1.1/DTD/svg11-tiny.dtd">
<svg baseProfile="tiny" height="10px" version="1.1" viewBox="0 0 10 10" width="10px" x="0px" xmlns="http://www.w3.org/2000/svg" xmlns:xlink="http://www.w3.org/1999/xlink" y="0px">
<rect fill="none" height="10" width="10"/>
<path d="M8,8c0-3.3-2.701-6-6-6H0v8h8V8z" fill="url(#SVGID_1_)" fill-opacity="0.5" stroke-opacity="0.5"/>
<path d="M8,8c0-3.3-2.701-6-6-6H0v2h2c2.205,0,4,1.795,4,4v2h2V8z" fill-opacity="0.05" stroke-opacity="0.05"/>
<path d="M8,8c0-3.3-2.701-6-6-6H0v1h2c2.756,0,5,2.243,5,5v2h1V8z" fill-opacity="0.4" stroke-opacity="0.4"/>
<path d="M10,8c0-4.411-3.589-8-8-8H0v2h2c3.299,0,6,2.7,6,6v2h2V8z" fill="#FFFFFF" fill-opacity="0.1" stroke-opacity="0.1"/>
<path d="M2,2H0v2h2c3,0,5,1.795,5,4C7,5.243,5,2,2,2z" fill-opacity="0.2" stroke-opacity="0.2"/>
<path d="M2,2H0v1h2c2.757,0,5,2.243,5,5C7,5.243,5,2,2,2z" fill-opacity="0.1" stroke-opacity="0.1"/>
<defs>
<linearGradient gradientUnits="userSpaceOnUse" id="SVGID_1_" x1="4" x2="4" y1="48" y2="2.0885">
<stop offset="0" style="stop-color:#1E1E1E"/>
<stop offset="1" style="stop-color:#5CB4FF;stop-opacity:0.95"/>
</linearGradient>
</defs>
</svg>
