<?xml version="1.0" encoding="UTF-8"?>
<!DOCTYPE svg PUBLIC "-//W3C//DTD SVG 1.1 Tiny//EN" "http://www.w3.org/Graphics/SVG/1.1/DTD/svg11-tiny.dtd">
<svg baseProfile="tiny" height="30.0" version="1.1" viewBox="0.0 0.0 10.0 30.0" width="10.0" x="0.0" xmlns="http://www.w3.org/2000/svg" xmlns:xlink="http://www.w3.org/1999/xlink" y="0.0">
<linearGradient gradientUnits="userSpaceOnUse" id="SVGID_1_" x1="-149.9995" x2="-149.9995" y1="40.0" y2="-9.999512">
<stop offset="0" style="stop-color:#5CB4FF;stop-opacity:0.6"/>
<stop offset="0.7" style="stop-color:#A5A5A5;stop-opacity:0.5"/>
<stop offset="1" style="stop-color:#5C7065;stop-opacity:0.7"/>
</linearGradient>
<rect fill="url(#SVGID_1_)" height="30.0" width="10.0" x="0.0" y="0.0"/>
<path d="M 7.0 0.0 v 30.0 L 8.0 30.0 V 0.0 L 7.0 0.0 z" fill="#FFFFFF" fill-opacity="0.1" stroke-opacity="0.1"/>
<path d="M 6.0 0.0 v 30.0 L 8.0 30.0 V 0.0 L 6.0 0.0 z" fill="#FFFFFF" fill-opacity="0.05" stroke-opacity="0.05"/>
<path d="M 5.0 0.0 v 30.0 L 8.0 30.0 V 0.0 L 5.0 0.0 z" fill="#FFFFFF" fill-opacity="0.05" stroke-opacity="0.05"/>
<linearGradient gradientUnits="userSpaceOnUse" id="SVGID_2_" x1="-149.9995" x2="-149.9995" y1="39.0" y2="-8.9995">
<stop offset="0" style="stop-color:#FFFFFF;stop-opacity:0.1"/>
<stop offset="1" style="stop-color:#FFFFFF;stop-opacity:0.6"/>
</linearGradient>
<path d="M 9.0 30.0 V 0.0 L 8.0 0.0 V 30.0 L 9.0 30.0 z" fill="url(#SVGID_2_)"/>
<path d="M 9.0 0.0 v 30.0 L 10.0 30.0 V 0.0 L 9.0 0.0 z" fill-opacity="0.3" stroke-opacity="0.3"/>
<linearGradient gradientUnits="userSpaceOnUse" x1="-309.0" x2="9.0" y1="-8.5" y2="-8.5">
<stop offset="0" style="stop-color:#FFFFFF;stop-opacity:0.1"/>
<stop offset="0.5" style="stop-color:#FFFFFF"/>
<stop offset="1" style="stop-color:#FFFFFF;stop-opacity:0.1"/>
</linearGradient>
<linearGradient gradientUnits="userSpaceOnUse" x1="-309.0" x2="9.0" y1="38.5" y2="38.5">
<stop offset="0" style="stop-color:#FFFFFF;stop-opacity:0"/>
<stop offset="0.5" style="stop-color:#FFFFFF;stop-opacity:0.4"/>
<stop offset="1" style="stop-color:#FFFFFF;stop-opacity:0"/>
</linearGradient>
</svg>
