<?xml version="1.0" encoding="UTF-8"?>
<!DOCTYPE svg PUBLIC "-//W3C//DTD SVG 1.1 Tiny//EN" "http://www.w3.org/Graphics/SVG/1.1/DTD/svg11-tiny.dtd">
<svg baseProfile="tiny" height="10.0" version="1.1" viewBox="0.0 0.0 10.0 10.0" width="10.0" x="0.0" xmlns="http://www.w3.org/2000/svg" xmlns:xlink="http://www.w3.org/1999/xlink" y="0.0">
<linearGradient gradientUnits="userSpaceOnUse" id="SVGID_1_" x1="-24.9995" x2="-24.9995" y1="48.0" y2="2.0005">
<stop offset="0" style="stop-color:#1E1E1E"/>
<stop offset="1" style="stop-color:#939393;stop-opacity:0.95"/>
</linearGradient>
<path d="M 0.0 2.0 h 2.0 c 3.299 0.0 6.0 2.7 6.0 6.0 V 10.0 L 0.0 10.0 L 0.0 2.0 z" fill="url(#SVGID_1_)" fill-opacity="0.5" stroke-opacity="0.5"/>
<linearGradient gradientUnits="userSpaceOnUse" id="SVGID_2_" x1="-24.9995" x2="-24.9995" y1="47.0" y2="3.0005">
<stop offset="0" style="stop-color:#FFFFFF;stop-opacity:0.1"/>
<stop offset="1" style="stop-color:#FFFFFF;stop-opacity:0.6"/>
</linearGradient>
<path d="M 7.0 10.0 V 8.0 C 7.0 5.243 4.7559967 3.0 2.0 3.0 H 0.0 L 0.0 4.0 h 2.0 c 2.205 0.0 4.0 1.794 4.0 4.0 V 10.0 L 7.0 10.0 z" fill="url(#SVGID_2_)"/>
<path d="M 8.0 10.0 V 8.0 C 8.0 4.7 5.2990036 2.0 2.0 2.0 H 0.0 L 0.0 3.0 h 2.0 c 2.756 0.0 5.0 2.243 5.0 5.0 V 10.0 L 8.0 10.0 z" fill-opacity="0.3" stroke-opacity="0.3"/>
<path d="M 0.0 2.0 H 2.0 c 3.299 0.0 6.0 2.7 6.0 6.0 v 2.0 L 10.0 10.0 V 8.0 C 10.0 3.589 6.411003 0.0 2.0 0.0 L 2.0 0.0 H 0.0 L 0.0 2.0 z" fill="#FFFFFF" fill-opacity="0.1" stroke-opacity="0.1"/>
<linearGradient gradientUnits="userSpaceOnUse" id="SVGID_3_" x1="-52.0" x2="2.0" y1="3.5" y2="3.5">
<stop offset="0" style="stop-color:#FFFFFF;stop-opacity:0.1"/>
<stop offset="0.5" style="stop-color:#FFFFFF"/>
<stop offset="1" style="stop-color:#FFFFFF;stop-opacity:0.1"/>
</linearGradient>
<rect fill="url(#SVGID_3_)" height="1.0" width="2.0" x="0.0" y="3.0"/>
<linearGradient gradientUnits="userSpaceOnUse" x1="-52.0" x2="2.0" y1="46.5" y2="46.5">
<stop offset="0" style="stop-color:#FFFFFF;stop-opacity:0"/>
<stop offset="0.5" style="stop-color:#FFFFFF;stop-opacity:0.4"/>
<stop offset="1" style="stop-color:#FFFFFF;stop-opacity:0"/>
</linearGradient>
<path d="M 0.0 7.0 H 2.0 c 0.551 0.0 1.0 0.448 1.0 1.0 v 2.0 L 6.0 10.0 V 8.0 C 6.0 5.794 4.205002 4.0 2.0 4.0 L 2.0 4.0 H 0.0 L 0.0 7.0 z" fill="#FFFFFF" fill-opacity="0.05" stroke-opacity="0.05"/>
<path d="M 0.0 6.0 H 2.0 c 1.103 0.0 2.0 0.897 2.0 2.0 v 2.0 L 6.0 10.0 V 8.0 C 6.0 5.794 4.205002 4.0 2.0 4.0 L 2.0 4.0 H 0.0 L 0.0 6.0 z" fill="#FFFFFF" fill-opacity="0.05" stroke-opacity="0.05"/>
<path d="M 0.0 5.0 H 2.0 c 1.654 0.0 3.0 1.346 3.0 3.0 v 2.0 L 6.0 10.0 V 8.0 C 6.0 5.794 4.205002 4.0 2.0 4.0 L 2.0 4.0 H 0.0 L 0.0 5.0 z" fill="#FFFFFF" fill-opacity="0.1" stroke-opacity="0.1"/>
</svg>
