<?xml version="1.0" encoding="UTF-8"?>
<!DOCTYPE svg PUBLIC "-//W3C//DTD SVG 1.1 Tiny//EN" "http://www.w3.org/Graphics/SVG/1.1/DTD/svg11-tiny.dtd">
<svg baseProfile="tiny" height="10px" version="1.1" viewBox="0 0 10 10" width="10px" x="0px" xmlns="http://www.w3.org/2000/svg" xmlns:xlink="http://www.w3.org/1999/xlink" y="0px">
<rect fill="none" height="10" width="10"/>
<path d="M3,0H0c0,5.5,4.5,10,10,10V7C6.14,7,3,3.859,3,0z" fill="#FFFFFF" fill-opacity="0.2" stroke-opacity="0.2"/>
<path d="M3,0H2c0,4.411,3.589,8,8,8V7C6.14,7,3,3.859,3,0z" fill-opacity="0.55" stroke-opacity="0.55"/>
<path d="M3,0c0,3.859,3.14,7,7,7V0H3z" fill="#2C414D" fill-opacity="0.85" stroke-opacity="0.85"/>
<linearGradient gradientUnits="userSpaceOnUse" id="SVGID_1_" x1="6.5" x2="6.5" y1="7" y2="-86.9398">
<stop offset="0" style="stop-color:#1C1C1C"/>
<stop offset="1" style="stop-color:#4A4A4A"/>
</linearGradient>
<path d="M3,0c0,3.859,3.14,7,7,7V0H3z" fill="url(#SVGID_1_)" fill-opacity="0.8" stroke-opacity="0.8"/>
<path d="M7,0H3c0,3.859,3.14,7,7,7V3C8.346,3,7,1.654,7,0z" fill="#FFFFFF" fill-opacity="0.05" stroke-opacity="0.05"/>
<path d="M6,0H3c0,3.859,3.14,7,7,7V4C7.794,4,6,2.206,6,0z" fill="#FFFFFF" fill-opacity="0.05" stroke-opacity="0.05"/>
<path d="M5,0H3c0,3.859,3.14,7,7,7V5C7.243,5,5,2.757,5,0z" fill="#FFFFFF" fill-opacity="0.15" stroke-opacity="0.15"/>
<linearGradient gradientUnits="userSpaceOnUse" id="SVGID_2_" x1="6.5" x2="6.5" y1="7" y2="-86.846">
<stop offset="0" style="stop-color:#FFFFFF;stop-opacity:0.1"/>
<stop offset="1" style="stop-color:#FFFFFF;stop-opacity:0.6"/>
</linearGradient>
<path d="M4,0H3c0,3.859,3.14,7,7,7V6C6.691,6,4,3.309,4,0z" fill="url(#SVGID_2_)"/>
</svg>
