<?xml version="1.0" encoding="UTF-8"?>
<!DOCTYPE svg PUBLIC "-//W3C//DTD SVG 1.1 Tiny//EN" "http://www.w3.org/Graphics/SVG/1.1/DTD/svg11-tiny.dtd">
<svg baseProfile="tiny" height="10.0" version="1.1" viewBox="0.0 0.0 10.0 10.0" width="10.0" x="0.0" xmlns="http://www.w3.org/2000/svg" xmlns:xlink="http://www.w3.org/1999/xlink" y="0.0">
<linearGradient gradientUnits="userSpaceOnUse" id="SVGID_1_" x1="160.0005" x2="160.0005" y1="50.0" y2="4.882813E-4">
<stop offset="0" style="stop-color:#5CB4FF;stop-opacity:0.6"/>
<stop offset="0.7" style="stop-color:#A5A5A5;stop-opacity:0.5"/>
<stop offset="1" style="stop-color:#5C7065;stop-opacity:0.7"/>
</linearGradient>
<rect fill="url(#SVGID_1_)" height="10.0" width="10.0" x="0.0" y="0.0"/>
<path d="M 3.0 10.0 V 3.0 H 10.0 L 10.0 2.0 H 2.0 v 8.0 L 3.0 10.0 z" fill="#FFFFFF" fill-opacity="0.1" stroke-opacity="0.1"/>
<path d="M 4.0 10.0 V 4.0 H 10.0 L 10.0 2.0 H 2.0 v 8.0 L 4.0 10.0 z" fill="#FFFFFF" fill-opacity="0.05" stroke-opacity="0.05"/>
<path d="M 5.0 10.0 V 5.0 H 10.0 L 10.0 2.0 H 2.0 v 8.0 L 5.0 10.0 z" fill="#FFFFFF" fill-opacity="0.05" stroke-opacity="0.05"/>
<linearGradient gradientUnits="userSpaceOnUse" id="SVGID_2_" x1="160.0005" x2="160.0005" y1="49.0" y2="1.0005">
<stop offset="0" style="stop-color:#FFFFFF;stop-opacity:0.1"/>
<stop offset="1" style="stop-color:#FFFFFF;stop-opacity:0.6"/>
</linearGradient>
<path d="M 10.0 1.0 H 1.0 v 9.0 L 2.0 10.0 V 2.0 h 8.0 L 10.0 1.0 z" fill="url(#SVGID_2_)"/>
<path d="M 1.0 10.0 V 1.0 H 10.0 L 10.0 0.0 H 0.0 v 10.0 L 0.0 10.0 L 1.0 10.0 z" fill-opacity="0.3" stroke-opacity="0.3"/>
<linearGradient gradientUnits="userSpaceOnUse" id="SVGID_3_" x1="1.0" x2="319.0" y1="1.5" y2="1.5">
<stop offset="0" style="stop-color:#FFFFFF;stop-opacity:0.1"/>
<stop offset="0.5" style="stop-color:#FFFFFF"/>
<stop offset="1" style="stop-color:#FFFFFF;stop-opacity:0.1"/>
</linearGradient>
<rect fill="url(#SVGID_3_)" height="1.0" width="9.0" x="1.0" y="1.0"/>
<linearGradient gradientUnits="userSpaceOnUse" x1="1.0" x2="319.0" y1="48.5" y2="48.5">
<stop offset="0" style="stop-color:#FFFFFF;stop-opacity:0"/>
<stop offset="0.5" style="stop-color:#FFFFFF;stop-opacity:0.4"/>
<stop offset="1" style="stop-color:#FFFFFF;stop-opacity:0"/>
</linearGradient>
</svg>
