<?xml version="1.0" encoding="UTF-8"?>
<!DOCTYPE svg PUBLIC "-//W3C//DTD SVG 1.1 Tiny//EN" "http://www.w3.org/Graphics/SVG/1.1/DTD/svg11-tiny.dtd">
<svg baseProfile="tiny" height="10px" version="1.1" viewBox="0 0 10 10" width="10px" x="0px" xmlns="http://www.w3.org/2000/svg" xmlns:xlink="http://www.w3.org/1999/xlink" y="0px">
<rect fill="none" height="10" width="10"/>
<path d="M0,0v3c3.859,0,7,3.141,7,7h3C10,4.5,5.5,0,0,0z" fill="#FFFFFF" fill-opacity="0.2" stroke-opacity="0.2"/>
<path d="M0,2v1c3.859,0,7,3.141,7,7h1C8,5.589,4.411,2,0,2z" fill-opacity="0.55" stroke-opacity="0.55"/>
<path d="M7,10c0-3.859-3.141-7-7-7v7H7z" fill="#2C414D" fill-opacity="0.85" stroke-opacity="0.85"/>
<linearGradient gradientUnits="userSpaceOnUse" id="SVGID_1_" x1="3.5" x2="3.5" y1="97.001" y2="3.0612">
<stop offset="0" style="stop-color:#1C1C1C"/>
<stop offset="1" style="stop-color:#4A4A4A"/>
</linearGradient>
<path d="M7,10c0-3.859-3.141-7-7-7v7H7z" fill="url(#SVGID_1_)" fill-opacity="0.8" stroke-opacity="0.8"/>
<path d="M0,3v4c1.654,0,3,1.346,3,3h4C7,6.141,3.859,3,0,3z" fill="#FFFFFF" fill-opacity="0.05" stroke-opacity="0.05"/>
<path d="M0,3v3c2.205,0,4,1.794,4,4h3C7,6.141,3.859,3,0,3z" fill="#FFFFFF" fill-opacity="0.05" stroke-opacity="0.05"/>
<path d="M0,3v2c2.757,0,5,2.243,5,5h2C7,6.141,3.859,3,0,3z" fill="#FFFFFF" fill-opacity="0.15" stroke-opacity="0.15"/>
<linearGradient gradientUnits="userSpaceOnUse" id="SVGID_2_" x1="3.5" x2="3.5" y1="97.001" y2="3.155">
<stop offset="0" style="stop-color:#FFFFFF;stop-opacity:0.1"/>
<stop offset="1" style="stop-color:#FFFFFF;stop-opacity:0.6"/>
</linearGradient>
<path d="M0,3v1c3.309,0,6,2.691,6,6h1C7,6.141,3.859,3,0,3z" fill="url(#SVGID_2_)"/>
</svg>
