<?xml version="1.0" encoding="UTF-8"?>
<!DOCTYPE svg PUBLIC "-//W3C//DTD SVG 1.1 Tiny//EN" "http://www.w3.org/Graphics/SVG/1.1/DTD/svg11-tiny.dtd">
<svg baseProfile="tiny" height="30" viewBox="0 0 30 30" width="30" xmlns="http://www.w3.org/2000/svg" xmlns:xlink="http://www.w3.org/1999/xlink">
<g>
<rect fill="none" fill-opacity="0.5" height="30" stroke-opacity="0.5" width="30"/>
<linearGradient gradientUnits="userSpaceOnUse" id="SVGID_1_" x1="15.0005" x2="15.0005" y1="29" y2="1.0005">
<stop offset="0" style="stop-color:#FAFBFD;stop-opacity:0.35"/>
<stop offset="0.1818" style="stop-color:#FAFBFD;stop-opacity:0.15"/>
<stop offset="0.9267" style="stop-color:#FAFBFD;stop-opacity:0.4686"/>
<stop offset="1" style="stop-color:#FAFBFD;stop-opacity:0.5"/>
</linearGradient>
<path d="M15,29C7.281,29,1,22.72,1,15C1,7.281,7.281,1,15,1s14,6.281,14,14  C29,22.72,22.719,29,15,29L15,29z" fill="url(#SVGID_1_)" fill-opacity="0.8" stroke-opacity="0.8"/>
<linearGradient gradientUnits="userSpaceOnUse" id="SVGID_2_" x1="1" x2="29" y1="15" y2="15">
<stop offset="0" style="stop-color:#FFFFFF;stop-opacity:0.5"/>
<stop offset="0.5" style="stop-color:#FFFFFF"/>
<stop offset="1" style="stop-color:#FFFFFF;stop-opacity:0.5"/>
</linearGradient>
<path d="M15,3c6.617,0,12,5.383,12,12s-5.383,12-12,12S3,21.617,3,15S8.383,3,15,3 M15,1  C7.281,1,1,7.281,1,15c0,7.72,6.281,14,14,14s14-6.28,14-14C29,7.281,22.719,1,15,1L15,1z" fill="url(#SVGID_2_)"/>
<path d="M15,1c7.72,0,14,6.28,14,14s-6.28,14-14,14S1,22.72,1,15S7.28,1,15,1 M15,0C6.729,0,0,6.729,0,15  c0,8.271,6.729,15,15,15s15-6.729,15-15C30,6.729,23.271,0,15,0L15,0z" fill-opacity="0.15" stroke-opacity="0.15"/>
<linearGradient gradientUnits="userSpaceOnUse" id="SVGID_3_" x1="14.9995" x2="14.9995" y1="7.125" y2="23.2505">
<stop offset="0" style="stop-color:#FFFFFF"/>
<stop offset="0.4" style="stop-color:#C3D1D9"/>
<stop offset="1" style="stop-color:#FEFEFE"/>
</linearGradient>
<path d="M15,23c-4.411,0-8-3.589-8-8c0-4.409,3.589-8,8-8s8,3.591,8,8C23,19.411,19.411,23,15,23L15,23z" fill="url(#SVGID_3_)"/>
<linearGradient gradientUnits="userSpaceOnUse" id="SVGID_4_" x1="15.0005" x2="15.0005" y1="23" y2="7.0005">
<stop offset="0" style="stop-color:#FFFFFF;stop-opacity:0"/>
<stop offset="0.5" style="stop-color:#FFFFFF"/>
<stop offset="1" style="stop-color:#FFFFFF;stop-opacity:0"/>
</linearGradient>
<path d="M15,8c3.859,0,7,3.142,7,7c0,3.86-3.141,7-7,7s-7-3.14-7-7C8,11.142,11.141,8,15,8 M15,7  c-4.411,0-8,3.591-8,8c0,4.411,3.589,8,8,8s8-3.589,8-8C23,10.591,19.411,7,15,7L15,7z" fill="url(#SVGID_4_)"/>
<path d="M15,3C8.383,3,3,8.383,3,15c0,6.238,4.785,11.374,10.877,11.943C8.337,26.379,4,21.687,4,16  C4,9.935,8.935,5,15,5s11,4.935,11,11c0,5.687-4.337,10.379-9.877,10.943C22.215,26.374,27,21.238,27,15C27,8.383,21.617,3,15,3z" fill-opacity="0.2" stroke-opacity="0.2"/>
<path d="M15,4c6.448,0,11.71,5.115,11.975,11.5C26.981,15.333,27,15.169,27,15c0-6.617-5.383-12-12-12S3,8.383,3,15  c0,0.169,0.019,0.333,0.025,0.5C3.29,9.115,8.552,4,15,4z" fill-opacity="0.2" stroke-opacity="0.2"/>
</g>
</svg>
