<?xml version="1.0" encoding="UTF-8"?>
<!DOCTYPE svg PUBLIC "-//W3C//DTD SVG 1.1 Tiny//EN" "http://www.w3.org/Graphics/SVG/1.1/DTD/svg11-tiny.dtd">
<svg baseProfile="tiny" height="10.0" version="1.1" viewBox="0.0 0.0 10.0 10.0" width="10.0" x="0.0" xmlns="http://www.w3.org/2000/svg" xmlns:xlink="http://www.w3.org/1999/xlink" y="0.0">
<linearGradient gradientUnits="userSpaceOnUse" id="SVGID_1_" x1="-24.9995" x2="-24.9995" y1="8.0" y2="-37.9995">
<stop offset="0" style="stop-color:#1E1E1E"/>
<stop offset="1" style="stop-color:#939393;stop-opacity:0.95"/>
</linearGradient>
<path d="M 8.0 2.0 c 0.0 3.301 -2.701 6.0 -6.0 6.0 H 0.0 L 0.0 0.0 L 8.0 0.0 V 2.0 z" fill="url(#SVGID_1_)" fill-opacity="0.5" stroke-opacity="0.5"/>
<linearGradient gradientUnits="userSpaceOnUse" id="SVGID_2_" x1="-24.9995" x2="-24.9995" y1="7.0" y2="-36.9995">
<stop offset="0" style="stop-color:#FFFFFF;stop-opacity:0.1"/>
<stop offset="1" style="stop-color:#FFFFFF;stop-opacity:0.6"/>
</linearGradient>
<path d="M 0.0 7.0 h 2.0 c 2.756 0.0 5.0 -2.243 5.0 -5.0 V 0.0 L 6.0 0.0 V 2.0 c 0.0 2.206 -1.795 4.0 -4.0 4.0 H 0.0 L 0.0 7.0 M 6.0 2.0 z" fill="url(#SVGID_2_)"/>
<path d="M 0.0 8.0 h 2.0 c 3.299 0.0 6.0 -2.699 6.0 -6.0 V 0.0 L 7.0 0.0 V 2.0 c 0.0 2.757 -2.244 5.0 -5.0 5.0 H 0.0 L 0.0 8.0 M 7.0 2.0 z" fill-opacity="0.3" stroke-opacity="0.3"/>
<path d="M 8.0 0.0 v 2.0 c 0.0 3.301 -2.701 6.0 -6.0 6.0 H 0.0 L 0.0 10.0 h 2.0 c 4.411 0.0 8.0 -3.589 8.0 -8.0 V 0.0 L 8.0 0.0 z" fill="#FFFFFF" fill-opacity="0.1" stroke-opacity="0.1"/>
<linearGradient gradientUnits="userSpaceOnUse" x1="-52.0" x2="2.0" y1="-36.5" y2="-36.5">
<stop offset="0" style="stop-color:#FFFFFF;stop-opacity:0.1"/>
<stop offset="0.5" style="stop-color:#FFFFFF"/>
<stop offset="1" style="stop-color:#FFFFFF;stop-opacity:0.1"/>
</linearGradient>
<linearGradient gradientUnits="userSpaceOnUse" id="SVGID_4_" x1="-52.0" x2="2.0" y1="6.5" y2="6.5">
<stop offset="0" style="stop-color:#FFFFFF;stop-opacity:0"/>
<stop offset="0.5" style="stop-color:#FFFFFF;stop-opacity:0.4"/>
<stop offset="1" style="stop-color:#FFFFFF;stop-opacity:0"/>
</linearGradient>
<rect fill="url(#SVGID_4_)" height="1.0" width="2.0" x="0.0" y="6.0"/>
<path d="M 3.0 0.0 v 2.0 c 0.0 0.552 -0.449 1.0 -1.0 1.0 H 0.0 L 0.0 6.0 h 2.0 c 2.205 0.0 4.0 -1.794 4.0 -4.0 V 0.0 L 3.0 0.0 z" fill="#FFFFFF" fill-opacity="0.05" stroke-opacity="0.05"/>
<path d="M 4.0 0.0 v 2.0 c 0.0 1.103 -0.897 2.0 -2.0 2.0 H 0.0 L 0.0 6.0 h 2.0 c 2.205 0.0 4.0 -1.794 4.0 -4.0 V 0.0 L 4.0 0.0 z" fill="#FFFFFF" fill-opacity="0.05" stroke-opacity="0.05"/>
<path d="M 5.0 0.0 v 2.0 c 0.0 1.654 -1.346 3.0 -3.0 3.0 H 0.0 L 0.0 6.0 h 2.0 c 2.205 0.0 4.0 -1.794 4.0 -4.0 V 0.0 L 5.0 0.0 z" fill="#FFFFFF" fill-opacity="0.1" stroke-opacity="0.1"/>
</svg>
