<?xml version="1.0" encoding="UTF-8"?>
<!DOCTYPE svg PUBLIC "-//W3C//DTD SVG 1.1 Tiny//EN" "http://www.w3.org/Graphics/SVG/1.1/DTD/svg11-tiny.dtd">
<svg baseProfile="tiny" height="30px" version="1.1" viewBox="0 0 30 30" width="30px" x="0px" xmlns="http://www.w3.org/2000/svg" xmlns:xlink="http://www.w3.org/1999/xlink" y="0px">
<rect fill="none" height="30" width="30"/>
<path d="M27,24h-7c-0.553,0-1-0.447-1-1s0.447-1,1-1h6v-9H12v5c0,0.369-0.203,0.707-0.528,0.882  c-0.324,0.175-0.72,0.155-1.026-0.05l-9-6C1.167,12.646,1,12.334,1,12s0.167-0.646,0.445-0.832l9-6  c0.46-0.308,1.08-0.183,1.387,0.277c0.307,0.459,0.183,1.081-0.277,1.387L3.803,12L10,16.131V12c0-0.552,0.447-1,1-1h16  c0.553,0,1,0.448,1,1v11C28,23.553,27.553,24,27,24L27,24z" fill="#FFFFFF"/>
</svg>
