<?xml version="1.0" encoding="UTF-8"?>
<!DOCTYPE svg PUBLIC "-//W3C//DTD SVG 1.1 Tiny//EN" "http://www.w3.org/Graphics/SVG/1.1/DTD/svg11-tiny.dtd">
<svg baseProfile="tiny" height="30" viewBox="0 0 30 30" width="30" xmlns="http://www.w3.org/2000/svg" xmlns:xlink="http://www.w3.org/1999/xlink">
<g>
<rect fill="none" height="30" width="30"/>
<linearGradient gradientUnits="userSpaceOnUse" id="SVGID_1_" x1="15.0005" x2="15.0005" y1="29" y2="1.0005">
<stop offset="0" style="stop-color:#FAFBFD;stop-opacity:0.35"/>
<stop offset="0.1818" style="stop-color:#FAFBFD;stop-opacity:0.15"/>
<stop offset="0.9267" style="stop-color:#FAFBFD;stop-opacity:0.4686"/>
<stop offset="1" style="stop-color:#FAFBFD;stop-opacity:0.5"/>
</linearGradient>
<rect fill="url(#SVGID_1_)" fill-opacity="0.8" height="28" stroke-opacity="0.8" width="28" x="1" y="1"/>
<linearGradient gradientUnits="userSpaceOnUse" id="SVGID_2_" x1="1" x2="29" y1="15" y2="15">
<stop offset="0" style="stop-color:#FFFFFF;stop-opacity:0.5"/>
<stop offset="0.5" style="stop-color:#FFFFFF"/>
<stop offset="1" style="stop-color:#FFFFFF;stop-opacity:0.5"/>
</linearGradient>
<path d="M27,3v24H3V3H27 M29,1H1v28h28V1L29,1z" fill="url(#SVGID_2_)"/>
<path d="M0,0v30h30V0H0z M29,29H1V1h28V29z" fill-opacity="0.15" stroke-opacity="0.15"/>
<polygon fill-opacity="0.2" points="3,3 3,27 4,27 4,5 26,5 26,27 27,27 27,3 " stroke-opacity="0.2"/>
<rect fill-opacity="0.2" height="1" stroke-opacity="0.2" width="24" x="3" y="3"/>
</g>
</svg>
