<?xml version="1.0" encoding="UTF-8"?>
<!DOCTYPE svg PUBLIC "-//W3C//DTD SVG 1.1 Tiny//EN" "http://www.w3.org/Graphics/SVG/1.1/DTD/svg11-tiny.dtd">
<svg baseProfile="tiny" height="20px" version="1.1" viewBox="0 0 20 20" width="20px" x="0px" xmlns="http://www.w3.org/2000/svg" xmlns:xlink="http://www.w3.org/1999/xlink" y="0px">
<rect fill="none" height="20" width="20"/>
<rect fill="none" height="20" width="20"/>
<path d="M16,10c0,3.3-2.701,6-6,6c-3.301,0-6-2.7-6-6V0h12V10z" fill="url(#SVGID_1_)"/>
<path d="M14,10V0h1v10c0,2.757-2.244,5-5,5c-2.758,0-5-2.243-5-5V0h1v10c0,2.205,1.793,4,4,4  C12.205,14,14,12.205,14,10z" fill="#FFFFFF" fill-opacity="0.2" stroke-opacity="0.2"/>
<path d="M5,10c0,2.757,2.242,5,5,5c2.756,0,5-2.243,5-5V0h1v10c0,3.3-2.701,6-6,6c-3.301,0-6-2.7-6-6V0h1V10z" fill-opacity="0.2" stroke-opacity="0.2"/>
<defs>
<linearGradient gradientTransform="matrix(0 -1 -1 0 -651 817)" gradientUnits="userSpaceOnUse" id="SVGID_1_" x1="809" x2="809" y1="-666.9995" y2="-655">
<stop offset="0" style="stop-color:#B4B4BE"/>
<stop offset="1" style="stop-color:#D2D2DC"/>
</linearGradient>
</defs>
</svg>
