<?xml version="1.0" encoding="UTF-8"?>
<!DOCTYPE svg PUBLIC "-//W3C//DTD SVG 1.1 Tiny//EN" "http://www.w3.org/Graphics/SVG/1.1/DTD/svg11-tiny.dtd">
<svg baseProfile="tiny" height="20px" version="1.1" viewBox="0 0 20 20" width="20px" x="0px" xmlns="http://www.w3.org/2000/svg" xmlns:xlink="http://www.w3.org/1999/xlink" y="0px">
<rect fill="none" height="20" width="20"/>
<rect fill="none" height="20" width="20"/>
<path d="M10,4c3.3,0,6,2.7,6,6s-2.7,6-6,6H0V4H10z" fill="url(#SVGID_1_)"/>
<path d="M10,6H0V5h10c2.757,0,5,2.243,5,5s-2.243,5-5,5H0v-1h10c2.205,0,4-1.794,4-4S12.205,6,10,6z" fill="#FFFFFF" fill-opacity="0.2" stroke-opacity="0.2"/>
<path d="M10,15c2.757,0,5-2.243,5-5s-2.243-5-5-5H0V4h10c3.3,0,6,2.7,6,6s-2.7,6-6,6H0v-1H10z" fill-opacity="0.2" stroke-opacity="0.2"/>
<rect fill="none" height="20" width="20"/>
<defs>
<linearGradient gradientTransform="matrix(-1 0 0 1 -1722 0)" gradientUnits="userSpaceOnUse" id="SVGID_1_" x1="-1730" x2="-1730" y1="4" y2="16.0005">
<stop offset="0" style="stop-color:#B4B4BE"/>
<stop offset="1" style="stop-color:#D2D2DC"/>
</linearGradient>
</defs>
</svg>
