<?xml version="1.0" encoding="UTF-8"?>
<!DOCTYPE svg PUBLIC "-//W3C//DTD SVG 1.1 Tiny//EN" "http://www.w3.org/Graphics/SVG/1.1/DTD/svg11-tiny.dtd">
<svg baseProfile="tiny" height="10px" version="1.1" viewBox="0 0 10 10" width="10px" x="0px" xmlns="http://www.w3.org/2000/svg" xmlns:xlink="http://www.w3.org/1999/xlink" y="0px">
<rect fill="none" height="10" width="10"/>
<path d="M10,3V0C4.5,0,0,4.5,0,10h3C3,6.141,6.14,3,10,3z" fill="#FFFFFF" fill-opacity="0.2" stroke-opacity="0.2"/>
<path d="M10,3V2c-4.411,0-8,3.589-8,8h1C3,6.141,6.14,3,10,3z" fill-opacity="0.55" stroke-opacity="0.55"/>
<path d="M10,3c-3.86,0-7,3.141-7,7h7V3z" fill="#91D8FF" fill-opacity="0.85" stroke-opacity="0.85"/>
<path d="M10,3c-3.86,0-7,3.141-7,7h7V3z" fill="#4D4D4D" fill-opacity="0.8" stroke-opacity="0.8"/>
<path d="M10,7V3c-3.86,0-7,3.141-7,7h4C7,8.346,8.346,7,10,7z" fill="#FFFFFF" fill-opacity="0.05" stroke-opacity="0.05"/>
<path d="M10,6V3c-3.86,0-7,3.141-7,7h3C6,7.794,7.794,6,10,6z" fill="#FFFFFF" fill-opacity="0.05" stroke-opacity="0.05"/>
<path d="M10,5V3c-3.86,0-7,3.141-7,7h2C5,7.243,7.243,5,10,5z" fill="#FFFFFF" fill-opacity="0.15" stroke-opacity="0.15"/>
<path d="M10,4V3c-3.86,0-7,3.141-7,7h1C4,6.691,6.691,4,10,4z" fill="url(#SVGID_1_)"/>
<defs>
<linearGradient gradientUnits="userSpaceOnUse" id="SVGID_1_" x1="6.5" x2="6.5" y1="96.834" y2="2.9994">
<stop offset="0" style="stop-color:#FFFFFF;stop-opacity:0.1"/>
<stop offset="1" style="stop-color:#FFFFFF;stop-opacity:0.6"/>
</linearGradient>
</defs>
</svg>
