<?xml version="1.0" encoding="UTF-8"?>
<!DOCTYPE svg PUBLIC "-//W3C//DTD SVG 1.1 Tiny//EN" "http://www.w3.org/Graphics/SVG/1.1/DTD/svg11-tiny.dtd">
<svg baseProfile="tiny" height="10px" version="1.1" viewBox="0 0 10 10" width="10px" x="0px" xmlns="http://www.w3.org/2000/svg" xmlns:xlink="http://www.w3.org/1999/xlink" y="0px">
<rect fill="none" height="10" width="10"/>
<path d="M0,7v3c5.5,0,10-4.5,10-10H7C7,3.859,3.859,7,0,7z" fill="#FFFFFF" fill-opacity="0.2" stroke-opacity="0.2"/>
<path d="M0,7v1c4.411,0,8-3.589,8-8H7C7,3.859,3.859,7,0,7z" fill-opacity="0.55" stroke-opacity="0.55"/>
<path d="M0,7c3.859,0,7-3.141,7-7H0V7z" fill="#91D8FF" fill-opacity="0.85" stroke-opacity="0.85"/>
<path d="M0,7c3.859,0,7-3.141,7-7H0V7z" fill="#4D4D4D" fill-opacity="0.8" stroke-opacity="0.8"/>
<path d="M0,3v4c3.859,0,7-3.141,7-7H3C3,1.654,1.654,3,0,3z" fill="#FFFFFF" fill-opacity="0.05" stroke-opacity="0.05"/>
<path d="M0,4v3c3.859,0,7-3.141,7-7H4C4,2.206,2.205,4,0,4z" fill="#FFFFFF" fill-opacity="0.05" stroke-opacity="0.05"/>
<path d="M0,5v2c3.859,0,7-3.141,7-7H5C5,2.757,2.757,5,0,5z" fill="#FFFFFF" fill-opacity="0.15" stroke-opacity="0.15"/>
<path d="M0,6v1c3.859,0,7-3.141,7-7H6C6,3.309,3.309,6,0,6z" fill="url(#SVGID_1_)"/>
<defs>
<linearGradient gradientUnits="userSpaceOnUse" id="SVGID_1_" x1="3.5" x2="3.5" y1="6.834" y2="-87.0006">
<stop offset="0" style="stop-color:#FFFFFF;stop-opacity:0.1"/>
<stop offset="1" style="stop-color:#FFFFFF;stop-opacity:0.6"/>
</linearGradient>
</defs>
</svg>
