<?xml version="1.0" encoding="UTF-8"?>
<!DOCTYPE svg PUBLIC "-//W3C//DTD SVG 1.1 Tiny//EN" "http://www.w3.org/Graphics/SVG/1.1/DTD/svg11-tiny.dtd">
<svg baseProfile="tiny" height="10.0" version="1.1" viewBox="0.0 0.0 10.0 10.0" width="10.0" x="0.0" xmlns="http://www.w3.org/2000/svg" xmlns:xlink="http://www.w3.org/1999/xlink" y="0.0">
<path d="M 10.0 8.0 H 8.0 c -3.301 0.0 -6.0 -2.699 -6.0 -6.0 V 0.0 L 0.0 0.0 v 2.0 c 0.0 4.411 3.589 8.0 8.0 8.0 h 2.0 L 10.0 8.0 z" fill="#FFFFFF" fill-opacity="0.1" stroke-opacity="0.1"/>
<path d="M 10.0 8.0 H 8.0 c -3.301 0.0 -6.0 -2.699 -6.0 -6.0 V 0.0 L 10.0 0.0 L 10.0 8.0 z" fill="url(#SVGID_1_)" fill-opacity="0.67" stroke-opacity="0.67"/>
<path d="M 2.0 0.0 v 2.0 c 0.0 3.301 2.699 6.0 6.0 6.0 h 2.0 L 10.0 7.0 H 8.0 c -2.758 0.0 -5.0 -2.243 -5.0 -5.0 V 0.0 L 2.0 0.0 z" fill-opacity="0.4" stroke-opacity="0.4"/>
<defs>
<linearGradient gradientUnits="userSpaceOnUse" id="SVGID_1_" x1="35.0005" x2="35.0005" y1="8.0" y2="-37.9995">
<stop offset="0" style="stop-color:#5CB4FF"/>
<stop offset="1" style="stop-color:#5CB4FF;stop-opacity:0.2"/>
</linearGradient>
</defs>
</svg>
