<?xml version="1.0" encoding="UTF-8"?>
<!DOCTYPE svg PUBLIC "-//W3C//DTD SVG 1.1 Tiny//EN" "http://www.w3.org/Graphics/SVG/1.1/DTD/svg11-tiny.dtd">
<svg baseProfile="tiny" height="10px" version="1.1" viewBox="0 0 10 10" width="10px" x="0px" xmlns="http://www.w3.org/2000/svg" xmlns:xlink="http://www.w3.org/1999/xlink" y="0px">
<rect fill="none" height="10" width="10"/>
<path d="M10,10V7C6.14,7,3,3.859,3,0H0C0,5.5,4.5,10,10,10z" fill="#FFFFFF" fill-opacity="0.2" stroke-opacity="0.2"/>
<path d="M10,8V7C6.14,7,3,3.859,3,0H2C2,4.411,5.589,8,10,8z" fill-opacity="0.55" stroke-opacity="0.55"/>
<path d="M10,7V0H3C3,3.859,6.14,7,10,7z" fill="#91D8FF" fill-opacity="0.85" stroke-opacity="0.85"/>
<path d="M10,7V0H3C3,3.859,6.14,7,10,7z" fill="#4D4D4D" fill-opacity="0.8" stroke-opacity="0.8"/>
<path d="M10,7V3C8.346,3,7,1.654,7,0H3C3,3.859,6.14,7,10,7z" fill="#FFFFFF" fill-opacity="0.05" stroke-opacity="0.05"/>
<path d="M10,7V4C7.794,4,6,2.206,6,0H3C3,3.859,6.14,7,10,7z" fill="#FFFFFF" fill-opacity="0.05" stroke-opacity="0.05"/>
<path d="M10,7V5C7.243,5,5,2.757,5,0H3C3,3.859,6.14,7,10,7z" fill="#FFFFFF" fill-opacity="0.15" stroke-opacity="0.15"/>
<path d="M10,7V6C6.691,6,4,3.309,4,0H3C3,3.859,6.14,7,10,7z" fill="url(#SVGID_1_)"/>
<defs>
<linearGradient gradientUnits="userSpaceOnUse" id="SVGID_1_" x1="6.5" x2="6.5" y1="6.834" y2="-87.0006">
<stop offset="0" style="stop-color:#FFFFFF;stop-opacity:0.1"/>
<stop offset="1" style="stop-color:#FFFFFF;stop-opacity:0.6"/>
</linearGradient>
</defs>
</svg>
