<?xml version="1.0" encoding="utf-8"?>
<!-- Generator: Adobe Illustrator 13.0.2, SVG Export Plug-In  -->
<!DOCTYPE svg PUBLIC "-//W3C//DTD SVG 1.1//EN" "http://www.w3.org/Graphics/SVG/1.1/DTD/svg11.dtd" [
	<!ENTITY ns_flows "http://ns.adobe.com/Flows/1.0/">
]>
<svg version="1.1"
	 xmlns="http://www.w3.org/2000/svg" xmlns:xlink="http://www.w3.org/1999/xlink" xmlns:a="http://ns.adobe.com/AdobeSVGViewerExtensions/3.0/"
	 x="0px" y="0px" width="20px" height="40px" viewBox="0 0 20 40" enable-background="new 0 0 20 40" xml:space="preserve">
<defs>
</defs>
<rect fill-rule="evenodd" clip-rule="evenodd" fill="none" width="20" height="40"/>
<linearGradient id="SVGID_1_" gradientUnits="userSpaceOnUse" x1="1" y1="20" x2="19" y2="20">
	<stop  offset="0" style="stop-color:#FFFFFF"/>
	<stop  offset="1" style="stop-color:#8CE0FF"/>
</linearGradient>
<path fill-rule="evenodd" clip-rule="evenodd" fill="url(#SVGID_1_)" d="M10,2c-4.972,0-9,4.027-9,9v18c0,4.973,4.028,9,9,9
	s9-4.027,9-9V11C19,6.027,14.972,2,10,2z"/>
<linearGradient id="SVGID_2_" gradientUnits="userSpaceOnUse" x1="2.1064" y1="20" x2="17.4272" y2="20">
	<stop  offset="0" style="stop-color:#8CE0FF"/>
	<stop  offset="1" style="stop-color:#29ABE2"/>
</linearGradient>
<path fill-rule="evenodd" clip-rule="evenodd" fill="url(#SVGID_2_)" d="M10,36.999c-4.413,0-8.001-3.589-8.001-7.999V11
	c0-4.41,3.588-7.999,8.001-7.999c4.41,0,7.999,3.589,7.999,7.999v18C17.999,33.41,14.41,36.999,10,36.999L10,36.999z"/>
</svg>
