<?xml version="1.0" encoding="UTF-8" standalone="no"?>
<!-- Created with Inkscape (http://www.inkscape.org/) -->

<svg
   xmlns:dc="http://purl.org/dc/elements/1.1/"
   xmlns:cc="http://creativecommons.org/ns#"
   xmlns:rdf="http://www.w3.org/1999/02/22-rdf-syntax-ns#"
   xmlns:svg="http://www.w3.org/2000/svg"
   xmlns="http://www.w3.org/2000/svg"
   xmlns:xlink="http://www.w3.org/1999/xlink"
   xmlns:sodipodi="http://sodipodi.sourceforge.net/DTD/sodipodi-0.dtd"
   xmlns:inkscape="http://www.inkscape.org/namespaces/inkscape"
   width="30"
   height="16"
   id="svg3697"
   version="1.1"
   inkscape:version="0.47 r22583"
   sodipodi:docname="slider-knob-pressed.svg">
  <defs
     id="defs3699">
    <inkscape:perspective
       sodipodi:type="inkscape:persp3d"
       inkscape:vp_x="0 : 526.18109 : 1"
       inkscape:vp_y="0 : 1000 : 0"
       inkscape:vp_z="744.09448 : 526.18109 : 1"
       inkscape:persp3d-origin="372.04724 : 350.78739 : 1"
       id="perspective3705" />
    <inkscape:perspective
       id="perspective3735"
       inkscape:persp3d-origin="0.5 : 0.33333333 : 1"
       inkscape:vp_z="1 : 0.5 : 1"
       inkscape:vp_y="0 : 1000 : 0"
       inkscape:vp_x="0 : 0.5 : 1"
       sodipodi:type="inkscape:persp3d" />
    <linearGradient
       id="SVGID_15_"
       gradientUnits="userSpaceOnUse"
       x1="50"
       y1="101.9492"
       x2="50"
       y2="66.949203">
      <stop
         offset="0"
         style="stop-color:#E6E6E6"
         id="stop230" />
      <stop
         offset="0.5042"
         style="stop-color:#F2F2F2"
         id="stop232" />
      <stop
         offset="1"
         style="stop-color:#F7F7F7"
         id="stop234" />
    </linearGradient>
    <radialGradient
       inkscape:collect="always"
       xlink:href="#SVGID_14_"
       id="radialGradient3692"
       gradientUnits="userSpaceOnUse"
       gradientTransform="matrix(1.1052,0,0,1.1052,-88.168,62.1611)"
       cx="125.0166"
       cy="20.1665"
       r="19.0012" />
    <radialGradient
       id="SVGID_14_"
       cx="125.0166"
       cy="20.1665"
       r="19.0012"
       gradientTransform="matrix(1.1052,0,0,1.1052,-88.168,62.1611)"
       gradientUnits="userSpaceOnUse">
      <stop
         offset="0"
         style="stop-color:#000000"
         id="stop222" />
      <stop
         offset="1"
         style="stop-color:#000000;stop-opacity:0.1"
         id="stop224" />
    </radialGradient>
    <inkscape:perspective
       id="perspective3836"
       inkscape:persp3d-origin="0.5 : 0.33333333 : 1"
       inkscape:vp_z="1 : 0.5 : 1"
       inkscape:vp_y="0 : 1000 : 0"
       inkscape:vp_x="0 : 0.5 : 1"
       sodipodi:type="inkscape:persp3d" />
    <linearGradient
       id="SVGID_13_"
       gradientUnits="userSpaceOnUse"
       x1="132.0005"
       y1="101.9492"
       x2="132.0005"
       y2="66.949203">
      <stop
         offset="0"
         style="stop-color:#B3B3B3"
         id="stop207" />
      <stop
         offset="1"
         style="stop-color:#4D4D4D"
         id="stop209" />
    </linearGradient>
    <radialGradient
       inkscape:collect="always"
       xlink:href="#SVGID_12_"
       id="radialGradient3674"
       gradientUnits="userSpaceOnUse"
       gradientTransform="matrix(1.1052,0,0,1.1052,-92.2676,62.1611)"
       cx="202.9209"
       cy="20.1665"
       r="19.0012" />
    <radialGradient
       id="SVGID_12_"
       cx="202.9209"
       cy="20.1665"
       r="19.0012"
       gradientTransform="matrix(1.1052,0,0,1.1052,-92.2676,62.1611)"
       gradientUnits="userSpaceOnUse">
      <stop
         offset="0"
         style="stop-color:#000000"
         id="stop199" />
      <stop
         offset="1"
         style="stop-color:#000000;stop-opacity:0.1"
         id="stop201" />
    </radialGradient>
    <radialGradient
       inkscape:collect="always"
       xlink:href="#SVGID_12_"
       id="radialGradient3889"
       gradientUnits="userSpaceOnUse"
       gradientTransform="matrix(1.1052,0,0,1.1052,-14.910457,472.85999)"
       cx="202.9209"
       cy="20.1665"
       r="19.0012" />
    <linearGradient
       inkscape:collect="always"
       xlink:href="#SVGID_13_"
       id="linearGradient3891"
       gradientUnits="userSpaceOnUse"
       gradientTransform="translate(77.357143,410.69889)"
       x1="132.0005"
       y1="101.9492"
       x2="132.0005"
       y2="66.949203" />
    <inkscape:perspective
       id="perspective3964"
       inkscape:persp3d-origin="0.5 : 0.33333333 : 1"
       inkscape:vp_z="1 : 0.5 : 1"
       inkscape:vp_y="0 : 1000 : 0"
       inkscape:vp_x="0 : 0.5 : 1"
       sodipodi:type="inkscape:persp3d" />
    <linearGradient
       gradientTransform="translate(-33.214289,416.12746)"
       inkscape:collect="always"
       xlink:href="#SVGID_11_"
       id="linearGradient3653"
       gradientUnits="userSpaceOnUse"
       x1="193"
       y1="92.449203"
       x2="193"
       y2="80.449203" />
    <linearGradient
       id="SVGID_11_"
       gradientUnits="userSpaceOnUse"
       x1="193"
       y1="92.449203"
       x2="193"
       y2="80.449203">
      <stop
         offset="0"
         style="stop-color:#1A1A1A"
         id="stop188" />
      <stop
         offset="1"
         style="stop-color:#000000"
         id="stop190" />
    </linearGradient>
  </defs>
  <sodipodi:namedview
     id="base"
     pagecolor="#ffffff"
     bordercolor="#666666"
     borderopacity="1.0"
     inkscape:pageopacity="0.0"
     inkscape:pageshadow="2"
     inkscape:zoom="2.8"
     inkscape:cx="49.430972"
     inkscape:cy="2.222676"
     inkscape:document-units="px"
     inkscape:current-layer="layer1"
     showgrid="false"
     inkscape:window-width="552"
     inkscape:window-height="490"
     inkscape:window-x="2443"
     inkscape:window-y="380"
     inkscape:window-maximized="0" />
  <metadata
     id="metadata3702">
    <rdf:RDF>
      <cc:Work
         rdf:about="">
        <dc:format>image/svg+xml</dc:format>
        <dc:type
           rdf:resource="http://purl.org/dc/dcmitype/StillImage" />
        <dc:title></dc:title>
      </cc:Work>
    </rdf:RDF>
  </metadata>
  <g
     inkscape:label="Layer 1"
     inkscape:groupmode="layer"
     id="layer1"
     transform="translate(-144.78571,-494.57646)">
    <path
       style="fill:#ffffff"
       d="m 160,486.79075 c 9.374,0 17,7.626 17,17 0,9.374 -7.626,17 -17,17 -9.374,0 -17,-7.626 -17,-17 0,-9.374 7.626,-17 17,-17 m 0,-1 c -9.9,0 -18,8.1 -18,18 0,9.9 8.1,18 18,18 9.9,0 18,-8.1 18,-18 0,-9.9 -8.1,-18 -18,-18 l 0,0 z"
       id="path238" />
    <path
       style="opacity:0.2;fill:#010101"
       d="m 174.78571,504.57646 c 0,3.3 -2.7,6 -6,6 h -18 c -3.3,0 -6,-2.7 -6,-6 v -4 c 0,-3.3 2.7,-6 6,-6 h 18 c 3.3,0 6,2.7 6,6 v 4 z"
       id="path178" />
    <path
       style="fill:#cccccc"
       d="m 173.78571,504.57646 c 0,2.75 -2.25,5 -5,5 h -18 c -2.75,0 -5,-2.25 -5,-5 v -2 c 0,-2.75 2.25,-5 5,-5 h 18 c 2.75,0 5,2.25 5,5 v 2 z"
       id="path181" />
    <path
       style="fill:#010101"
       d="m 173.78571,502.57646 c 0,2.75 -2.25,5 -5,5 h -18 c -2.75,0 -5,-2.25 -5,-5 v -2 c 0,-2.75 2.25,-5 5,-5 h 18 c 2.75,0 5,2.25 5,5 v 2 z"
       id="path184" />
    <path
       style="fill:url(#linearGradient3653)"
       d="m 173.78571,503.57646 c 0,2.75 -2.25,5 -5,5 h -18 c -2.75,0 -5,-2.25 -5,-5 v -2 c 0,-2.75 2.25,-5 5,-5 h 18 c 2.75,0 5,2.25 5,5 v 2 z"
       id="path192" />
  </g>
</svg>
