<?xml version="1.0" encoding="UTF-8"?>
<!DOCTYPE svg PUBLIC "-//W3C//DTD SVG 1.1 Tiny//EN" "http://www.w3.org/Graphics/SVG/1.1/DTD/svg11-tiny.dtd">
<svg baseProfile="tiny" height="30px" version="1.1" viewBox="0 0 30 30" width="30px" x="0px" xmlns="http://www.w3.org/2000/svg" xmlns:xlink="http://www.w3.org/1999/xlink" y="0px">
<rect display="none" fill="#BABABA" height="30" width="30"/>
<rect fill="none" height="30" width="30"/>
<path d="M28.752,16.328c0,0.676-0.551,1.229-1.229,1.229H10.566l5.491,5.488  c0.476,0.482,0.476,1.262,0,1.74l-1.634,1.632c-0.476,0.476-1.259,0.476-1.736,0L2.141,15.87c-0.238-0.24-0.36-0.552-0.36-0.873  c0-0.153,0.028-0.312,0.091-0.464c0.059-0.145,0.147-0.283,0.269-0.401L3.768,12.5l0,0l8.919-8.917c0.479-0.479,1.263-0.479,1.74,0  l1.632,1.629c0.479,0.485,0.479,1.263,0,1.742l-5.836,5.836h17.305c0.678,0,1.226,0.554,1.226,1.229L28.752,16.328z" fill="#FFFFFF" stroke="#000000" stroke-width="2"/>
<path d="M28.752,16.33c0,0.676-0.551,1.229-1.229,1.229H10.566l5.491,5.488c0.476,0.482,0.476,1.262,0,1.74  l-1.634,1.631c-0.476,0.477-1.259,0.477-1.736,0L2.141,15.871c-0.238-0.24-0.36-0.552-0.36-0.873c0-0.152,0.028-0.312,0.091-0.463  c0.059-0.145,0.147-0.283,0.269-0.401l1.627-1.632l0,0l8.919-8.917c0.479-0.479,1.263-0.479,1.74,0l1.632,1.629  c0.479,0.485,0.479,1.263,0,1.742l-5.836,5.836h17.305c0.678,0,1.226,0.554,1.226,1.229L28.752,16.33L28.752,16.33z" fill="#FFFFFF"/>
<g display="none">
<path d="M28.752,16.328c0,0.676-0.551,1.229-1.229,1.229H10.566l5.491,5.488   c0.476,0.482,0.476,1.262,0,1.74l-1.634,1.632c-0.476,0.476-1.259,0.476-1.736,0L2.141,15.87c-0.238-0.24-0.36-0.552-0.36-0.873   c0-0.153,0.028-0.312,0.091-0.464c0.059-0.145,0.147-0.283,0.269-0.401L3.768,12.5l0,0l8.919-8.917c0.479-0.479,1.263-0.479,1.74,0   l1.632,1.629c0.479,0.485,0.479,1.263,0,1.742l-5.836,5.836h17.305c0.678,0,1.226,0.554,1.226,1.229L28.752,16.328L28.752,16.328z" display="inline" fill="#FFFFFF"/>
</g>
</svg>
