<?xml version="1.0" encoding="UTF-8"?>
<!DOCTYPE svg PUBLIC "-//W3C//DTD SVG 1.1 Tiny//EN" "http://www.w3.org/Graphics/SVG/1.1/DTD/svg11-tiny.dtd">
<svg baseProfile="tiny" height="30px" version="1.1" viewBox="0 0 30 30" width="30px" x="0px" xmlns="http://www.w3.org/2000/svg" xmlns:xlink="http://www.w3.org/1999/xlink" y="0px">
<rect fill="none" height="30" width="30"/>
<path d="M7.199,16.013c0,0.742-0.607,1.35-1.351,1.35H3.824  c-0.742,0-1.351-0.607-1.351-1.35v-2.025c0-0.742,0.608-1.35,1.351-1.35h2.024c0.743,0,1.351,0.607,1.351,1.35V16.013z" fill="#FFFFFF" stroke="#000000" stroke-width="2"/>
<path d="M27.526,16.013c0,0.742-0.608,1.35-1.351,1.35H12.523  c-0.743,0-1.351-0.607-1.351-1.35v-2.025c0-0.742,0.607-1.35,1.351-1.35h13.652c0.742,0,1.351,0.607,1.351,1.35V16.013z" fill="#FFFFFF" stroke="#000000" stroke-width="2"/>
<path d="M7.199,6.616c0,0.742-0.607,1.35-1.351,1.35H3.824  c-0.742,0-1.351-0.608-1.351-1.35V4.591c0-0.743,0.608-1.35,1.351-1.35h2.024c0.743,0,1.351,0.607,1.351,1.35V6.616z" fill="#FFFFFF" stroke="#000000" stroke-width="2"/>
<path d="M27.526,6.616c0,0.742-0.608,1.35-1.351,1.35H12.523  c-0.743,0-1.351-0.608-1.351-1.35V4.591c0-0.743,0.607-1.35,1.351-1.35h13.652c0.742,0,1.351,0.607,1.351,1.35V6.616z" fill="#FFFFFF" stroke="#000000" stroke-width="2"/>
<path d="M7.199,25.409c0,0.743-0.607,1.35-1.351,1.35H3.824  c-0.742,0-1.351-0.607-1.351-1.35v-2.025c0-0.742,0.608-1.35,1.351-1.35h2.024c0.743,0,1.351,0.608,1.351,1.35V25.409z" fill="#FFFFFF" stroke="#000000" stroke-width="2"/>
<path d="M27.526,25.409c0,0.743-0.608,1.35-1.351,1.35H12.523  c-0.743,0-1.351-0.607-1.351-1.35v-2.025c0-0.742,0.607-1.35,1.351-1.35h13.652c0.742,0,1.351,0.608,1.351,1.35V25.409z" fill="#FFFFFF" stroke="#000000" stroke-width="2"/>
<path d="M7.199,16.013c0,0.742-0.607,1.35-1.351,1.35H3.824c-0.742,0-1.351-0.607-1.351-1.35v-2.025  c0-0.742,0.608-1.35,1.351-1.35h2.024c0.743,0,1.351,0.607,1.351,1.35V16.013z" fill="#FFFFFF"/>
<path d="M27.526,16.013c0,0.742-0.608,1.35-1.351,1.35H12.523c-0.743,0-1.351-0.607-1.351-1.35v-2.025  c0-0.742,0.607-1.35,1.351-1.35h13.652c0.742,0,1.351,0.607,1.351,1.35V16.013z" fill="#FFFFFF"/>
<path d="M7.199,6.616c0,0.742-0.607,1.35-1.351,1.35H3.824c-0.742,0-1.351-0.608-1.351-1.35V4.591  c0-0.743,0.608-1.35,1.351-1.35h2.024c0.743,0,1.351,0.607,1.351,1.35V6.616z" fill="#FFFFFF"/>
<path d="M27.526,6.616c0,0.742-0.608,1.35-1.351,1.35H12.523c-0.743,0-1.351-0.608-1.351-1.35V4.591  c0-0.743,0.607-1.35,1.351-1.35h13.652c0.742,0,1.351,0.607,1.351,1.35V6.616z" fill="#FFFFFF"/>
<path d="M7.199,25.409c0,0.743-0.607,1.35-1.351,1.35H3.824c-0.742,0-1.351-0.607-1.351-1.35v-2.025  c0-0.742,0.608-1.35,1.351-1.35h2.024c0.743,0,1.351,0.608,1.351,1.35V25.409z" fill="#FFFFFF"/>
<path d="M27.526,25.409c0,0.743-0.608,1.35-1.351,1.35H12.523c-0.743,0-1.351-0.607-1.351-1.35v-2.025  c0-0.742,0.607-1.35,1.351-1.35h13.652c0.742,0,1.351,0.608,1.351,1.35V25.409z" fill="#FFFFFF"/>
</svg>
