<?xml version="1.0" encoding="UTF-8"?>
<!DOCTYPE svg PUBLIC "-//W3C//DTD SVG 1.1 Tiny//EN" "http://www.w3.org/Graphics/SVG/1.1/DTD/svg11-tiny.dtd">
<svg baseProfile="tiny" height="30px" version="1.1" viewBox="0 0 30 30" width="30px" x="0px" xmlns="http://www.w3.org/2000/svg" xmlns:xlink="http://www.w3.org/1999/xlink" y="0px">
<rect fill="none" height="30" width="30"/>
<path d="M28.423,16.141c0,0.672-0.558,1.229-1.232,1.229H2.812  c-0.677,0-1.234-0.557-1.234-1.229v-2.272c0-0.678,0.558-1.231,1.234-1.231H27.19c0.675,0,1.232,0.554,1.232,1.231V16.141z" fill="#FFFFFF" stroke="#000000" stroke-width="2"/>
<path d="M28.423,16.141c0,0.672-0.558,1.229-1.232,1.229H2.812c-0.677,0-1.234-0.557-1.234-1.229v-2.272  c0-0.678,0.558-1.231,1.234-1.231H27.19c0.675,0,1.232,0.554,1.232,1.231V16.141z" fill="#FFFFFF"/>
</svg>
