<?xml version="1.0" encoding="UTF-8"?>
<!DOCTYPE svg PUBLIC "-//W3C//DTD SVG 1.1 Tiny//EN" "http://www.w3.org/Graphics/SVG/1.1/DTD/svg11-tiny.dtd">
<svg baseProfile="tiny" height="30px" version="1.1" viewBox="0 0 30 30" width="30px" x="0px" xmlns="http://www.w3.org/2000/svg" xmlns:xlink="http://www.w3.org/1999/xlink" y="0px">
<rect fill="none" height="30" width="30"/>
<path d="M25.684,16.139c0,0.672-0.556,1.229-1.23,1.229H5.474  c-0.678,0-1.234-0.556-1.234-1.229v-2.273c0-0.678,0.557-1.231,1.234-1.231h18.979c0.675,0,1.23,0.554,1.23,1.231V16.139z   M25.761,5.528c0-0.679-0.554-1.231-1.231-1.231H5.545c-0.673,0-1.229,0.552-1.229,1.231v2.269c0,0.678,0.556,1.229,1.229,1.229  h18.984c0.675,0,1.229-0.551,1.231-1.229V5.528z M25.761,22.205c0-0.675-0.554-1.228-1.231-1.228H5.545  c-0.673,0-1.229,0.552-1.229,1.228v2.269c0,0.678,0.556,1.231,1.229,1.231h18.984c0.675,0,1.229-0.554,1.231-1.231V22.205z" fill="#FFFFFF" stroke="#000000" stroke-width="2"/>
<path d="M25.684,16.139c0,0.672-0.556,1.229-1.23,1.229H5.474c-0.678,0-1.234-0.556-1.234-1.229v-2.273  c0-0.678,0.557-1.231,1.234-1.231h18.979c0.675,0,1.23,0.554,1.23,1.231V16.139z M25.761,5.528c0-0.679-0.554-1.231-1.231-1.231  H5.545c-0.673,0-1.229,0.552-1.229,1.231v2.269c0,0.678,0.556,1.229,1.229,1.229h18.984c0.675,0,1.229-0.551,1.231-1.229V5.528z   M25.761,22.205c0-0.675-0.554-1.228-1.231-1.228H5.545c-0.673,0-1.229,0.552-1.229,1.228v2.269c0,0.678,0.556,1.231,1.229,1.231  h18.984c0.675,0,1.229-0.554,1.231-1.231V22.205z" fill="#FFFFFF"/>
</svg>
