<?xml version="1.0" encoding="UTF-8"?>
<!DOCTYPE svg PUBLIC "-//W3C//DTD SVG 1.1 Tiny//EN" "http://www.w3.org/Graphics/SVG/1.1/DTD/svg11-tiny.dtd">
<svg baseProfile="tiny" height="30px" version="1.1" viewBox="0 0 30 30" width="30px" x="0px" xmlns="http://www.w3.org/2000/svg" xmlns:xlink="http://www.w3.org/1999/xlink" y="0px">
<rect fill="none" height="30" width="30"/>
<path d="M28.422,16.14c0,0.672-0.557,1.229-1.231,1.229H2.812  c-0.678,0-1.234-0.556-1.234-1.229v-2.273c0-0.678,0.557-1.231,1.234-1.231h24.379c0.675,0,1.231,0.554,1.231,1.231V16.14z" fill="#FFFFFF" stroke="#000000" stroke-width="2"/>
<path d="M16.138,1.58c0.672,0,1.229,0.556,1.229,1.231V27.19  c0,0.678-0.557,1.234-1.229,1.234h-2.273c-0.677,0-1.231-0.556-1.231-1.234V2.812c0-0.675,0.554-1.231,1.231-1.231H16.138z" fill="#FFFFFF" stroke="#000000" stroke-width="2"/>
<path d="M28.422,16.14c0,0.672-0.557,1.229-1.231,1.229H2.812c-0.678,0-1.234-0.556-1.234-1.229v-2.273  c0-0.678,0.557-1.231,1.234-1.231h24.379c0.675,0,1.231,0.554,1.231,1.231V16.14z" fill="#FFFFFF"/>
<path d="M16.138,1.58c0.672,0,1.229,0.556,1.229,1.231V27.19c0,0.678-0.557,1.234-1.229,1.234h-2.273  c-0.677,0-1.231-0.556-1.231-1.234V2.812c0-0.675,0.554-1.231,1.231-1.231H16.138z" fill="#FFFFFF"/>
</svg>
