<?xml version="1.0" encoding="UTF-8"?>
<!DOCTYPE svg PUBLIC "-//W3C//DTD SVG 1.1 Tiny//EN" "http://www.w3.org/Graphics/SVG/1.1/DTD/svg11-tiny.dtd">
<svg baseProfile="tiny" height="30px" version="1.1" viewBox="0 0 30 30" width="30px" x="0px" xmlns="http://www.w3.org/2000/svg" xmlns:xlink="http://www.w3.org/1999/xlink" y="0px">
<rect fill="none" height="30" width="30"/>
<path d="M19.327,24.157c-1.174,0-2.125-0.951-2.125-2.125  s0.951-2.125,2.125-2.125c2.876,0,5.215-2.34,5.215-5.215c0-2.876-2.339-5.216-5.215-5.216h-8.654c-2.876,0-5.215,2.34-5.215,5.216  c0,1.899,1.035,3.65,2.7,4.57c1.027,0.568,1.4,1.86,0.832,2.888c-0.566,1.028-1.859,1.398-2.888,0.833  c-3.019-1.669-4.895-4.846-4.895-8.291c0-5.22,4.246-9.466,9.465-9.466h8.654c5.219,0,9.465,4.246,9.465,9.466  C28.792,19.911,24.546,24.157,19.327,24.157z" fill="#FFFFFF" stroke="#000000" stroke-width="2"/>
<path d="M11.479,22.791l6.278,3.166c0.263,0.134,0.576,0.119,0.829-0.035  c0.25-0.154,0.404-0.428,0.404-0.724v-6.332c0-0.295-0.154-0.569-0.404-0.724c-0.138-0.084-0.292-0.126-0.447-0.126  c-0.131,0-0.262,0.029-0.382,0.091l-6.278,3.166c-0.288,0.145-0.468,0.438-0.468,0.759S11.191,22.646,11.479,22.791z" fill="#FFFFFF" stroke="#000000" stroke-width="2"/>
<path d="M19.327,24.157c-1.174,0-2.125-0.951-2.125-2.125s0.951-2.125,2.125-2.125c2.876,0,5.215-2.34,5.215-5.215  c0-2.876-2.339-5.216-5.215-5.216h-8.654c-2.876,0-5.215,2.34-5.215,5.216c0,1.899,1.035,3.65,2.7,4.57  c1.027,0.568,1.4,1.86,0.832,2.888c-0.566,1.028-1.859,1.398-2.888,0.833c-3.019-1.669-4.895-4.846-4.895-8.291  c0-5.22,4.246-9.466,9.465-9.466h8.654c5.219,0,9.465,4.246,9.465,9.466C28.792,19.911,24.546,24.157,19.327,24.157z" fill="#FFFFFF"/>
<path d="M11.479,22.791l6.278,3.166c0.263,0.134,0.576,0.119,0.829-0.035c0.25-0.154,0.404-0.428,0.404-0.724v-6.332  c0-0.295-0.154-0.569-0.404-0.724c-0.138-0.084-0.292-0.126-0.447-0.126c-0.131,0-0.262,0.029-0.382,0.091l-6.278,3.166  c-0.288,0.145-0.468,0.438-0.468,0.759S11.191,22.646,11.479,22.791z" fill="#FFFFFF"/>
</svg>
