<?xml version="1.0" encoding="UTF-8"?>
<!DOCTYPE svg PUBLIC "-//W3C//DTD SVG 1.1 Tiny//EN" "http://www.w3.org/Graphics/SVG/1.1/DTD/svg11-tiny.dtd">
<svg baseProfile="tiny" height="30px" version="1.1" viewBox="0 0 30 30" width="30px" x="0px" xmlns="http://www.w3.org/2000/svg" xmlns:xlink="http://www.w3.org/1999/xlink" y="0px">
<rect fill="none" height="30" width="30"/>
<path d="M7.917,23.608H3.643c-1.181,0-2.138-0.957-2.138-2.138  s0.957-2.138,2.138-2.138h3.151l8.269-12.011c0.399-0.579,1.057-0.926,1.761-0.926h5.202c1.181,0,2.138,0.957,2.138,2.138  s-0.957,2.138-2.138,2.138h-4.078L9.678,22.683C9.279,23.262,8.621,23.608,7.917,23.608z" fill="#FFFFFF" stroke="#000000" stroke-width="2"/>
<path d="M27.643,20.703l-6.315-3.186c-0.266-0.133-0.581-0.119-0.833,0.035  c-0.252,0.156-0.407,0.432-0.407,0.729v6.369c0,0.298,0.154,0.573,0.407,0.729c0.137,0.084,0.292,0.127,0.448,0.127  c0.131,0,0.264-0.031,0.385-0.092l6.315-3.186c0.289-0.145,0.47-0.439,0.47-0.762C28.112,21.143,27.931,20.849,27.643,20.703z" fill="#FFFFFF" stroke="#000000" stroke-width="2"/>
<path d="M20.494,12.447c0.137,0.084,0.292,0.127,0.448,0.127  c0.131,0,0.264-0.031,0.385-0.092l6.315-3.186c0.289-0.146,0.47-0.439,0.47-0.763s-0.181-0.618-0.47-0.763l-6.315-3.186  c-0.266-0.135-0.581-0.12-0.833,0.035s-0.407,0.431-0.407,0.729v6.369C20.087,12.016,20.242,12.291,20.494,12.447z" fill="#FFFFFF" stroke="#000000" stroke-width="2"/>
<path d="M22.025,23.604h-5.202c-0.703,0-1.361-0.346-1.76-0.926l-8.27-12.007  H3.643c-1.181,0-2.138-0.957-2.138-2.138s0.957-2.138,2.138-2.138h4.275c0.703,0,1.361,0.346,1.76,0.926l8.27,12.007h4.078  c1.181,0,2.138,0.957,2.138,2.138S23.206,23.604,22.025,23.604z" fill="#FFFFFF" stroke="#000000" stroke-width="2"/>
<path d="M7.917,23.608H3.643c-1.181,0-2.138-0.957-2.138-2.138s0.957-2.138,2.138-2.138h3.151l8.269-12.011  c0.399-0.579,1.057-0.926,1.761-0.926h5.202c1.181,0,2.138,0.957,2.138,2.138s-0.957,2.138-2.138,2.138h-4.078L9.678,22.683  C9.279,23.262,8.621,23.608,7.917,23.608z" fill="#FFFFFF"/>
<path d="M27.643,20.703l-6.315-3.186c-0.266-0.133-0.581-0.119-0.833,0.035c-0.252,0.156-0.407,0.432-0.407,0.729  v6.369c0,0.298,0.154,0.573,0.407,0.729c0.137,0.084,0.292,0.127,0.448,0.127c0.131,0,0.264-0.031,0.385-0.092l6.315-3.186  c0.289-0.145,0.47-0.439,0.47-0.762C28.112,21.143,27.931,20.849,27.643,20.703z" fill="#FFFFFF"/>
<path d="M20.494,12.447c0.137,0.084,0.292,0.127,0.448,0.127c0.131,0,0.264-0.031,0.385-0.092l6.315-3.186  c0.289-0.146,0.47-0.439,0.47-0.763s-0.181-0.618-0.47-0.763l-6.315-3.186c-0.266-0.135-0.581-0.12-0.833,0.035  s-0.407,0.431-0.407,0.729v6.369C20.087,12.016,20.242,12.291,20.494,12.447z" fill="#FFFFFF"/>
<path d="M22.025,23.604h-5.202c-0.703,0-1.361-0.346-1.76-0.926l-8.27-12.007H3.643  c-1.181,0-2.138-0.957-2.138-2.138s0.957-2.138,2.138-2.138h4.275c0.703,0,1.361,0.346,1.76,0.926l8.27,12.007h4.078  c1.181,0,2.138,0.957,2.138,2.138S23.206,23.604,22.025,23.604z" fill="#FFFFFF"/>
</svg>
